<?xml version="1.0" encoding="UTF-8"?>
<svg width="569px" height="113px" viewBox="0 0 569 113" version="1.1" xmlns="http://www.w3.org/2000/svg" xmlns:xlink="http://www.w3.org/1999/xlink">
    <!-- Generator: Sketch 46.2 (44496) - http://www.bohemiancoding.com/sketch -->
    <title>Group 3</title>
    <desc>Created with Sketch.</desc>
    <defs></defs>
    <g id="Page-1" stroke="none" stroke-width="1" fill="none" fill-rule="evenodd">
        <g id="Group-3" fill-rule="nonzero" fill="#000000">
            <g id="Group" transform="translate(127.000000, 24.000000)">
                <polyline id="Shape" points="84.54 39.49 84.54 61.88 119.02 61.88 119.02 71.46 72.45 71.46 72.45 1.97 118.3 1.97 118.3 11.55 84.54 11.55 84.54 29.91"></polyline>
                <path d="M238.57,24.72 C236.87,15 231.86,10 224,10 C213.7,10 206.54,19 206.54,36.69 C206.54,54.38 213.86,63.4 224,63.4 C232.33,63.4 237.34,58.65 239.31,48.54 L250.66,52 C247,66.36 238,72.72 223.89,72.72 C205.89,72.72 193.71,59.72 193.71,36.81 C193.71,13.9 205.98,0.72 223.89,0.72 C238.13,0.72 247.44,8.72 250.31,21.86 L238.57,24.72 Z" id="Shape"></path>
                <path d="M317.11,47.46 C317.11,64.12 306.9,72.71 290.87,72.71 C274.84,72.71 264.36,64.38 264.36,47.46 L264.36,2 L276.45,2 L276.45,47.31 C276.45,58.68 281.91,63.52 291.14,63.52 C300.37,63.52 305.83,58.68 305.83,47.31 L305.83,2 L317.11,2 L317.11,47.46 Z" id="Shape"></path>
                <polygon id="Shape" points="348.46 61.7 381.06 61.7 381.06 71.46 336.28 71.46 336.28 2 348.46 2"></polygon>
                <polyline id="Shape" points="406.94 39.49 406.94 61.88 441.41 61.88 441.41 71.46 394.85 71.46 394.85 1.97 440.7 1.97 440.7 11.55 406.94 11.55 406.94 29.91"></polyline>
                <polygon id="Shape" points="26.89 29.91 20.18 39.49 20.18 39.49 53.1 39.49 53.1 29.91"></polygon>
                <polyline id="Shape" points="41.1 30.27 41.1 1.97 53.1 1.97 53.1 71.46 41.1 71.46 41.1 40.12"></polyline>
                <polyline id="Shape" points="12.18 40.12 12.18 71.46 0.18 71.46 0.18 1.97 12.18 1.97 12.18 30.27"></polyline>
                <path d="M169,38.51 C178,35.82 182.79,29.51 182.79,20.87 C182.79,8.78 175.09,1.97 158.16,1.97 L133.16,1.97 L133.16,71.46 L145,71.46 L145,11 L157.63,11 C167.21,11 170.7,14.85 170.7,21 C170.7,26 168.16,29.54 162.52,30.83 L157.18,38.46 L157.99,40.25 L172,71.46 L185,71.46 L169,38.51 Z" id="Shape"></path>
                <polygon id="Shape" points="99.25 29.91 92.54 39.49 92.54 39.49 118.3 39.49 118.3 29.91"></polygon>
                <polygon id="Shape" points="421.64 29.91 414.94 39.49 414.94 39.49 440.7 39.49 440.7 29.91"></polygon>
            </g>
            <g id="Group-2">
                <polygon id="Shape" points="0.952673539 88.926305 13.6645797 95.6237302 13.6645797 7.15393217 0.952673539 0.456506936"></polygon>
                <polygon id="Shape" points="84.1713511 58.7631029 93.07816 46.8983277 21.967757 46.8983277 71.0441893 112.312788 71.0441893 71.8143555 58.3322832 63.5090129 58.3322832 74.6856311 58.3322832 74.6856311 46.3830914 58.7631029"></polygon>
                <polygon id="Shape" points="58.8707671 19.7239499 58.8707671 47.6380662 71.5826733 47.6380662 71.5826733 30.3190154"></polygon>
            </g>
        </g>
    </g>
</svg>