<?xml version="1.0" encoding="utf-8" ?>
<svg xmlns="http://www.w3.org/2000/svg" xmlns:xlink="http://www.w3.org/1999/xlink" width="24" height="24">
	<defs>
		<clipPath id="clip_0">
			<rect x="-746" y="-978" width="1920" height="2560" clip-rule="evenodd"/>
		</clipPath>
	</defs>
	<g clip-path="url(#clip_0)">
		<path fill="rgb(131,156,171)" stroke="none" d="M8.5 3L6.5 3C6.224 3 6 2.776 6 2.5C6 2.224 6.224 2 6.5 2L8.5 2C8.776 2 9 2.224 9 2.5C9 2.776 8.776 3 8.5 3M6.25 8.5C6.122 8.5 5.994 8.451 5.896 8.354L4.396 6.854C4.201 6.658 4.201 6.342 4.396 6.146C4.592 5.951 4.908 5.951 5.104 6.146L6.604 7.646C6.799 7.842 6.799 8.158 6.604 8.354C6.506 8.451 6.378 8.5 6.25 8.5M7.75 9.998C7.62 9.998 7.49 9.948 7.4 9.858C7.35 9.808 7.31 9.748 7.29 9.688C7.26 9.628 7.25 9.568 7.25 9.498C7.25 9.438 7.26 9.368 7.29 9.308C7.31 9.248 7.35 9.198 7.4 9.148C7.59 8.958 7.92 8.958 8.1 9.148C8.15 9.198 8.19 9.248 8.21 9.308C8.24 9.368 8.25 9.438 8.25 9.498C8.25 9.568 8.24 9.628 8.21 9.688C8.19 9.748 8.15 9.808 8.1 9.858C8.01 9.948 7.88 9.998 7.75 9.998M17.5 6L16.5 6C16.224 6 16 5.776 16 5.5C16 5.224 16.224 5 16.5 5L17.5 5C17.776 5 18 5.224 18 5.5C18 5.776 17.776 6 17.5 6M16.5 22C16.224 22 16 21.776 16 21.5C16 21.224 16.224 21 16.5 21C16.776 21 17 20.776 17 20.5C17 20.224 16.776 20 16.5 20C16.224 20 16 19.776 16 19.5C16 19.224 16.224 19 16.5 19C17.327 19 18 19.673 18 20.5C18 21.327 17.327 22 16.5 22M22 24L15 24C14.724 24 14.5 23.776 14.5 23.5C14.5 23.224 14.724 23 15 23L22 23C22.551 23 23 22.551 23 22L23 5C23 4.449 22.551 4 22 4L15 4C14.724 4 14.5 3.776 14.5 3.5C14.5 3.224 14.724 3 15 3L22 3C23.103 3 24 3.897 24 5L24 22C24 23.103 23.103 24 22 24"/>
	</g>
	<defs>
		<clipPath id="clip_1">
			<rect x="-746" y="-978" width="1920" height="2560" clip-rule="evenodd"/>
		</clipPath>
	</defs>
	<g clip-path="url(#clip_1)">
		<path fill="rgb(131,156,171)" stroke="none" transform="translate(2 4)" d="M0.75 14L10.25 14C10.664 14 11 13.664 11 13.25L11 0.75C11 0.336 10.664 0 10.25 0L0.75 0C0.336 0 0 0.336 0 0.75L0 13.25C0 13.664 0.336 14 0.75 14ZM10 13L1 13L1 1L10 1L10 13Z" fill-rule="evenodd"/>
	</g>
	<defs>
		<clipPath id="clip_2">
			<rect x="-746" y="-978" width="1920" height="2560" clip-rule="evenodd"/>
		</clipPath>
	</defs>
	<g clip-path="url(#clip_2)">
		<path fill="rgb(131,156,171)" stroke="none" transform="translate(6 19)" d="M1.5 1C1.224 1 1 1.224 1 1.5C1 1.776 1.224 2 1.5 2C1.776 2 2 1.776 2 1.5C2 1.224 1.776 1 1.5 1M1.5 3C0.673 3 0 2.327 0 1.5C0 0.673 0.673 0 1.5 0C2.327 0 3 0.673 3 1.5C3 2.327 2.327 3 1.5 3"/>
	</g>
	<defs>
		<clipPath id="clip_3">
			<rect x="-746" y="-978" width="1920" height="2560" clip-rule="evenodd"/>
		</clipPath>
	</defs>
	<g clip-path="url(#clip_3)">
		<path fill="rgb(131,156,171)" stroke="none" transform="translate(16 7)" d="M5.25 11L0.5 11C0.224 11 0 10.776 0 10.5C0 10.224 0.224 10 0.5 10L5 10L5 1L0.5 1C0.224 1 0 0.776 0 0.5C0 0.224 0.224 0 0.5 0L5.25 0C5.664 0 6 0.336 6 0.75L6 10.25C6 10.664 5.664 11 5.25 11L5.25 11Z"/>
	</g>
	<defs>
		<clipPath id="clip_4">
			<rect x="-746" y="-978" width="1920" height="2560" clip-rule="evenodd"/>
		</clipPath>
	</defs>
	<g clip-path="url(#clip_4)">
		<path fill="rgb(131,156,171)" stroke="none" d="M2 24L13 24C14.103 24 15 23.103 15 22L15 2C15 0.897 14.103 0 13 0L2 0C0.897 0 0 0.897 0 2L0 22C0 23.103 0.897 24 2 24ZM1 2C1 1.449 1.449 1 2 1L13 1C13.551 1 14 1.449 14 2L14 22C14 22.551 13.551 23 13 23L2 23C1.449 23 1 22.551 1 22L1 2Z" fill-rule="evenodd"/>
	</g>

</svg>