

<svg width="19px" height="20px" viewBox="0 0 19 20" version="1.1" xmlns="http://www.w3.org/2000/svg" xmlns:xlink="http://www.w3.org/1999/xlink">
<g id="组件" stroke="none" stroke-width="1" fill="none" fill-rule="evenodd">
    <g id="secNavi_row" transform="translate(-20.000000, -14.000000)" fill="#6E8591">
        <g id="icon_sec_02" transform="translate(20.000000, 14.000000)">
            <path d="M8.3535,5.8535 L7.2075,6.9995 L7.4995,6.9995 C7.7765,6.9995 7.9995,7.2235 7.9995,7.4995 C7.9995,7.7765 7.7765,7.9995 7.4995,7.9995 L6.4995,7.9995 L6.4995,8.9875 L7.4995,8.9875 C7.7765,8.9875 7.9995,9.2105 7.9995,9.4875 C7.9995,9.7635 7.7765,9.9875 7.4995,9.9875 L6.4995,9.9875 L6.4995,11.4875 C6.4995,11.7635 6.2765,11.9875 5.9995,11.9875 C5.7235,11.9875 5.4995,11.7635 5.4995,11.4875 L5.4995,9.9875 L4.4995,9.9875 C4.2235,9.9875 3.9995,9.7635 3.9995,9.4875 C3.9995,9.2105 4.2235,8.9875 4.4995,8.9875 L5.4995,8.9875 L5.4995,7.9995 L4.4995,7.9995 C4.2235,7.9995 3.9995,7.7765 3.9995,7.4995 C3.9995,7.2235 4.2235,6.9995 4.4995,6.9995 L4.7925,6.9995 L3.6465,5.8535 C3.4515,5.6585 3.4515,5.3415 3.6465,5.1465 C3.8415,4.9515 4.1585,4.9515 4.3535,5.1465 L5.9995,6.7925 L7.6465,5.1465 C7.8415,4.9515 8.1585,4.9515 8.3535,5.1465 C8.5485,5.3415 8.5485,5.6585 8.3535,5.8535" id="Fill-1"></path>
            <path d="M19,13.5 C19,14.327 18.327,15 17.5,15 L12,15 L12,1 L17.5,1 C18.327,1 19,1.673 19,2.5 L19,13.5 Z M1,13.5 L1,2.5 C1,1.673 1.673,1 2.5,1 L11,1 L11,15 L2.5,15 C1.673,15 1,14.327 1,13.5 L1,13.5 Z M17.5,0 L2.5,0 C1.122,0 0,1.121 0,2.5 L0,13.5 C0,14.879 1.122,16 2.5,16 L17.5,16 C18.878,16 20,14.879 20,13.5 L20,2.5 C20,1.121 18.878,0 17.5,0 L17.5,0 Z" id="Fill-3"></path>
            <path d="M17.5,5 L13.5,5 C13.224,5 13,5.224 13,5.5 C13,5.776 13.224,6 13.5,6 L17.5,6 C17.776,6 18,5.776 18,5.5 C18,5.224 17.776,5 17.5,5" id="Fill-5"></path>
            <path d="M17.5,8 L13.5,8 C13.224,8 13,8.224 13,8.5 C13,8.776 13.224,9 13.5,9 L17.5,9 C17.776,9 18,8.776 18,8.5 C18,8.224 17.776,8 17.5,8" id="Fill-7"></path>
            <path d="M14.5,11 L13.5,11 C13.22,11 13,11.229 13,11.5 C13,11.78 13.22,12 13.5,12 L14.5,12 C14.78,12 15,11.78 15,11.5 C15,11.229 14.78,11 14.5,11" id="Fill-9"></path>
            <path d="M16.5,11 C16.22,11 16,11.229 16,11.5 C16,11.78 16.22,12 16.5,12 C16.78,12 17,11.78 17,11.5 C17,11.229 16.78,11 16.5,11" id="Fill-11"></path>
        </g>
    </g>
</g>
</svg>