
<svg width="19px" height="20px" viewBox="0 0 19 20" version="1.1" xmlns="http://www.w3.org/2000/svg" xmlns:xlink="http://www.w3.org/1999/xlink">
<g id="组件" stroke="none" stroke-width="1" fill="none" fill-rule="evenodd">
    <g id="secNavi_row" transform="translate(-20.000000, -14.000000)" fill="#6E8591">
        <g id="icon_sec_02" transform="translate(20.000000, 14.000000)">
            <path d="M17.5,18.875 L2.5,18.875 C1.673,18.875 1,18.202 1,17.375 C1,16.548 1.673,15.875 2.5,15.875 L17.5,15.875 C18.327,15.875 19,16.548 19,17.375 C19,18.202 18.327,18.875 17.5,18.875 M17.5,14.875 L2.5,14.875 C1.121,14.875 0,15.996 0,17.375 C0,18.754 1.121,19.875 2.5,19.875 L17.5,19.875 C18.879,19.875 20,18.754 20,17.375 C20,15.996 18.879,14.875 17.5,14.875" id="Fill-1"></path>
            <path d="M5.5,16.875 L4.5,16.875 C4.224,16.875 4,17.099 4,17.375 C4,17.651 4.224,17.875 4.5,17.875 L5.5,17.875 C5.776,17.875 6,17.651 6,17.375 C6,17.099 5.776,16.875 5.5,16.875" id="Fill-3"></path>
            <path d="M10.5,16.875 L9.5,16.875 C9.224,16.875 9,17.099 9,17.375 C9,17.651 9.224,17.875 9.5,17.875 L10.5,17.875 C10.776,17.875 11,17.651 11,17.375 C11,17.099 10.776,16.875 10.5,16.875" id="Fill-5"></path>
            <path d="M15.5,16.875 L14.5,16.875 C14.224,16.875 14,17.099 14,17.375 C14,17.651 14.224,17.875 14.5,17.875 L15.5,17.875 C15.776,17.875 16,17.651 16,17.375 C16,17.099 15.776,16.875 15.5,16.875" id="Fill-7"></path>
            <path d="M12.5,11.375 L12.5,13.375 C12.5,13.651 12.724,13.875 13,13.875 C13.276,13.875 13.5,13.651 13.5,13.375 L13.5,11.375 C13.5,11.1 13.725,10.875 14,10.875 L16,10.875 C16.275,10.875 16.5,11.1 16.5,11.375 L16.5,13.375 C16.5,13.651 16.724,13.875 17,13.875 C17.276,13.875 17.5,13.651 17.5,13.375 L17.5,11.375 C17.5,10.548 16.827,9.875 16,9.875 L14,9.875 C13.173,9.875 12.5,10.548 12.5,11.375" id="Fill-9"></path>
            <path d="M6,13.875 C6.276,13.875 6.5,13.651 6.5,13.375 L6.5,11.375 C6.5,11.1 6.725,10.875 7,10.875 L9,10.875 C9.275,10.875 9.5,11.1 9.5,11.375 L9.5,13.375 C9.5,13.651 9.724,13.875 10,13.875 C10.276,13.875 10.5,13.651 10.5,13.375 L10.5,11.375 C10.5,10.548 9.827,9.875 9,9.875 L7,9.875 C6.173,9.875 5.5,10.548 5.5,11.375 L5.5,13.375 C5.5,13.651 5.724,13.875 6,13.875" id="Fill-11"></path>
            <path d="M7.5,3.5 C7.5,3.225 7.725,3 8,3 L12,3 C12.275,3 12.5,3.225 12.5,3.5 L12.5,5 L12.501,5 L12.5,5.5 L12.5,5 L7.5,5 L7.5,3.5 Z M7.5,6 L7.5,7.293 C7.5,7.56 7.604,7.812 7.793,8 L8.646,8.854 C8.744,8.951 8.872,9 9,9 C9.128,9 9.256,8.951 9.354,8.854 C9.549,8.658 9.549,8.342 9.354,8.146 L8.5,7.293 L8.5,6 L11.5,6 L11.5,7.293 L10.646,8.146 C10.451,8.342 10.451,8.658 10.646,8.854 C10.744,8.951 10.872,9 11,9 C11.128,9 11.256,8.951 11.354,8.854 L12.207,8 C12.396,7.812 12.5,7.56 12.5,7.293 L12.5,6 C13.052,6 13.5,5.552 13.5,5 L13.5,3.5 C13.5,2.673 12.827,2 12,2 L10.5,2 L10.5,0.5 C10.5,0.224 10.276,0 10,0 C9.724,0 9.5,0.224 9.5,0.5 L9.5,2 L8,2 C7.173,2 6.5,2.673 6.5,3.5 L6.5,5 C6.5,5.552 6.948,6 7.5,6 L7.5,6 Z" id="Fill-13"></path>
        </g>
    </g>
</g>
</svg>