<?xml version="1.0" encoding="utf-8" ?>
<svg xmlns="http://www.w3.org/2000/svg" xmlns:xlink="http://www.w3.org/1999/xlink" width="28" height="28">
	<defs>
		<clipPath id="clip_0">
			<path d="M40 -192L-184 -192Q-184.205 -192 -184.408 -191.991Q-184.612 -191.981 -184.814 -191.963Q-185.015 -191.944 -185.215 -191.916Q-185.415 -191.888 -185.611 -191.851Q-185.808 -191.814 -186.002 -191.768Q-186.196 -191.722 -186.387 -191.666Q-186.577 -191.611 -186.764 -191.547Q-186.951 -191.483 -187.133 -191.41Q-187.316 -191.337 -187.494 -191.255Q-187.672 -191.173 -187.845 -191.083Q-188.018 -190.993 -188.186 -190.894Q-188.354 -190.796 -188.516 -190.689Q-188.678 -190.583 -188.834 -190.468Q-188.991 -190.354 -189.141 -190.232Q-189.291 -190.11 -189.434 -189.98Q-189.578 -189.851 -189.714 -189.714Q-189.851 -189.578 -189.98 -189.434Q-190.11 -189.291 -190.232 -189.141Q-190.354 -188.991 -190.468 -188.834Q-190.583 -188.678 -190.689 -188.516Q-190.796 -188.354 -190.894 -188.186Q-190.993 -188.018 -191.083 -187.845Q-191.173 -187.672 -191.255 -187.494Q-191.337 -187.316 -191.41 -187.133Q-191.483 -186.951 -191.547 -186.764Q-191.611 -186.577 -191.666 -186.387Q-191.722 -186.196 -191.768 -186.002Q-191.814 -185.808 -191.851 -185.611Q-191.888 -185.415 -191.916 -185.215Q-191.944 -185.015 -191.963 -184.814Q-191.981 -184.612 -191.991 -184.408Q-192 -184.205 -192 -184L-192 60Q-192 60.2049 -191.991 60.4085Q-191.981 60.612 -191.963 60.8137Q-191.944 61.0155 -191.916 61.215Q-191.888 61.4146 -191.851 61.6115Q-191.814 61.8084 -191.768 62.0024Q-191.722 62.1963 -191.666 62.3868Q-191.611 62.5773 -191.547 62.7641Q-191.483 62.9508 -191.41 63.1333Q-191.337 63.3159 -191.255 63.4939Q-191.173 63.6719 -191.083 63.845Q-190.993 64.0181 -190.894 64.1859Q-190.796 64.3537 -190.689 64.5159Q-190.583 64.6782 -190.468 64.8344Q-190.354 64.9907 -190.232 65.1407Q-190.11 65.2908 -189.98 65.4342Q-189.851 65.5777 -189.714 65.7143Q-189.578 65.8509 -189.434 65.9804Q-189.291 66.1098 -189.141 66.2319Q-188.991 66.354 -188.834 66.4684Q-188.678 66.5828 -188.516 66.6894Q-188.354 66.796 -188.186 66.8944Q-188.018 66.9929 -187.845 67.083Q-187.672 67.1732 -187.494 67.2548Q-187.316 67.3365 -187.133 67.4095Q-186.951 67.4825 -186.764 67.5468Q-186.577 67.611 -186.387 67.6663Q-186.196 67.7216 -186.002 67.7678Q-185.808 67.8141 -185.611 67.8512Q-185.415 67.8883 -185.215 67.9162Q-185.015 67.9441 -184.814 67.9627Q-184.612 67.9813 -184.408 67.9907Q-184.205 68 -184 68L40 68Q40.2049 68 40.4085 67.9907Q40.612 67.9813 40.8137 67.9627Q41.0155 67.9441 41.215 67.9162Q41.4146 67.8883 41.6115 67.8512Q41.8084 67.8141 42.0024 67.7678Q42.1963 67.7216 42.3868 67.6663Q42.5773 67.611 42.7641 67.5468Q42.9508 67.4825 43.1333 67.4095Q43.3159 67.3365 43.4939 67.2548Q43.6719 67.1732 43.845 67.083Q44.0181 66.9929 44.1859 66.8944Q44.3537 66.796 44.5159 66.6894Q44.6781 66.5828 44.8344 66.4684Q44.9907 66.354 45.1407 66.2319Q45.2908 66.1098 45.4342 65.9804Q45.5777 65.8509 45.7143 65.7143Q45.8509 65.5777 45.9804 65.4342Q46.1098 65.2908 46.2319 65.1407Q46.354 64.9907 46.4684 64.8344Q46.5829 64.6782 46.6894 64.5159Q46.7959 64.3537 46.8944 64.1859Q46.9929 64.0181 47.083 63.845Q47.1732 63.6719 47.2548 63.4939Q47.3365 63.3159 47.4095 63.1333Q47.4825 62.9508 47.5468 62.7641Q47.611 62.5773 47.6663 62.3868Q47.7216 62.1963 47.7678 62.0024Q47.8141 61.8084 47.8512 61.6115Q47.8883 61.4146 47.9162 61.215Q47.9441 61.0155 47.9627 60.8137Q47.9814 60.612 47.9907 60.4085Q48 60.2049 48 60L48 -184Q48 -184.205 47.9907 -184.408Q47.9814 -184.612 47.9627 -184.814Q47.9441 -185.015 47.9162 -185.215Q47.8883 -185.415 47.8512 -185.611Q47.8141 -185.808 47.7678 -186.002Q47.7216 -186.196 47.6663 -186.387Q47.611 -186.577 47.5468 -186.764Q47.4825 -186.951 47.4095 -187.133Q47.3365 -187.316 47.2548 -187.494Q47.1732 -187.672 47.083 -187.845Q46.9929 -188.018 46.8944 -188.186Q46.7959 -188.354 46.6894 -188.516Q46.5829 -188.678 46.4684 -188.834Q46.354 -188.991 46.2319 -189.141Q46.1098 -189.291 45.9804 -189.434Q45.8509 -189.578 45.7143 -189.714Q45.5777 -189.851 45.4342 -189.98Q45.2908 -190.11 45.1407 -190.232Q44.9907 -190.354 44.8344 -190.468Q44.6781 -190.583 44.5159 -190.689Q44.3537 -190.796 44.1859 -190.894Q44.0181 -190.993 43.845 -191.083Q43.6719 -191.173 43.4939 -191.255Q43.3159 -191.337 43.1333 -191.41Q42.9508 -191.483 42.7641 -191.547Q42.5773 -191.611 42.3868 -191.666Q42.1963 -191.722 42.0024 -191.768Q41.8084 -191.814 41.6115 -191.851Q41.4146 -191.888 41.215 -191.916Q41.0155 -191.944 40.8137 -191.963Q40.612 -191.981 40.4085 -191.991Q40.2049 -192 40 -192Z" clip-rule="evenodd"/>
		</clipPath>
	</defs>
	<g clip-path="url(#clip_0)">
		<path fill="rgb(131,156,171)" fill-opacity="0.10196079" stroke="none" d="M6 0L22 0Q22.1537 0 22.3063 0.0069945Q22.459 0.013989 22.6103 0.0279637Q22.7616 0.0419385 22.9113 0.0628649Q23.0609 0.0837914 23.2086 0.111627Q23.3563 0.139462 23.5018 0.17415Q23.6472 0.208838 23.7901 0.250307Q23.933 0.291776 24.073 0.339942Q24.2131 0.388108 24.35 0.442873Q24.4869 0.497638 24.6204 0.558889Q24.7539 0.620141 24.8837 0.687755Q25.0135 0.755368 25.1394 0.829206Q25.2653 0.903043 25.3869 0.982954Q25.5086 1.06287 25.6258 1.14869Q25.743 1.23451 25.8555 1.32606Q25.9681 1.41762 26.0757 1.51473Q26.1833 1.61183 26.2857 1.71429Q26.3882 1.81674 26.4853 1.92434Q26.5824 2.03193 26.6739 2.14445Q26.7655 2.25697 26.8513 2.37418Q26.9371 2.49139 27.017 2.61306Q27.097 2.73472 27.1708 2.86059Q27.2446 2.98646 27.3123 3.11628Q27.3799 3.2461 27.4411 3.3796Q27.5024 3.5131 27.5571 3.65001Q27.6119 3.78692 27.6601 3.92696Q27.7082 4.06701 27.7497 4.2099Q27.7912 4.35279 27.8259 4.49823Q27.8605 4.64367 27.8884 4.79138Q27.9162 4.93908 27.9371 5.08874Q27.9581 5.23839 27.972 5.3897Q27.986 5.54101 27.993 5.69367Q28 5.84632 28 6L28 22Q28 22.1537 27.993 22.3063Q27.986 22.459 27.972 22.6103Q27.9581 22.7616 27.9371 22.9113Q27.9162 23.0609 27.8884 23.2086Q27.8605 23.3563 27.8259 23.5018Q27.7912 23.6472 27.7497 23.7901Q27.7082 23.933 27.6601 24.073Q27.6119 24.2131 27.5571 24.35Q27.5024 24.4869 27.4411 24.6204Q27.3799 24.7539 27.3123 24.8837Q27.2446 25.0135 27.1708 25.1394Q27.097 25.2653 27.017 25.3869Q26.9371 25.5086 26.8513 25.6258Q26.7655 25.743 26.6739 25.8555Q26.5824 25.9681 26.4853 26.0757Q26.3882 26.1833 26.2857 26.2857Q26.1833 26.3882 26.0757 26.4853Q25.9681 26.5824 25.8555 26.6739Q25.743 26.7655 25.6258 26.8513Q25.5086 26.9371 25.3869 27.017Q25.2653 27.097 25.1394 27.1708Q25.0135 27.2446 24.8837 27.3123Q24.7539 27.3799 24.6204 27.4411Q24.4869 27.5024 24.35 27.5571Q24.2131 27.6119 24.073 27.6601Q23.933 27.7082 23.7901 27.7497Q23.6472 27.7912 23.5018 27.8259Q23.3563 27.8605 23.2086 27.8884Q23.0609 27.9162 22.9113 27.9371Q22.7616 27.9581 22.6103 27.972Q22.459 27.986 22.3063 27.993Q22.1537 28 22 28L6 28Q5.84632 28 5.69367 27.993Q5.54101 27.986 5.3897 27.972Q5.23839 27.9581 5.08874 27.9371Q4.93908 27.9162 4.79138 27.8884Q4.64367 27.8605 4.49823 27.8259Q4.35279 27.7912 4.2099 27.7497Q4.06701 27.7082 3.92696 27.6601Q3.78692 27.6119 3.65001 27.5571Q3.5131 27.5024 3.3796 27.4411Q3.2461 27.3799 3.11628 27.3123Q2.98646 27.2446 2.86059 27.1708Q2.73472 27.097 2.61306 27.017Q2.49139 26.9371 2.37418 26.8513Q2.25697 26.7655 2.14445 26.6739Q2.03193 26.5824 1.92434 26.4853Q1.81674 26.3882 1.71429 26.2857Q1.61183 26.1833 1.51473 26.0757Q1.41762 25.9681 1.32606 25.8555Q1.23451 25.743 1.14869 25.6258Q1.06287 25.5086 0.982954 25.3869Q0.903043 25.2653 0.829206 25.1394Q0.755368 25.0135 0.687755 24.8837Q0.620141 24.7539 0.558889 24.6204Q0.497638 24.4869 0.442873 24.35Q0.388108 24.2131 0.339942 24.073Q0.291776 23.933 0.250307 23.7901Q0.208838 23.6472 0.17415 23.5018Q0.139462 23.3563 0.111627 23.2086Q0.0837914 23.0609 0.0628649 22.9113Q0.0419385 22.7616 0.0279637 22.6103Q0.013989 22.459 0.0069945 22.3063Q0 22.1537 0 22L0 6Q0 5.84632 0.0069945 5.69367Q0.013989 5.54101 0.0279637 5.3897Q0.0419385 5.23839 0.0628649 5.08874Q0.0837914 4.93908 0.111627 4.79138Q0.139462 4.64367 0.17415 4.49823Q0.208838 4.35279 0.250307 4.2099Q0.291776 4.06701 0.339942 3.92696Q0.388108 3.78692 0.442873 3.65001Q0.497638 3.5131 0.558889 3.3796Q0.620141 3.2461 0.687755 3.11628Q0.755368 2.98646 0.829206 2.86059Q0.903043 2.73472 0.982954 2.61306Q1.06287 2.49139 1.14869 2.37418Q1.23451 2.25697 1.32606 2.14445Q1.41762 2.03193 1.51473 1.92434Q1.61183 1.81674 1.71429 1.71429Q1.81674 1.61183 1.92434 1.51473Q2.03193 1.41762 2.14445 1.32606Q2.25697 1.23451 2.37418 1.14869Q2.49139 1.06287 2.61306 0.982954Q2.73472 0.903043 2.86059 0.829206Q2.98646 0.755368 3.11628 0.687755Q3.2461 0.620141 3.3796 0.558889Q3.5131 0.497638 3.65001 0.442873Q3.78692 0.388108 3.92696 0.339942Q4.06701 0.291776 4.2099 0.250307Q4.35279 0.208838 4.49823 0.17415Q4.64367 0.139462 4.79138 0.111627Q4.93908 0.0837914 5.08874 0.0628649Q5.23839 0.0419385 5.3897 0.0279637Q5.54101 0.013989 5.69367 0.0069945Q5.84632 0 6 0Z"/>
	</g>
	<defs>
		<clipPath id="clip_1">
			<path d="M40 -192L-184 -192Q-184.205 -192 -184.408 -191.991Q-184.612 -191.981 -184.814 -191.963Q-185.015 -191.944 -185.215 -191.916Q-185.415 -191.888 -185.611 -191.851Q-185.808 -191.814 -186.002 -191.768Q-186.196 -191.722 -186.387 -191.666Q-186.577 -191.611 -186.764 -191.547Q-186.951 -191.483 -187.133 -191.41Q-187.316 -191.337 -187.494 -191.255Q-187.672 -191.173 -187.845 -191.083Q-188.018 -190.993 -188.186 -190.894Q-188.354 -190.796 -188.516 -190.689Q-188.678 -190.583 -188.834 -190.468Q-188.991 -190.354 -189.141 -190.232Q-189.291 -190.11 -189.434 -189.98Q-189.578 -189.851 -189.714 -189.714Q-189.851 -189.578 -189.98 -189.434Q-190.11 -189.291 -190.232 -189.141Q-190.354 -188.991 -190.468 -188.834Q-190.583 -188.678 -190.689 -188.516Q-190.796 -188.354 -190.894 -188.186Q-190.993 -188.018 -191.083 -187.845Q-191.173 -187.672 -191.255 -187.494Q-191.337 -187.316 -191.41 -187.133Q-191.483 -186.951 -191.547 -186.764Q-191.611 -186.577 -191.666 -186.387Q-191.722 -186.196 -191.768 -186.002Q-191.814 -185.808 -191.851 -185.611Q-191.888 -185.415 -191.916 -185.215Q-191.944 -185.015 -191.963 -184.814Q-191.981 -184.612 -191.991 -184.408Q-192 -184.205 -192 -184L-192 60Q-192 60.2049 -191.991 60.4085Q-191.981 60.612 -191.963 60.8137Q-191.944 61.0155 -191.916 61.215Q-191.888 61.4146 -191.851 61.6115Q-191.814 61.8084 -191.768 62.0024Q-191.722 62.1963 -191.666 62.3868Q-191.611 62.5773 -191.547 62.7641Q-191.483 62.9508 -191.41 63.1333Q-191.337 63.3159 -191.255 63.4939Q-191.173 63.6719 -191.083 63.845Q-190.993 64.0181 -190.894 64.1859Q-190.796 64.3537 -190.689 64.5159Q-190.583 64.6782 -190.468 64.8344Q-190.354 64.9907 -190.232 65.1407Q-190.11 65.2908 -189.98 65.4342Q-189.851 65.5777 -189.714 65.7143Q-189.578 65.8509 -189.434 65.9804Q-189.291 66.1098 -189.141 66.2319Q-188.991 66.354 -188.834 66.4684Q-188.678 66.5828 -188.516 66.6894Q-188.354 66.796 -188.186 66.8944Q-188.018 66.9929 -187.845 67.083Q-187.672 67.1732 -187.494 67.2548Q-187.316 67.3365 -187.133 67.4095Q-186.951 67.4825 -186.764 67.5468Q-186.577 67.611 -186.387 67.6663Q-186.196 67.7216 -186.002 67.7678Q-185.808 67.8141 -185.611 67.8512Q-185.415 67.8883 -185.215 67.9162Q-185.015 67.9441 -184.814 67.9627Q-184.612 67.9813 -184.408 67.9907Q-184.205 68 -184 68L40 68Q40.2049 68 40.4085 67.9907Q40.612 67.9813 40.8137 67.9627Q41.0155 67.9441 41.215 67.9162Q41.4146 67.8883 41.6115 67.8512Q41.8084 67.8141 42.0024 67.7678Q42.1963 67.7216 42.3868 67.6663Q42.5773 67.611 42.7641 67.5468Q42.9508 67.4825 43.1333 67.4095Q43.3159 67.3365 43.4939 67.2548Q43.6719 67.1732 43.845 67.083Q44.0181 66.9929 44.1859 66.8944Q44.3537 66.796 44.5159 66.6894Q44.6781 66.5828 44.8344 66.4684Q44.9907 66.354 45.1407 66.2319Q45.2908 66.1098 45.4342 65.9804Q45.5777 65.8509 45.7143 65.7143Q45.8509 65.5777 45.9804 65.4342Q46.1098 65.2908 46.2319 65.1407Q46.354 64.9907 46.4684 64.8344Q46.5829 64.6782 46.6894 64.5159Q46.7959 64.3537 46.8944 64.1859Q46.9929 64.0181 47.083 63.845Q47.1732 63.6719 47.2548 63.4939Q47.3365 63.3159 47.4095 63.1333Q47.4825 62.9508 47.5468 62.7641Q47.611 62.5773 47.6663 62.3868Q47.7216 62.1963 47.7678 62.0024Q47.8141 61.8084 47.8512 61.6115Q47.8883 61.4146 47.9162 61.215Q47.9441 61.0155 47.9627 60.8137Q47.9814 60.612 47.9907 60.4085Q48 60.2049 48 60L48 -184Q48 -184.205 47.9907 -184.408Q47.9814 -184.612 47.9627 -184.814Q47.9441 -185.015 47.9162 -185.215Q47.8883 -185.415 47.8512 -185.611Q47.8141 -185.808 47.7678 -186.002Q47.7216 -186.196 47.6663 -186.387Q47.611 -186.577 47.5468 -186.764Q47.4825 -186.951 47.4095 -187.133Q47.3365 -187.316 47.2548 -187.494Q47.1732 -187.672 47.083 -187.845Q46.9929 -188.018 46.8944 -188.186Q46.7959 -188.354 46.6894 -188.516Q46.5829 -188.678 46.4684 -188.834Q46.354 -188.991 46.2319 -189.141Q46.1098 -189.291 45.9804 -189.434Q45.8509 -189.578 45.7143 -189.714Q45.5777 -189.851 45.4342 -189.98Q45.2908 -190.11 45.1407 -190.232Q44.9907 -190.354 44.8344 -190.468Q44.6781 -190.583 44.5159 -190.689Q44.3537 -190.796 44.1859 -190.894Q44.0181 -190.993 43.845 -191.083Q43.6719 -191.173 43.4939 -191.255Q43.3159 -191.337 43.1333 -191.41Q42.9508 -191.483 42.7641 -191.547Q42.5773 -191.611 42.3868 -191.666Q42.1963 -191.722 42.0024 -191.768Q41.8084 -191.814 41.6115 -191.851Q41.4146 -191.888 41.215 -191.916Q41.0155 -191.944 40.8137 -191.963Q40.612 -191.981 40.4085 -191.991Q40.2049 -192 40 -192Z" clip-rule="evenodd"/>
		</clipPath>
	</defs>
	<g clip-path="url(#clip_1)">
		<path fill="rgb(131,156,171)" stroke="none" transform="matrix(1 0 0 -1 8 15.306)" d="M0.5 6.6L1.66 6.6Q1.71136 6.6 1.76072 6.5907Q1.81008 6.5814 1.85583 6.56309Q1.90159 6.54479 1.94225 6.51809Q1.9829 6.49138 2.01714 6.45714Q2.05138 6.4229 2.07809 6.38225Q2.10479 6.34159 2.12309 6.29583Q2.1414 6.25008 2.1507 6.20072Q2.16 6.15136 2.16 6.1L2.16 0.5Q2.16 0.448641 2.1507 0.399281Q2.1414 0.349921 2.12309 0.304167Q2.10479 0.258413 2.07809 0.217755Q2.05138 0.177096 2.01714 0.142857Q1.9829 0.108618 1.94225 0.0819128Q1.90159 0.0552077 1.85583 0.0369061Q1.81008 0.0186045 1.76072 0.00930224Q1.71136 0 1.66 0L0.5 0Q0.448641 0 0.399281 0.00930224Q0.349921 0.0186045 0.304167 0.0369061Q0.258413 0.0552077 0.217755 0.0819128Q0.177096 0.108618 0.142857 0.142857Q0.108618 0.177096 0.0819128 0.217755Q0.0552077 0.258413 0.0369061 0.304167Q0.0186045 0.349921 0.00930224 0.399281Q0 0.448641 0 0.5L0 6.1Q0 6.15136 0.00930224 6.20072Q0.0186045 6.25008 0.0369061 6.29583Q0.0552077 6.34159 0.0819128 6.38225Q0.108618 6.4229 0.142857 6.45714Q0.177096 6.49138 0.217755 6.51809Q0.258413 6.54479 0.304167 6.56309Q0.349921 6.5814 0.399281 6.5907Q0.448641 6.6 0.5 6.6Z"/>
	</g>
	<defs>
		<clipPath id="clip_2">
			<path d="M40 -192L-184 -192Q-184.205 -192 -184.408 -191.991Q-184.612 -191.981 -184.814 -191.963Q-185.015 -191.944 -185.215 -191.916Q-185.415 -191.888 -185.611 -191.851Q-185.808 -191.814 -186.002 -191.768Q-186.196 -191.722 -186.387 -191.666Q-186.577 -191.611 -186.764 -191.547Q-186.951 -191.483 -187.133 -191.41Q-187.316 -191.337 -187.494 -191.255Q-187.672 -191.173 -187.845 -191.083Q-188.018 -190.993 -188.186 -190.894Q-188.354 -190.796 -188.516 -190.689Q-188.678 -190.583 -188.834 -190.468Q-188.991 -190.354 -189.141 -190.232Q-189.291 -190.11 -189.434 -189.98Q-189.578 -189.851 -189.714 -189.714Q-189.851 -189.578 -189.98 -189.434Q-190.11 -189.291 -190.232 -189.141Q-190.354 -188.991 -190.468 -188.834Q-190.583 -188.678 -190.689 -188.516Q-190.796 -188.354 -190.894 -188.186Q-190.993 -188.018 -191.083 -187.845Q-191.173 -187.672 -191.255 -187.494Q-191.337 -187.316 -191.41 -187.133Q-191.483 -186.951 -191.547 -186.764Q-191.611 -186.577 -191.666 -186.387Q-191.722 -186.196 -191.768 -186.002Q-191.814 -185.808 -191.851 -185.611Q-191.888 -185.415 -191.916 -185.215Q-191.944 -185.015 -191.963 -184.814Q-191.981 -184.612 -191.991 -184.408Q-192 -184.205 -192 -184L-192 60Q-192 60.2049 -191.991 60.4085Q-191.981 60.612 -191.963 60.8137Q-191.944 61.0155 -191.916 61.215Q-191.888 61.4146 -191.851 61.6115Q-191.814 61.8084 -191.768 62.0024Q-191.722 62.1963 -191.666 62.3868Q-191.611 62.5773 -191.547 62.7641Q-191.483 62.9508 -191.41 63.1333Q-191.337 63.3159 -191.255 63.4939Q-191.173 63.6719 -191.083 63.845Q-190.993 64.0181 -190.894 64.1859Q-190.796 64.3537 -190.689 64.5159Q-190.583 64.6782 -190.468 64.8344Q-190.354 64.9907 -190.232 65.1407Q-190.11 65.2908 -189.98 65.4342Q-189.851 65.5777 -189.714 65.7143Q-189.578 65.8509 -189.434 65.9804Q-189.291 66.1098 -189.141 66.2319Q-188.991 66.354 -188.834 66.4684Q-188.678 66.5828 -188.516 66.6894Q-188.354 66.796 -188.186 66.8944Q-188.018 66.9929 -187.845 67.083Q-187.672 67.1732 -187.494 67.2548Q-187.316 67.3365 -187.133 67.4095Q-186.951 67.4825 -186.764 67.5468Q-186.577 67.611 -186.387 67.6663Q-186.196 67.7216 -186.002 67.7678Q-185.808 67.8141 -185.611 67.8512Q-185.415 67.8883 -185.215 67.9162Q-185.015 67.9441 -184.814 67.9627Q-184.612 67.9813 -184.408 67.9907Q-184.205 68 -184 68L40 68Q40.2049 68 40.4085 67.9907Q40.612 67.9813 40.8137 67.9627Q41.0155 67.9441 41.215 67.9162Q41.4146 67.8883 41.6115 67.8512Q41.8084 67.8141 42.0024 67.7678Q42.1963 67.7216 42.3868 67.6663Q42.5773 67.611 42.7641 67.5468Q42.9508 67.4825 43.1333 67.4095Q43.3159 67.3365 43.4939 67.2548Q43.6719 67.1732 43.845 67.083Q44.0181 66.9929 44.1859 66.8944Q44.3537 66.796 44.5159 66.6894Q44.6781 66.5828 44.8344 66.4684Q44.9907 66.354 45.1407 66.2319Q45.2908 66.1098 45.4342 65.9804Q45.5777 65.8509 45.7143 65.7143Q45.8509 65.5777 45.9804 65.4342Q46.1098 65.2908 46.2319 65.1407Q46.354 64.9907 46.4684 64.8344Q46.5829 64.6782 46.6894 64.5159Q46.7959 64.3537 46.8944 64.1859Q46.9929 64.0181 47.083 63.845Q47.1732 63.6719 47.2548 63.4939Q47.3365 63.3159 47.4095 63.1333Q47.4825 62.9508 47.5468 62.7641Q47.611 62.5773 47.6663 62.3868Q47.7216 62.1963 47.7678 62.0024Q47.8141 61.8084 47.8512 61.6115Q47.8883 61.4146 47.9162 61.215Q47.9441 61.0155 47.9627 60.8137Q47.9814 60.612 47.9907 60.4085Q48 60.2049 48 60L48 -184Q48 -184.205 47.9907 -184.408Q47.9814 -184.612 47.9627 -184.814Q47.9441 -185.015 47.9162 -185.215Q47.8883 -185.415 47.8512 -185.611Q47.8141 -185.808 47.7678 -186.002Q47.7216 -186.196 47.6663 -186.387Q47.611 -186.577 47.5468 -186.764Q47.4825 -186.951 47.4095 -187.133Q47.3365 -187.316 47.2548 -187.494Q47.1732 -187.672 47.083 -187.845Q46.9929 -188.018 46.8944 -188.186Q46.7959 -188.354 46.6894 -188.516Q46.5829 -188.678 46.4684 -188.834Q46.354 -188.991 46.2319 -189.141Q46.1098 -189.291 45.9804 -189.434Q45.8509 -189.578 45.7143 -189.714Q45.5777 -189.851 45.4342 -189.98Q45.2908 -190.11 45.1407 -190.232Q44.9907 -190.354 44.8344 -190.468Q44.6781 -190.583 44.5159 -190.689Q44.3537 -190.796 44.1859 -190.894Q44.0181 -190.993 43.845 -191.083Q43.6719 -191.173 43.4939 -191.255Q43.3159 -191.337 43.1333 -191.41Q42.9508 -191.483 42.7641 -191.547Q42.5773 -191.611 42.3868 -191.666Q42.1963 -191.722 42.0024 -191.768Q41.8084 -191.814 41.6115 -191.851Q41.4146 -191.888 41.215 -191.916Q41.0155 -191.944 40.8137 -191.963Q40.612 -191.981 40.4085 -191.991Q40.2049 -192 40 -192Z" clip-rule="evenodd"/>
		</clipPath>
	</defs>
	<g clip-path="url(#clip_2)">
		<path fill="rgb(131,156,171)" stroke="none" transform="matrix(1 0 0 -1 11.239 19.5)" d="M8.76102 5.8668C8.7549 5.96844 8.73762 6.069 8.70942 6.1668C8.69826 6.1956 8.68362 6.22296 8.66622 6.2484L7.02222 10.1304C6.85242 10.5272 6.46506 10.7872 6.03342 10.794L1.12422 10.794C0.512576 10.7864 0.0163759 10.2966 0.00101587 9.6852L0.00101587 4.2312C-0.0127841 3.93636 0.114656 3.65244 0.344216 3.4668L3.77982 0.0396C3.88662 0.0288 3.99702 0.0156 4.10142 0L4.56942 0.4128C4.7019 0.5868 4.7823 0.79488 4.80102 1.0128L4.80102 1.176L4.23342 3.714L7.67022 3.714C8.2167 3.70956 8.68038 4.11396 8.75022 4.656C8.76102 4.6992 8.76102 4.7664 8.76102 4.7664L8.76102 5.8668Z"/>
	</g>

</svg>