<?xml version="1.0" encoding="utf-8" ?>
<svg xmlns="http://www.w3.org/2000/svg" xmlns:xlink="http://www.w3.org/1999/xlink" width="17" height="17">
	<defs>
		<clipPath id="clip_0">
			<path d="M26 -21L-198 -21Q-198.205 -21 -198.408 -20.9907Q-198.612 -20.9813 -198.814 -20.9627Q-199.015 -20.9441 -199.215 -20.9162Q-199.415 -20.8883 -199.612 -20.8512Q-199.808 -20.814 -200.002 -20.7678Q-200.196 -20.7215 -200.387 -20.6663Q-200.577 -20.611 -200.764 -20.5467Q-200.951 -20.4825 -201.133 -20.4095Q-201.316 -20.3365 -201.494 -20.2548Q-201.672 -20.1731 -201.845 -20.083Q-202.018 -19.9928 -202.186 -19.8944Q-202.354 -19.7959 -202.516 -19.6894Q-202.678 -19.5828 -202.834 -19.4684Q-202.991 -19.354 -203.141 -19.2319Q-203.291 -19.1098 -203.434 -18.9804Q-203.578 -18.8509 -203.714 -18.7143Q-203.851 -18.5777 -203.98 -18.4342Q-204.11 -18.2908 -204.232 -18.1407Q-204.354 -17.9907 -204.468 -17.8344Q-204.583 -17.6781 -204.689 -17.5159Q-204.796 -17.3537 -204.894 -17.1859Q-204.993 -17.0181 -205.083 -16.845Q-205.173 -16.6719 -205.255 -16.4939Q-205.337 -16.3159 -205.41 -16.1333Q-205.483 -15.9508 -205.547 -15.7641Q-205.611 -15.5773 -205.666 -15.3868Q-205.722 -15.1963 -205.768 -15.0024Q-205.814 -14.8084 -205.851 -14.6115Q-205.888 -14.4146 -205.916 -14.215Q-205.944 -14.0155 -205.963 -13.8137Q-205.981 -13.612 -205.991 -13.4084Q-206 -13.2049 -206 -13L-206 231Q-206 231.205 -205.991 231.408Q-205.981 231.612 -205.963 231.814Q-205.944 232.016 -205.916 232.215Q-205.888 232.415 -205.851 232.612Q-205.814 232.808 -205.768 233.002Q-205.722 233.196 -205.666 233.387Q-205.611 233.577 -205.547 233.764Q-205.483 233.951 -205.41 234.133Q-205.337 234.316 -205.255 234.494Q-205.173 234.672 -205.083 234.845Q-204.993 235.018 -204.894 235.186Q-204.796 235.354 -204.689 235.516Q-204.583 235.678 -204.468 235.834Q-204.354 235.991 -204.232 236.141Q-204.11 236.291 -203.98 236.434Q-203.851 236.578 -203.714 236.714Q-203.578 236.851 -203.434 236.98Q-203.291 237.11 -203.141 237.232Q-202.991 237.354 -202.834 237.468Q-202.678 237.583 -202.516 237.689Q-202.354 237.796 -202.186 237.894Q-202.018 237.993 -201.845 238.083Q-201.672 238.173 -201.494 238.255Q-201.316 238.337 -201.133 238.41Q-200.951 238.483 -200.764 238.547Q-200.577 238.611 -200.387 238.666Q-200.196 238.722 -200.002 238.768Q-199.808 238.814 -199.612 238.851Q-199.415 238.888 -199.215 238.916Q-199.016 238.944 -198.814 238.963Q-198.612 238.981 -198.408 238.991Q-198.205 239 -198 239L26 239Q26.2049 239 26.4085 238.991Q26.612 238.981 26.8137 238.963Q27.0155 238.944 27.215 238.916Q27.4146 238.888 27.6115 238.851Q27.8084 238.814 28.0024 238.768Q28.1963 238.722 28.3868 238.666Q28.5773 238.611 28.7641 238.547Q28.9508 238.483 29.1333 238.41Q29.3159 238.337 29.4939 238.255Q29.6719 238.173 29.845 238.083Q30.0181 237.993 30.1859 237.894Q30.3537 237.796 30.5159 237.689Q30.6781 237.583 30.8344 237.468Q30.9907 237.354 31.1407 237.232Q31.2908 237.11 31.4342 236.98Q31.5777 236.851 31.7143 236.714Q31.8509 236.578 31.9804 236.434Q32.1098 236.291 32.2319 236.141Q32.354 235.991 32.4684 235.834Q32.5829 235.678 32.6894 235.516Q32.7959 235.354 32.8944 235.186Q32.9929 235.018 33.083 234.845Q33.1731 234.672 33.2548 234.494Q33.3365 234.316 33.4095 234.133Q33.4825 233.951 33.5467 233.764Q33.611 233.577 33.6663 233.387Q33.7216 233.196 33.7678 233.002Q33.8141 232.808 33.8512 232.612Q33.8883 232.415 33.9162 232.215Q33.9441 232.016 33.9627 231.814Q33.9813 231.612 33.9907 231.408Q34 231.205 34 231L34 -13Q34 -13.2049 33.9907 -13.4084Q33.9813 -13.612 33.9627 -13.8137Q33.9441 -14.0155 33.9162 -14.215Q33.8883 -14.4146 33.8512 -14.6115Q33.8141 -14.8084 33.7678 -15.0024Q33.7216 -15.1963 33.6663 -15.3868Q33.611 -15.5773 33.5467 -15.7641Q33.4825 -15.9508 33.4095 -16.1333Q33.3365 -16.3159 33.2548 -16.4939Q33.1731 -16.6719 33.083 -16.845Q32.9929 -17.0181 32.8944 -17.1859Q32.7959 -17.3537 32.6894 -17.5159Q32.5829 -17.6781 32.4684 -17.8344Q32.354 -17.9907 32.2319 -18.1407Q32.1098 -18.2908 31.9804 -18.4342Q31.8509 -18.5777 31.7143 -18.7143Q31.5777 -18.8509 31.4342 -18.9804Q31.2908 -19.1098 31.1407 -19.2319Q30.9907 -19.354 30.8344 -19.4684Q30.6781 -19.5828 30.5159 -19.6894Q30.3537 -19.7959 30.1859 -19.8944Q30.0181 -19.9928 29.845 -20.083Q29.6719 -20.1731 29.4939 -20.2548Q29.3159 -20.3365 29.1333 -20.4095Q28.9508 -20.4825 28.7641 -20.5467Q28.5773 -20.611 28.3868 -20.6663Q28.1963 -20.7215 28.0024 -20.7678Q27.8084 -20.814 27.6115 -20.8512Q27.4146 -20.8883 27.215 -20.9162Q27.0155 -20.9441 26.8137 -20.9627Q26.612 -20.9813 26.4084 -20.9907Q26.2049 -21 26 -21Z" clip-rule="evenodd"/>
		</clipPath>
	</defs>
	<g clip-path="url(#clip_0)">
		<path fill="rgb(131,156,171)" stroke="none" transform="translate(0.000213623 -0.00012207)" d="M12.7859 1.43435L13.4259 0.961142C13.6519 0.794252 13.7069 0.464695 13.5489 0.224922C13.3899 -0.0137951 13.0779 -0.07189 12.8519 0.096057L11.2138 1.30866C10.9868 1.47555 10.9318 1.8051 11.0908 2.04382L12.2379 3.77505C12.3349 3.92081 12.4909 4.00003 12.6479 4.00003C12.7469 4.00003 12.8479 3.96834 12.9339 3.90391C13.1609 3.73702 13.2159 3.40746 13.0569 3.16875L12.5959 2.47267C13.9879 2.96172 15 4.33381 15 5.96575C15 6.25728 15.224 6.49389 15.5 6.49389C15.777 6.49389 16 6.25728 16 5.96575C16 3.81941 14.6389 2.02269 12.7859 1.43435M4.99019 14.2075C4.98719 14.1727 4.98019 14.1389 4.97019 14.1029C4.95919 14.0681 4.94719 14.0374 4.93018 14.0068C4.92218 13.991 4.92018 13.972 4.90918 13.9572L3.76214 12.227C3.60414 11.9883 3.29212 11.9302 3.06611 12.0981C2.84011 12.265 2.7851 12.5946 2.94311 12.8333L3.40413 13.5273C2.01208 13.0393 1.00004 11.6672 1.00004 10.0352C1.00004 9.74266 0.776029 9.50711 0.500019 9.50711C0.223008 9.50711 8.88178e-16 9.74266 8.88178e-16 10.0352C8.88178e-16 12.1816 1.36205 13.9783 3.21512 14.5666L2.5751 15.0399C2.34809 15.2067 2.29409 15.5363 2.45209 15.775C2.5501 15.9218 2.7041 16 2.86211 16C2.96111 16 3.06111 15.9694 3.14812 15.9039L4.78618 14.6923C4.79818 14.6839 4.80318 14.6702 4.81418 14.6617C4.84218 14.6374 4.86518 14.611 4.88718 14.5814C4.90618 14.555 4.92418 14.5307 4.93819 14.5012C4.95219 14.4716 4.96219 14.442 4.97119 14.4082C4.98119 14.3733 4.98919 14.3406 4.99119 14.3047C4.99219 14.2888 5.00019 14.2751 5.00019 14.2603C5.00019 14.2413 4.99119 14.2265 4.99019 14.2075"/>
	</g>
	<defs>
		<clipPath id="clip_1">
			<path d="M26 -21L-198 -21Q-198.205 -21 -198.408 -20.9907Q-198.612 -20.9813 -198.814 -20.9627Q-199.015 -20.9441 -199.215 -20.9162Q-199.415 -20.8883 -199.612 -20.8512Q-199.808 -20.814 -200.002 -20.7678Q-200.196 -20.7215 -200.387 -20.6663Q-200.577 -20.611 -200.764 -20.5467Q-200.951 -20.4825 -201.133 -20.4095Q-201.316 -20.3365 -201.494 -20.2548Q-201.672 -20.1731 -201.845 -20.083Q-202.018 -19.9928 -202.186 -19.8944Q-202.354 -19.7959 -202.516 -19.6894Q-202.678 -19.5828 -202.834 -19.4684Q-202.991 -19.354 -203.141 -19.2319Q-203.291 -19.1098 -203.434 -18.9804Q-203.578 -18.8509 -203.714 -18.7143Q-203.851 -18.5777 -203.98 -18.4342Q-204.11 -18.2908 -204.232 -18.1407Q-204.354 -17.9907 -204.468 -17.8344Q-204.583 -17.6781 -204.689 -17.5159Q-204.796 -17.3537 -204.894 -17.1859Q-204.993 -17.0181 -205.083 -16.845Q-205.173 -16.6719 -205.255 -16.4939Q-205.337 -16.3159 -205.41 -16.1333Q-205.483 -15.9508 -205.547 -15.7641Q-205.611 -15.5773 -205.666 -15.3868Q-205.722 -15.1963 -205.768 -15.0024Q-205.814 -14.8084 -205.851 -14.6115Q-205.888 -14.4146 -205.916 -14.215Q-205.944 -14.0155 -205.963 -13.8137Q-205.981 -13.612 -205.991 -13.4084Q-206 -13.2049 -206 -13L-206 231Q-206 231.205 -205.991 231.408Q-205.981 231.612 -205.963 231.814Q-205.944 232.016 -205.916 232.215Q-205.888 232.415 -205.851 232.612Q-205.814 232.808 -205.768 233.002Q-205.722 233.196 -205.666 233.387Q-205.611 233.577 -205.547 233.764Q-205.483 233.951 -205.41 234.133Q-205.337 234.316 -205.255 234.494Q-205.173 234.672 -205.083 234.845Q-204.993 235.018 -204.894 235.186Q-204.796 235.354 -204.689 235.516Q-204.583 235.678 -204.468 235.834Q-204.354 235.991 -204.232 236.141Q-204.11 236.291 -203.98 236.434Q-203.851 236.578 -203.714 236.714Q-203.578 236.851 -203.434 236.98Q-203.291 237.11 -203.141 237.232Q-202.991 237.354 -202.834 237.468Q-202.678 237.583 -202.516 237.689Q-202.354 237.796 -202.186 237.894Q-202.018 237.993 -201.845 238.083Q-201.672 238.173 -201.494 238.255Q-201.316 238.337 -201.133 238.41Q-200.951 238.483 -200.764 238.547Q-200.577 238.611 -200.387 238.666Q-200.196 238.722 -200.002 238.768Q-199.808 238.814 -199.612 238.851Q-199.415 238.888 -199.215 238.916Q-199.016 238.944 -198.814 238.963Q-198.612 238.981 -198.408 238.991Q-198.205 239 -198 239L26 239Q26.2049 239 26.4085 238.991Q26.612 238.981 26.8137 238.963Q27.0155 238.944 27.215 238.916Q27.4146 238.888 27.6115 238.851Q27.8084 238.814 28.0024 238.768Q28.1963 238.722 28.3868 238.666Q28.5773 238.611 28.7641 238.547Q28.9508 238.483 29.1333 238.41Q29.3159 238.337 29.4939 238.255Q29.6719 238.173 29.845 238.083Q30.0181 237.993 30.1859 237.894Q30.3537 237.796 30.5159 237.689Q30.6781 237.583 30.8344 237.468Q30.9907 237.354 31.1407 237.232Q31.2908 237.11 31.4342 236.98Q31.5777 236.851 31.7143 236.714Q31.8509 236.578 31.9804 236.434Q32.1098 236.291 32.2319 236.141Q32.354 235.991 32.4684 235.834Q32.5829 235.678 32.6894 235.516Q32.7959 235.354 32.8944 235.186Q32.9929 235.018 33.083 234.845Q33.1731 234.672 33.2548 234.494Q33.3365 234.316 33.4095 234.133Q33.4825 233.951 33.5467 233.764Q33.611 233.577 33.6663 233.387Q33.7216 233.196 33.7678 233.002Q33.8141 232.808 33.8512 232.612Q33.8883 232.415 33.9162 232.215Q33.9441 232.016 33.9627 231.814Q33.9813 231.612 33.9907 231.408Q34 231.205 34 231L34 -13Q34 -13.2049 33.9907 -13.4084Q33.9813 -13.612 33.9627 -13.8137Q33.9441 -14.0155 33.9162 -14.215Q33.8883 -14.4146 33.8512 -14.6115Q33.8141 -14.8084 33.7678 -15.0024Q33.7216 -15.1963 33.6663 -15.3868Q33.611 -15.5773 33.5467 -15.7641Q33.4825 -15.9508 33.4095 -16.1333Q33.3365 -16.3159 33.2548 -16.4939Q33.1731 -16.6719 33.083 -16.845Q32.9929 -17.0181 32.8944 -17.1859Q32.7959 -17.3537 32.6894 -17.5159Q32.5829 -17.6781 32.4684 -17.8344Q32.354 -17.9907 32.2319 -18.1407Q32.1098 -18.2908 31.9804 -18.4342Q31.8509 -18.5777 31.7143 -18.7143Q31.5777 -18.8509 31.4342 -18.9804Q31.2908 -19.1098 31.1407 -19.2319Q30.9907 -19.354 30.8344 -19.4684Q30.6781 -19.5828 30.5159 -19.6894Q30.3537 -19.7959 30.1859 -19.8944Q30.0181 -19.9928 29.845 -20.083Q29.6719 -20.1731 29.4939 -20.2548Q29.3159 -20.3365 29.1333 -20.4095Q28.9508 -20.4825 28.7641 -20.5467Q28.5773 -20.611 28.3868 -20.6663Q28.1963 -20.7215 28.0024 -20.7678Q27.8084 -20.814 27.6115 -20.8512Q27.4146 -20.8883 27.215 -20.9162Q27.0155 -20.9441 26.8137 -20.9627Q26.612 -20.9813 26.4084 -20.9907Q26.2049 -21 26 -21Z" clip-rule="evenodd"/>
		</clipPath>
	</defs>
	<g clip-path="url(#clip_1)">
		<path fill="rgb(255,255,255)" stroke="none" transform="translate(4.13297 3.87195)" d="M8.0003 8.61071L0 7.4034L0 0L8.0003 1.20626L8.0003 8.61071ZM7.00026 2.12205L1.00004 1.21682L1.00004 6.48761L7.00026 7.39389L7.00026 2.12205Z" fill-rule="evenodd"/>
	</g>

</svg>