
<svg width="19px" height="20px" viewBox="0 0 19 20" version="1.1" xmlns="http://www.w3.org/2000/svg" xmlns:xlink="http://www.w3.org/1999/xlink">
<g id="组件" stroke="none" stroke-width="1" fill="none" fill-rule="evenodd">
    <g id="secNavi_row" transform="translate(-20.000000, -14.000000)" fill="#6E8591">
        <g id="icon_sec_02" transform="translate(20.000000, 14.000000)">
            <path d="M3,8.1045 L6,9.7915 L6,13.1455 L3,11.4585 L3,8.1045 Z M6.5,5.5735 L9.48,7.2505 L6.5,8.9265 L3.52,7.2505 L6.5,5.5735 Z M7.255,13.0015 L7,13.1455 L7,9.7915 L10,8.1045 L10,8.2505 C10,8.5265 10.224,8.7505 10.5,8.7505 C10.776,8.7505 11,8.5265 11,8.2505 L11,7.2505 C11,7.2405 10.995,7.2325 10.994,7.2225 C10.993,7.2005 10.989,7.1785 10.984,7.1565 C10.979,7.1315 10.976,7.1095 10.967,7.0865 C10.96,7.0675 10.953,7.0485 10.943,7.0305 C10.939,7.0215 10.94,7.0125 10.936,7.0045 C10.93,6.9945 10.919,6.9885 10.913,6.9785 C10.9,6.9585 10.888,6.9415 10.872,6.9235 C10.857,6.9075 10.843,6.8925 10.825,6.8765 C10.809,6.8625 10.791,6.8495 10.771,6.8375 C10.762,6.8315 10.756,6.8205 10.745,6.8145 L6.745,4.5645 C6.727,4.5535 6.706,4.5535 6.688,4.5445 C6.657,4.5335 6.629,4.5225 6.598,4.5155 C6.563,4.5085 6.528,4.5065 6.493,4.5065 C6.465,4.5075 6.438,4.5085 6.41,4.5135 C6.373,4.5205 6.34,4.5335 6.305,4.5475 C6.288,4.5545 6.271,4.5555 6.255,4.5645 L2.255,6.8145 C2.245,6.8205 2.239,6.8305 2.229,6.8355 C2.21,6.8495 2.191,6.8625 2.174,6.8775 C2.157,6.8925 2.143,6.9075 2.128,6.9235 C2.112,6.9415 2.1,6.9585 2.088,6.9785 C2.081,6.9885 2.07,6.9945 2.064,7.0045 C2.06,7.0125 2.061,7.0215 2.057,7.0305 C2.047,7.0485 2.04,7.0675 2.033,7.0865 C2.024,7.1095 2.021,7.1315 2.016,7.1565 C2.011,7.1785 2.007,7.2005 2.006,7.2225 C2.005,7.2325 2,7.2405 2,7.2505 L2,11.7505 C2,11.7725 2.01,11.7925 2.013,11.8145 C2.018,11.8485 2.021,11.8805 2.033,11.9135 C2.044,11.9445 2.06,11.9715 2.076,12.0005 C2.092,12.0265 2.107,12.0525 2.128,12.0765 C2.151,12.1035 2.179,12.1245 2.208,12.1455 C2.225,12.1585 2.236,12.1745 2.255,12.1855 L6.25,14.4325 C6.251,14.4335 6.251,14.4335 6.252,14.4335 L6.255,14.4355 C6.262,14.4395 6.27,14.4375 6.276,14.4415 C6.345,14.4755 6.418,14.5005 6.5,14.5005 C6.582,14.5005 6.655,14.4755 6.724,14.4415 C6.73,14.4375 6.738,14.4395 6.745,14.4355 L6.748,14.4335 L6.749,14.4335 L7.745,13.8735 C7.985,13.7385 8.071,13.4325 7.936,13.1925 C7.8,12.9525 7.495,12.8655 7.255,13.0015 L7.255,13.0015 Z" id="Fill-1"></path>
            <path d="M14,13.292 L17,11.605 L17,14.958 L14,16.646 L14,13.292 Z M10,11.605 L13,13.292 L13,16.646 L10,14.958 L10,11.605 Z M13.5,9.073 L16.48,10.75 L13.5,12.427 L10.52,10.75 L13.5,9.073 Z M17.984,10.656 C17.979,10.632 17.976,10.609 17.967,10.587 C17.96,10.567 17.953,10.549 17.943,10.53 C17.939,10.521 17.94,10.513 17.936,10.505 C17.93,10.494 17.919,10.488 17.913,10.479 C17.9,10.459 17.888,10.441 17.872,10.424 C17.857,10.407 17.843,10.393 17.826,10.378 C17.809,10.362 17.79,10.35 17.771,10.337 C17.761,10.33 17.756,10.32 17.745,10.314 L13.745,8.064 C13.728,8.055 13.708,8.054 13.69,8.047 C13.659,8.033 13.628,8.021 13.595,8.015 C13.563,8.009 13.531,8.007 13.499,8.007 C13.468,8.007 13.438,8.009 13.407,8.015 C13.372,8.021 13.34,8.033 13.307,8.048 C13.29,8.055 13.271,8.055 13.255,8.064 L9.255,10.314 C9.245,10.32 9.239,10.33 9.229,10.336 C9.21,10.35 9.191,10.362 9.174,10.378 C9.157,10.393 9.143,10.407 9.128,10.424 C9.112,10.441 9.1,10.459 9.087,10.479 C9.081,10.488 9.07,10.494 9.064,10.505 C9.06,10.513 9.061,10.521 9.057,10.53 C9.047,10.549 9.04,10.567 9.033,10.587 C9.024,10.609 9.021,10.632 9.016,10.656 C9.011,10.679 9.007,10.7 9.006,10.723 C9.005,10.732 9,10.74 9,10.75 L9,15.25 C9,15.272 9.01,15.292 9.013,15.314 C9.018,15.349 9.021,15.381 9.033,15.413 C9.044,15.444 9.06,15.472 9.076,15.5 C9.092,15.526 9.107,15.553 9.128,15.576 C9.151,15.604 9.179,15.624 9.208,15.646 C9.225,15.658 9.236,15.675 9.255,15.686 L13.25,17.933 C13.251,17.934 13.251,17.934 13.252,17.934 L13.255,17.936 C13.262,17.939 13.27,17.938 13.276,17.941 C13.345,17.976 13.418,18 13.5,18 C13.582,18 13.655,17.976 13.724,17.941 C13.73,17.938 13.738,17.939 13.745,17.936 L13.748,17.934 L13.749,17.934 L17.745,15.686 C17.764,15.675 17.775,15.658 17.792,15.646 C17.821,15.624 17.849,15.604 17.872,15.576 C17.893,15.553 17.908,15.526 17.924,15.5 C17.94,15.472 17.956,15.444 17.967,15.413 C17.979,15.381 17.982,15.349 17.987,15.314 C17.99,15.292 18,15.272 18,15.25 L18,10.75 C18,10.74 17.995,10.732 17.994,10.723 C17.993,10.7 17.989,10.679 17.984,10.656 L17.984,10.656 Z" id="Fill-3"></path>
            <path d="M19,18.5 C19,18.775 18.775,19 18.5,19 L1.5,19 C1.225,19 1,18.775 1,18.5 L1,1.5 C1,1.225 1.225,1 1.5,1 L18.5,1 C18.775,1 19,1.225 19,1.5 L19,18.5 Z M18.5,0 L1.5,0 C0.673,0 0,0.673 0,1.5 L0,18.5 C0,19.327 0.673,20 1.5,20 L18.5,20 C19.327,20 20,19.327 20,18.5 L20,1.5 C20,0.673 19.327,0 18.5,0 L18.5,0 Z" id="Fill-5"></path>
            <path d="M7,3 C7.275,3 7.5,2.776 7.5,2.5 C7.5,2.224 7.275,2 7,2 C6.724,2 6.5,2.224 6.5,2.5 C6.5,2.776 6.724,3 7,3" id="Fill-7"></path>
            <path d="M2.5,3 L5,3 C5.276,3 5.5,2.776 5.5,2.5 C5.5,2.224 5.276,2 5,2 L2.5,2 C2.224,2 2,2.224 2,2.5 C2,2.776 2.224,3 2.5,3" id="Fill-9"></path>
            <path d="M2.5,5 L3,5 C3.276,5 3.5,4.776 3.5,4.5 C3.5,4.224 3.276,4 3,4 L2.5,4 C2.224,4 2,4.224 2,4.5 C2,4.776 2.224,5 2.5,5" id="Fill-11"></path>
        </g>
    </g>
</g>
</svg>