<?xml version="1.0" encoding="UTF-8"?>
<svg width="20px" height="20px" viewBox="0 0 20 20" version="1.1" xmlns="http://www.w3.org/2000/svg" xmlns:xlink="http://www.w3.org/1999/xlink">
    <!-- Generator: Sketch 54.1 (76490) - https://sketchapp.com -->
    <title>icon_04/green</title>
    <desc>Created with Sketch.</desc>
    <g id="icon_04/green" stroke="none" stroke-width="1" fill="none" fill-rule="evenodd">
        <g id="编组" transform="translate(0.000000, 1.500000)" fill="#00B9B9">
            <path d="M11.5,6.0686 C11.776,6.0686 12,6.2926 12,6.5686 L12,9.5686 C12,9.8446 11.776,10.0686 11.5,10.0686 L8.5,10.0686 C8.224,10.0686 8,9.8446 8,9.5686 L8,6.5686 C8,6.2926 8.224,6.0686 8.5,6.0686 L11.5,6.0686 Z" id="Fill-1"></path>
            <path d="M8.5,11.0686 C7.673,11.0686 7,10.3956 7,9.5686 L7,6.5686 C7,5.7416 7.673,5.0686 8.5,5.0686 L9.167,5.0686 L9.167,2.6916 C9.167,1.3276 8.155,0.1196 6.796,0.0086 C5.498,-0.0974 4.384,0.7556 4.076,1.9346 C2.846,2.1346 1.905,3.1986 1.905,4.4856 C1.905,5.0026 2.058,5.4826 2.318,5.8866 C1.007,6.0866 0,7.2156 0,8.5836 C0,9.4836 0.437,10.2806 1.109,10.7776 C0.79,11.3236 0.661,11.9926 0.828,12.6996 C1.006,13.4546 1.546,14.0906 2.249,14.4186 C2.89,14.7166 3.497,14.7226 4.038,14.5716 C4.278,15.8126 5.403,16.7386 6.73,16.6626 C8.118,16.5836 9.167,15.3566 9.167,13.9656 L9.167,11.0686 L8.5,11.0686 Z" id="Fill-3"></path>
            <path d="M18.9912,6.467 C18.6222,6.167 18.1732,5.962 17.6812,5.887 L17.6812,5.886 C17.8982,5.55 18.0352,5.158 18.0762,4.739 C18.0852,4.655 18.0952,4.572 18.0952,4.486 C18.0952,4.325 18.0802,4.168 18.0522,4.015 C17.9682,3.557 17.7622,3.141 17.4702,2.802 C17.3732,2.69 17.2662,2.585 17.1512,2.49 C16.8052,2.206 16.3852,2.009 15.9242,1.934 C15.7122,1.124 15.1152,0.477 14.3442,0.18 C13.9932,0.045 13.6092,-0.024 13.2042,0.009 C12.6942,0.05 12.2332,0.246 11.8562,0.547 C11.6052,0.747 11.3912,0.994 11.2242,1.272 C10.9752,1.69 10.8332,2.18 10.8332,2.692 L10.8332,5.069 L11.5002,5.069 C12.1202,5.069 12.6542,5.447 12.8822,5.985 L13.5942,5.985 L13.5942,3.863 C13.3512,3.778 13.1772,3.548 13.1772,3.277 C13.1772,2.931 13.4572,2.652 13.8022,2.652 C14.1472,2.652 14.4272,2.931 14.4272,3.277 C14.4272,3.548 14.2532,3.778 14.0112,3.863 L14.0112,5.985 L15.1822,5.985 L15.7482,5.419 C15.7092,5.338 15.6852,5.248 15.6852,5.152 C15.6852,4.806 15.9662,4.527 16.3102,4.527 C16.6562,4.527 16.9352,4.806 16.9352,5.152 C16.9352,5.497 16.6562,5.777 16.3102,5.777 C16.2152,5.777 16.1242,5.753 16.0432,5.714 L15.4172,6.34 C15.3972,6.36 15.3742,6.375 15.3482,6.386 C15.3232,6.396 15.2962,6.402 15.2692,6.402 L12.9832,6.402 C12.9892,6.457 13.0002,6.511 13.0002,6.569 L13.0002,8.069 L16.9132,8.069 C16.9992,7.826 17.2282,7.652 17.5002,7.652 C17.8452,7.652 18.1252,7.931 18.1252,8.277 C18.1252,8.622 17.8452,8.902 17.5002,8.902 C17.2282,8.902 17.0002,8.727 16.9132,8.485 L15.8912,8.485 C15.8912,8.489 15.8942,8.493 15.8942,8.498 L15.8942,10.495 L17.5032,12.104 C17.5852,12.065 17.6752,12.042 17.7712,12.042 C18.1162,12.042 18.3962,12.322 18.3962,12.667 C18.3962,13.012 18.1162,13.292 17.7712,13.292 C17.4262,13.292 17.1462,13.012 17.1462,12.667 C17.1462,12.571 17.1702,12.481 17.2092,12.399 L15.5392,10.729 C15.5192,10.71 15.5042,10.687 15.4932,10.661 C15.4822,10.635 15.4772,10.609 15.4772,10.581 L15.4772,8.498 C15.4772,8.493 15.4792,8.489 15.4792,8.485 L13.0002,8.485 L13.0002,9.569 C13.0002,9.745 12.9642,9.912 12.9072,10.07 L14.2752,11.437 C14.3242,11.425 14.3752,11.417 14.4272,11.417 C14.7722,11.417 15.0522,11.697 15.0522,12.042 C15.0522,12.387 14.7722,12.667 14.4272,12.667 C14.0822,12.667 13.8022,12.387 13.8022,12.042 C13.8022,11.904 13.8472,11.778 13.9242,11.675 L12.7042,10.455 C12.5922,10.607 12.4522,10.737 12.2922,10.837 L12.2922,13.194 C12.5342,13.279 12.7082,13.508 12.7082,13.78 C12.7082,14.125 12.4292,14.405 12.0832,14.405 C11.7382,14.405 11.4582,14.125 11.4582,13.78 C11.4582,13.508 11.6332,13.279 11.8752,13.194 L11.8752,11.015 C11.7552,11.047 11.6302,11.069 11.5002,11.069 L10.8332,11.069 L10.8332,13.966 C10.8332,14.488 10.9802,14.987 11.2382,15.409 C11.5822,15.974 12.1202,16.405 12.7662,16.58 C12.9292,16.624 13.0962,16.653 13.2692,16.662 C13.4352,16.672 13.5982,16.665 13.7572,16.645 C14.3892,16.564 14.9512,16.252 15.3542,15.798 C15.6572,15.458 15.8722,15.036 15.9622,14.571 C16.0292,14.59 16.1002,14.599 16.1712,14.613 C16.5892,14.695 17.0402,14.674 17.5142,14.504 C17.5942,14.475 17.6712,14.455 17.7512,14.418 C18.0142,14.295 18.2442,14.118 18.4512,13.918 C18.7052,13.674 18.9052,13.386 19.0402,13.06 C19.0892,12.942 19.1422,12.825 19.1722,12.7 C19.2142,12.523 19.2372,12.348 19.2432,12.178 C19.2502,12.007 19.2392,11.84 19.2142,11.678 C19.1792,11.462 19.1092,11.26 19.0252,11.065 C18.9832,10.968 18.9442,10.869 18.8902,10.778 C19.0032,10.695 19.0972,10.592 19.1952,10.494 C19.3912,10.297 19.5682,10.081 19.6972,9.832 C19.8902,9.458 20.0002,9.034 20.0002,8.584 C20.0002,7.729 19.6062,6.967 18.9912,6.467" id="Fill-5"></path>
        </g>
    </g>
</svg>