<?xml version="1.0" encoding="UTF-8"?>
<svg width="20px" height="20px" viewBox="0 0 20 20" version="1.1" xmlns="http://www.w3.org/2000/svg" xmlns:xlink="http://www.w3.org/1999/xlink">
    <!-- Generator: Sketch 54.1 (76490) - https://sketchapp.com -->
    <title>icon_01/green</title>
    <desc>Created with Sketch.</desc>
    <g id="icon_01/green" stroke="none" stroke-width="1" fill="none" fill-rule="evenodd">
        <path d="M2.5,1 C1.673,1 1,1.673 1,2.5 L1,13.5 C1,14.327 1.673,15 2.5,15 L17.5,15 C18.327,15 19,14.327 19,13.5 L19,2.5 C19,1.673 18.327,1 17.5,1 L2.5,1 Z M17.5,16 L2.5,16 C1.122,16 0,14.879 0,13.5 L0,2.5 C0,1.121 1.122,0 2.5,0 L17.5,0 C18.878,0 20,1.121 20,2.5 L20,13.5 C20,14.879 18.878,16 17.5,16 L17.5,16 Z" id="Fill-1" fill="#00B9B9"></path>
        <path d="M14.5,20 L5.5,20 C5.224,20 5,19.776 5,19.5 C5,19.224 5.224,19 5.5,19 L14.5,19 C14.776,19 15,19.224 15,19.5 C15,19.776 14.776,20 14.5,20" id="Fill-3" fill="#00B9B9"></path>
        <path d="M10,20 C9.724,20 9.5,19.776 9.5,19.5 L9.5,15.5 C9.5,15.224 9.724,15 10,15 C10.276,15 10.5,15.224 10.5,15.5 L10.5,19.5 C10.5,19.776 10.276,20 10,20" id="Fill-5" fill="#00B9B9"></path>
        <path d="M13.437,6.5625 L16.146,3.8535 C16.461,3.5385 17,3.7615 17,4.2075 L17,12.4995 C17,12.7755 16.776,12.9995 16.5,12.9995 L3.5,12.9995 C3.224,12.9995 3,12.7755 3,12.4995 L3,11.3085 C3,11.1195 3.107,10.9465 3.276,10.8615 L6.855,9.0725 C6.951,9.0245 7.039,8.9605 7.115,8.8845 L9.563,6.4365 C9.831,6.1685 10.227,6.0755 10.586,6.1955 L12.414,6.8045 C12.773,6.9235 13.169,6.8305 13.437,6.5625" id="Fill-7" fill="#00B9B9"></path>
        <path d="M6.375,3.7061 L3.375,3.7061 C3.099,3.7061 2.875,3.4821 2.875,3.2061 C2.875,2.9301 3.099,2.7061 3.375,2.7061 L6.375,2.7061 C6.651,2.7061 6.875,2.9301 6.875,3.2061 C6.875,3.4821 6.651,3.7061 6.375,3.7061" id="Fill-9" fill="#00B9B9"></path>
        <path d="M4.375,5.7061 L3.375,5.7061 C3.099,5.7061 2.875,5.4821 2.875,5.2061 C2.875,4.9301 3.099,4.7061 3.375,4.7061 L4.375,4.7061 C4.651,4.7061 4.875,4.9301 4.875,5.2061 C4.875,5.4821 4.651,5.7061 4.375,5.7061" id="Fill-11" fill="#00B9B9"></path>
    </g>
</svg>