<svg width="20px" height="20px" viewBox="0 0 20 20" version="1.1" xmlns="http://www.w3.org/2000/svg" xmlns:xlink="http://www.w3.org/1999/xlink">
<g id="组件" stroke="none" stroke-width="1" fill="none" fill-rule="evenodd">
    <g id="icon_style" transform="translate(-22.000000, -22.000000)" fill="#6E8591">
        <g id="icon_01/gray" transform="translate(22.000000, 22.000000)">
            <path d="M19.5,13 L0.5,13 C0.224,13 0,13.224 0,13.5 C0,13.776 0.224,14 0.5,14 L8.793,14 L3.646,19.146 C3.451,19.342 3.451,19.658 3.646,19.854 C3.744,19.951 3.872,20 4,20 C4.128,20 4.256,19.951 4.354,19.854 L9.5,14.707 L9.5,17.5 C9.5,17.776 9.724,18 10,18 C10.276,18 10.5,17.776 10.5,17.5 L10.5,14.707 L15.646,19.854 C15.744,19.951 15.872,20 16,20 C16.128,20 16.256,19.951 16.354,19.854 C16.549,19.658 16.549,19.342 16.354,19.146 L11.207,14 L19.5,14 C19.776,14 20,13.776 20,13.5 C20,13.224 19.776,13 19.5,13" id="Fill-1"></path>
            <path d="M2.7812,1.5 C2.7812,1.225 3.0052,1 3.2812,1 L16.2812,1 C16.5572,1 16.7812,1.225 16.7812,1.5 L16.7812,10.5 C16.7812,10.775 16.5572,11 16.2812,11 L3.2812,11 C3.0052,11 2.7812,10.775 2.7812,10.5 L2.7812,1.5 Z M3.2812,12 L16.2812,12 C17.1082,12 17.7812,11.327 17.7812,10.5 L17.7812,1.5 C17.7812,0.673 17.1082,0 16.2812,0 L3.2812,0 C2.4542,0 1.7812,0.673 1.7812,1.5 L1.7812,10.5 C1.7812,11.327 2.4542,12 3.2812,12 L3.2812,12 Z" id="Fill-3"></path>
            <path d="M5.7764,8.9473 C5.8484,8.9833 5.9244,9.0003 5.9994,9.0003 C6.1834,9.0003 6.3594,8.8983 6.4474,8.7233 L8.0624,5.4943 L9.5844,7.7773 C9.5914,7.7893 9.6054,7.7933 9.6134,7.8033 C9.6264,7.8203 9.6314,7.8393 9.6464,7.8533 C9.6714,7.8783 9.7024,7.8903 9.7304,7.9093 C9.7504,7.9233 9.7674,7.9373 9.7894,7.9483 C9.8564,7.9793 9.9274,8.0003 10.0004,8.0003 L10.0004,8.0003 L10.0014,8.0003 C10.0864,8.0003 10.1684,7.9693 10.2444,7.9263 C10.2554,7.9203 10.2674,7.9233 10.2774,7.9163 C10.2924,7.9063 10.2994,7.8913 10.3124,7.8813 C10.3254,7.8703 10.3414,7.8653 10.3534,7.8533 L14.3534,3.8533 C14.5484,3.6583 14.5484,3.3423 14.3534,3.1463 C14.1584,2.9513 13.8414,2.9513 13.6464,3.1463 L10.0774,6.7153 L8.4164,4.2223 C8.4104,4.2143 8.4014,4.2103 8.3954,4.2023 C8.3764,4.1763 8.3504,4.1553 8.3254,4.1333 C8.2994,4.1093 8.2754,4.0873 8.2464,4.0703 C8.2374,4.0653 8.2324,4.0563 8.2234,4.0523 C8.2044,4.0433 8.1844,4.0443 8.1644,4.0373 C8.1304,4.0243 8.0984,4.0133 8.0634,4.0093 C8.0314,4.0053 8.0024,4.0073 7.9704,4.0093 C7.9384,4.0103 7.9074,4.0123 7.8754,4.0213 C7.8424,4.0303 7.8134,4.0443 7.7824,4.0593 C7.7624,4.0693 7.7414,4.0713 7.7224,4.0843 C7.7134,4.0903 7.7094,4.0983 7.7014,4.1053 C7.6754,4.1253 7.6554,4.1493 7.6324,4.1743 C7.6104,4.2003 7.5874,4.2243 7.5704,4.2543 C7.5654,4.2623 7.5574,4.2673 7.5524,4.2763 L5.5524,8.2763 C5.4294,8.5233 5.5294,8.8233 5.7764,8.9473" id="Fill-5"></path>
        </g>
    </g>
</g>
</svg>