<?xml version="1.0" encoding="UTF-8"?>
<svg width="20px" height="20px" viewBox="0 0 20 20" version="1.1" xmlns="http://www.w3.org/2000/svg" xmlns:xlink="http://www.w3.org/1999/xlink">
    <!-- Generator: Sketch 54.1 (76490) - https://sketchapp.com -->
    <title>icon_05/green</title>
    <desc>Created with Sketch.</desc>
    <g id="icon_05/green" stroke="none" stroke-width="1" fill="none" fill-rule="evenodd">
        <g id="编组" transform="translate(2.000000, 0.000000)" fill="#00B9B9">
            <path d="M13.3018,6.7015 L9.5198,14.2665 C9.4288,14.4475 9.1638,14.4185 9.1148,14.2225 L8.4218,11.4485 C8.4028,11.3715 8.3418,11.3105 8.2638,11.2915 L5.4898,10.5975 C5.2948,10.5495 5.2658,10.2835 5.4458,10.1935 L13.0108,6.4105 C13.1978,6.3175 13.3948,6.5145 13.3018,6.7015 M3.7128,6.6805 C3.7128,6.4035 3.9368,6.1805 4.2128,6.1805 L6.2128,6.1805 C6.4898,6.1805 6.7128,6.4035 6.7128,6.6805 C6.7128,6.9555 6.4898,7.1805 6.2128,7.1805 L4.2128,7.1805 C3.9368,7.1805 3.7128,6.9555 3.7128,6.6805 M4.2128,4.1805 L8.2128,4.1805 C8.4898,4.1805 8.7128,4.4035 8.7128,4.6805 C8.7128,4.9555 8.4898,5.1805 8.2128,5.1805 L4.2128,5.1805 C3.9368,5.1805 3.7128,4.9555 3.7128,4.6805 C3.7128,4.4035 3.9368,4.1805 4.2128,4.1805 M14.9998,0.0005 L1.9998,0.0005 C0.8958,0.0005 -0.0002,0.8955 -0.0002,2.0005 L-0.0002,18.0005 C-0.0002,19.1045 0.8958,20.0005 1.9998,20.0005 L14.4998,20.0005 C14.7768,20.0005 14.9998,19.7755 14.9998,19.5005 C14.9998,19.2235 14.7768,19.0005 14.4998,19.0005 L2.4998,19.0005 C2.2238,19.0005 1.9998,18.7755 1.9998,18.5005 C1.9998,18.2235 2.2238,18.0005 2.4998,18.0005 L14.9998,18.0005 C15.5528,18.0005 15.9998,17.5525 15.9998,17.0005 L15.9998,1.0005 C15.9998,0.4475 15.5528,0.0005 14.9998,0.0005" id="Fill-1"></path>
        </g>
    </g>
</svg>