
<svg width="20px" height="20px" viewBox="0 0 20 20" version="1.1" xmlns="http://www.w3.org/2000/svg" xmlns:xlink="http://www.w3.org/1999/xlink">
    <g id="left_Navi" stroke="none" stroke-width="1" fill="none" fill-rule="evenodd">
        <g id="left-Navi-new复制" transform="translate(-22.000000, -222.000000)">
            <g id="left-Navi-new-Copy">
                <g id="setting-block" transform="translate(0.000000, 72.000000)">
                    <g id="icon_style" transform="translate(0.000000, 128.000000)">
                        <rect id="block" x="0" y="0" width="64" height="64"></rect>
                        <g id="icon_03/gray" transform="translate(22.000000, 22.000000)" fill="#6E8591" fill-rule="evenodd" stroke-width="1">
                            <g id="编组" transform="translate(0.500000, 0.000000)">
                                <path d="M9.5,18 C9.224,18 9,17.776 9,17.5 L9,16.5 C9,16.224 9.224,16 9.5,16 C9.776,16 10,16.224 10,16.5 L10,17.5 C10,17.776 9.776,18 9.5,18" id="Fill-1"></path>
                                <path d="M9.5,4.1963 C9.224,4.1963 9,3.9723 9,3.6963 L9,2.5003 C9,2.2233 9.224,2.0003 9.5,2.0003 C9.776,2.0003 10,2.2233 10,2.5003 L10,3.6963 C10,3.9723 9.776,4.1963 9.5,4.1963" id="Fill-3"></path>
                                <path d="M3.5,7.3213 C3.417,7.3213 3.332,7.3003 3.255,7.2573 L2.255,6.6943 C2.015,6.5593 1.929,6.2543 2.064,6.0133 C2.199,5.7723 2.506,5.6853 2.745,5.8233 L3.745,6.3853 C3.985,6.5203 4.071,6.8263 3.936,7.0663 C3.844,7.2293 3.674,7.3213 3.5,7.3213" id="Fill-5"></path>
                                <path d="M16.5,14.6338 C16.417,14.6338 16.332,14.6128 16.255,14.5698 L15.255,14.0068 C15.015,13.8718 14.929,13.5668 15.064,13.3258 C15.2,13.0848 15.506,12.9998 15.745,13.1358 L16.745,13.6978 C16.985,13.8328 17.071,14.1388 16.936,14.3788 C16.844,14.5418 16.674,14.6338 16.5,14.6338" id="Fill-7"></path>
                                <path d="M15.5,7.3213 C15.325,7.3213 15.156,7.2293 15.064,7.0663 C14.929,6.8263 15.015,6.5203 15.255,6.3853 L16.255,5.8233 C16.494,5.6863 16.8,5.7723 16.936,6.0133 C17.071,6.2543 16.985,6.5593 16.745,6.6943 L15.745,7.2573 C15.668,7.3003 15.583,7.3213 15.5,7.3213" id="Fill-9"></path>
                                <path d="M2.5,14.6338 C2.325,14.6338 2.156,14.5418 2.064,14.3788 C1.929,14.1388 2.015,13.8328 2.255,13.6978 L3.255,13.1358 C3.495,12.9988 3.801,13.0848 3.936,13.3258 C4.071,13.5668 3.985,13.8718 3.745,14.0068 L2.745,14.5698 C2.668,14.6128 2.583,14.6338 2.5,14.6338" id="Fill-11"></path>
                                <path d="M17.5,5.1963 C17.225,5.1963 17,5.4213 17,5.6963 C17,5.9713 17.225,6.1963 17.5,6.1963 C17.775,6.1963 18,5.9713 18,5.6963 C18,5.4213 17.775,5.1963 17.5,5.1963 M17.5,7.1963 C16.673,7.1963 16,6.5233 16,5.6963 C16,4.8693 16.673,4.1963 17.5,4.1963 C18.327,4.1963 19,4.8693 19,5.6963 C19,6.5233 18.327,7.1963 17.5,7.1963" id="Fill-13"></path>
                                <path d="M1.5,5.1963 C1.225,5.1963 1,5.4213 1,5.6963 C1,5.9713 1.225,6.1963 1.5,6.1963 C1.775,6.1963 2,5.9713 2,5.6963 C2,5.4213 1.775,5.1963 1.5,5.1963 M1.5,7.1963 C0.673,7.1963 0,6.5233 0,5.6963 C0,4.8693 0.673,4.1963 1.5,4.1963 C2.327,4.1963 3,4.8693 3,5.6963 C3,6.5233 2.327,7.1963 1.5,7.1963" id="Fill-15"></path>
                                <path d="M1.5,14.1963 C1.225,14.1963 1,14.4213 1,14.6963 C1,14.9713 1.225,15.1963 1.5,15.1963 C1.775,15.1963 2,14.9713 2,14.6963 C2,14.4213 1.775,14.1963 1.5,14.1963 M1.5,16.1963 C0.673,16.1963 0,15.5233 0,14.6963 C0,13.8693 0.673,13.1963 1.5,13.1963 C2.327,13.1963 3,13.8693 3,14.6963 C3,15.5233 2.327,16.1963 1.5,16.1963" id="Fill-17"></path>
                                <path d="M17.5,14.1963 C17.225,14.1963 17,14.4213 17,14.6963 C17,14.9713 17.225,15.1963 17.5,15.1963 C17.775,15.1963 18,14.9713 18,14.6963 C18,14.4213 17.775,14.1963 17.5,14.1963 M17.5,16.1963 C16.673,16.1963 16,15.5233 16,14.6963 C16,13.8693 16.673,13.1963 17.5,13.1963 C18.327,13.1963 19,13.8693 19,14.6963 C19,15.5233 18.327,16.1963 17.5,16.1963" id="Fill-19"></path>
                                <path d="M9.5,18 C9.225,18 9,18.225 9,18.5 C9,18.775 9.225,19 9.5,19 C9.775,19 10,18.775 10,18.5 C10,18.225 9.775,18 9.5,18 M9.5,20 C8.673,20 8,19.327 8,18.5 C8,17.673 8.673,17 9.5,17 C10.327,17 11,17.673 11,18.5 C11,19.327 10.327,20 9.5,20" id="Fill-21"></path>
                                <path d="M9.5,1 C9.225,1 9,1.225 9,1.5 C9,1.775 9.225,2 9.5,2 C9.775,2 10,1.775 10,1.5 C10,1.225 9.775,1 9.5,1 M9.5,3 C8.673,3 8,2.327 8,1.5 C8,0.673 8.673,0 9.5,0 C10.327,0 11,0.673 11,1.5 C11,2.327 10.327,3 9.5,3" id="Fill-23"></path>
                                <path d="M15,4.8848 C14.921,4.8848 14.842,4.8658 14.768,4.8268 L11.768,3.2538 C11.523,3.1258 11.429,2.8238 11.558,2.5788 C11.686,2.3338 11.99,2.2398 12.232,2.3688 L15.232,3.9428 C15.477,4.0708 15.571,4.3718 15.442,4.6168 C15.354,4.7868 15.18,4.8848 15,4.8848" id="Fill-25"></path>
                                <path d="M17.5,12.1963 C17.224,12.1963 17,11.9723 17,11.6963 L17,8.6963 C17,8.4203 17.224,8.1963 17.5,8.1963 C17.776,8.1963 18,8.4203 18,8.6963 L18,11.6963 C18,11.9723 17.776,12.1963 17.5,12.1963" id="Fill-27"></path>
                                <path d="M12,17.8115 C11.813,17.8115 11.634,17.7065 11.549,17.5265 C11.43,17.2775 11.536,16.9785 11.785,16.8605 L14.785,15.4335 C15.032,15.3135 15.333,15.4195 15.451,15.6695 C15.57,15.9185 15.464,16.2175 15.215,16.3355 L12.215,17.7625 C12.146,17.7955 12.072,17.8115 12,17.8115" id="Fill-29"></path>
                                <path d="M7,17.8115 C6.928,17.8115 6.854,17.7955 6.785,17.7625 L3.785,16.3355 C3.536,16.2175 3.43,15.9185 3.549,15.6695 C3.667,15.4195 3.967,15.3145 4.215,15.4335 L7.215,16.8605 C7.464,16.9785 7.57,17.2775 7.451,17.5265 C7.366,17.7065 7.187,17.8115 7,17.8115" id="Fill-31"></path>
                                <path d="M1.5,12.1963 C1.224,12.1963 1,11.9723 1,11.6963 L1,8.6963 C1,8.4203 1.224,8.1963 1.5,8.1963 C1.776,8.1963 2,8.4203 2,8.6963 L2,11.6963 C2,11.9723 1.776,12.1963 1.5,12.1963" id="Fill-33"></path>
                                <path d="M4,4.833 C3.823,4.833 3.651,4.739 3.561,4.572 C3.429,4.33 3.519,4.026 3.761,3.894 L6.761,2.258 C7.003,2.127 7.308,2.215 7.439,2.458 C7.571,2.7 7.481,3.004 7.239,3.137 L4.239,4.772 C4.163,4.813 4.081,4.833 4,4.833" id="Fill-35"></path>
                                <path d="M13.5,7.4111 L9.745,5.2991 C9.728,5.2891 9.708,5.2891 9.69,5.2811 C9.658,5.2671 9.627,5.2561 9.594,5.2501 C9.562,5.2431 9.532,5.2421 9.501,5.2421 C9.469,5.2421 9.438,5.2431 9.405,5.2501 C9.371,5.2571 9.341,5.2671 9.309,5.2811 C9.291,5.2891 9.272,5.2891 9.255,5.2991 L5.5,7.4111 L9.5,9.6611 L13.5,7.4111 Z" id="Fill-37"></path>
                                <path d="M9,10.5264 L5,8.2764 L5,12.4844 C5,12.5074 5.01,12.5274 5.013,12.5484 C5.018,12.5834 5.021,12.6154 5.033,12.6474 C5.044,12.6794 5.06,12.7064 5.076,12.7344 C5.092,12.7614 5.107,12.7874 5.128,12.8104 C5.151,12.8384 5.179,12.8584 5.208,12.8804 C5.225,12.8924 5.236,12.9104 5.255,12.9204 L9,15.0264 L9,10.5264 Z" id="Fill-39"></path>
                                <path d="M10,15.0264 L13.745,12.9204 C13.764,12.9104 13.775,12.8924 13.792,12.8804 C13.821,12.8584 13.849,12.8384 13.872,12.8104 C13.893,12.7874 13.908,12.7614 13.924,12.7344 C13.94,12.7064 13.956,12.6794 13.967,12.6474 C13.979,12.6154 13.982,12.5834 13.987,12.5484 C13.99,12.5274 14,12.5074 14,12.4844 L14,8.2764 L10,10.5264 L10,15.0264 Z" id="Fill-41"></path>
                            </g>
                        </g>
                    </g>
                </g>
            </g>
        </g>
    </g>
</svg>