<?xml version="1.0" encoding="utf-8" ?>
<svg xmlns="http://www.w3.org/2000/svg" xmlns:xlink="http://www.w3.org/1999/xlink" width="25" height="24">
	<defs>
		<clipPath id="clip_0">
			<path d="M215 -64L-9 -64Q-9.20491 -64 -9.40845 -63.9907Q-9.61198 -63.9813 -9.81373 -63.9627Q-10.0155 -63.9441 -10.215 -63.9162Q-10.4146 -63.8883 -10.6115 -63.8512Q-10.8084 -63.8141 -11.0024 -63.7678Q-11.1963 -63.7216 -11.3868 -63.6663Q-11.5773 -63.611 -11.7641 -63.5468Q-11.9508 -63.4825 -12.1333 -63.4095Q-12.3159 -63.3365 -12.4939 -63.2548Q-12.6719 -63.1732 -12.845 -63.083Q-13.0181 -62.9929 -13.1859 -62.8944Q-13.3537 -62.796 -13.5159 -62.6894Q-13.6781 -62.5829 -13.8344 -62.4684Q-13.9907 -62.354 -14.1407 -62.2319Q-14.2908 -62.1098 -14.4342 -61.9804Q-14.5777 -61.8509 -14.7143 -61.7143Q-14.8509 -61.5777 -14.9804 -61.4342Q-15.1098 -61.2908 -15.2319 -61.1407Q-15.354 -60.9907 -15.4684 -60.8344Q-15.5828 -60.6781 -15.6894 -60.5159Q-15.7959 -60.3537 -15.8944 -60.1859Q-15.9928 -60.0181 -16.083 -59.845Q-16.1731 -59.6719 -16.2548 -59.4939Q-16.3365 -59.3159 -16.4095 -59.1333Q-16.4825 -58.9508 -16.5467 -58.7641Q-16.611 -58.5773 -16.6663 -58.3868Q-16.7216 -58.1963 -16.7678 -58.0024Q-16.8141 -57.8084 -16.8512 -57.6115Q-16.8883 -57.4146 -16.9162 -57.215Q-16.9441 -57.0155 -16.9627 -56.8137Q-16.9813 -56.612 -16.9907 -56.4085Q-17 -56.2049 -17 -56L-17 188Q-17 188.205 -16.9907 188.408Q-16.9813 188.612 -16.9627 188.814Q-16.9441 189.015 -16.9162 189.215Q-16.8883 189.415 -16.8512 189.612Q-16.8141 189.808 -16.7678 190.002Q-16.7216 190.196 -16.6663 190.387Q-16.611 190.577 -16.5467 190.764Q-16.4825 190.951 -16.4095 191.133Q-16.3365 191.316 -16.2548 191.494Q-16.1731 191.672 -16.083 191.845Q-15.9928 192.018 -15.8944 192.186Q-15.7959 192.354 -15.6894 192.516Q-15.5828 192.678 -15.4684 192.834Q-15.354 192.991 -15.2319 193.141Q-15.1098 193.291 -14.9804 193.434Q-14.8509 193.578 -14.7143 193.714Q-14.5777 193.851 -14.4342 193.98Q-14.2908 194.11 -14.1407 194.232Q-13.9907 194.354 -13.8344 194.468Q-13.6781 194.583 -13.5159 194.689Q-13.3537 194.796 -13.1859 194.894Q-13.0181 194.993 -12.845 195.083Q-12.6719 195.173 -12.4939 195.255Q-12.3159 195.337 -12.1333 195.41Q-11.9508 195.483 -11.7641 195.547Q-11.5773 195.611 -11.3868 195.666Q-11.1963 195.722 -11.0024 195.768Q-10.8084 195.814 -10.6115 195.851Q-10.4146 195.888 -10.215 195.916Q-10.0155 195.944 -9.81373 195.963Q-9.61198 195.981 -9.40845 195.991Q-9.20491 196 -9 196L215 196Q215.205 196 215.408 195.991Q215.612 195.981 215.814 195.963Q216.015 195.944 216.215 195.916Q216.415 195.888 216.611 195.851Q216.808 195.814 217.002 195.768Q217.196 195.722 217.387 195.666Q217.577 195.611 217.764 195.547Q217.951 195.483 218.133 195.41Q218.316 195.337 218.494 195.255Q218.672 195.173 218.845 195.083Q219.018 194.993 219.186 194.894Q219.354 194.796 219.516 194.689Q219.678 194.583 219.834 194.468Q219.991 194.354 220.141 194.232Q220.291 194.11 220.434 193.98Q220.578 193.851 220.714 193.714Q220.851 193.578 220.98 193.434Q221.11 193.291 221.232 193.141Q221.354 192.991 221.468 192.834Q221.583 192.678 221.689 192.516Q221.796 192.354 221.894 192.186Q221.993 192.018 222.083 191.845Q222.173 191.672 222.255 191.494Q222.337 191.316 222.41 191.133Q222.483 190.951 222.547 190.764Q222.611 190.577 222.666 190.387Q222.722 190.196 222.768 190.002Q222.814 189.808 222.851 189.612Q222.888 189.415 222.916 189.215Q222.944 189.016 222.963 188.814Q222.981 188.612 222.991 188.408Q223 188.205 223 188L223 -56Q223 -56.2049 222.991 -56.4085Q222.981 -56.612 222.963 -56.8137Q222.944 -57.0155 222.916 -57.215Q222.888 -57.4146 222.851 -57.6115Q222.814 -57.8084 222.768 -58.0024Q222.722 -58.1963 222.666 -58.3868Q222.611 -58.5773 222.547 -58.7641Q222.483 -58.9508 222.41 -59.1333Q222.337 -59.3159 222.255 -59.4939Q222.173 -59.6719 222.083 -59.845Q221.993 -60.0181 221.894 -60.1859Q221.796 -60.3537 221.689 -60.5159Q221.583 -60.6781 221.468 -60.8344Q221.354 -60.9907 221.232 -61.1407Q221.11 -61.2908 220.98 -61.4342Q220.851 -61.5777 220.714 -61.7143Q220.578 -61.8509 220.434 -61.9804Q220.291 -62.1098 220.141 -62.2319Q219.991 -62.354 219.834 -62.4684Q219.678 -62.5829 219.516 -62.6894Q219.354 -62.796 219.186 -62.8944Q219.018 -62.9929 218.845 -63.083Q218.672 -63.1732 218.494 -63.2548Q218.316 -63.3365 218.133 -63.4095Q217.951 -63.4825 217.764 -63.5467Q217.577 -63.611 217.387 -63.6663Q217.196 -63.7216 217.002 -63.7678Q216.808 -63.8141 216.611 -63.8512Q216.415 -63.8883 216.215 -63.9162Q216.015 -63.9441 215.814 -63.9627Q215.612 -63.9813 215.408 -63.9907Q215.205 -64 215 -64Z" clip-rule="evenodd"/>
		</clipPath>
	</defs>
	<g clip-path="url(#clip_0)">
		<path fill="rgb(131,156,171)" stroke="none" transform="translate(0 1)" d="M16.0885 20.0112L7.90851 20.0112C7.63251 20.0112 7.40851 19.7872 7.40851 19.5112C7.40851 19.2352 7.63251 19.0112 7.90851 19.0112L16.0885 19.0112C16.3645 19.0112 16.5885 19.2352 16.5885 19.5112C16.5885 19.7872 16.3645 20.0112 16.0885 20.0112M22.2921 16.3535L1.70911 16.3535C1.43211 16.3535 1.20911 16.1295 1.20911 15.8535C1.20911 15.5775 1.43211 15.3535 1.70911 15.3535L22.2921 15.3535C22.5681 15.3535 22.7921 15.5775 22.7921 15.8535C22.7921 16.1295 22.5681 16.3535 22.2921 16.3535M6.06751 14.8623C5.83651 14.8623 5.62851 14.7013 5.57851 14.4653L4.50451 9.3623C4.44651 9.0913 4.62051 8.8263 4.89051 8.7693C5.15851 8.7123 5.42551 8.8853 5.48251 9.1553L6.55751 14.2593C6.61451 14.5293 6.44151 14.7943 6.17151 14.8513C6.13651 14.8593 6.10151 14.8623 6.06751 14.8623M10.0221 14.8623C9.76211 14.8623 9.54211 14.6613 9.52411 14.3973L9.16611 9.2933C9.14711 9.0183 9.35411 8.7793 9.62911 8.7603C9.91311 8.7433 10.1441 8.9483 10.1631 9.2243L10.5211 14.3273C10.5411 14.6023 10.3331 14.8413 10.0581 14.8613C10.0451 14.8623 10.0341 14.8623 10.0221 14.8623M13.9782 14.8623C13.9662 14.8623 13.9552 14.8623 13.9422 14.8613C13.6672 14.8413 13.4592 14.6023 13.4792 14.3273L13.8372 9.2243C13.8562 8.9483 14.0842 8.7443 14.3712 8.7603C14.6462 8.7793 14.8542 9.0183 14.8342 9.2933L14.4762 14.3973C14.4582 14.6613 14.2382 14.8623 13.9782 14.8623M17.9332 14.8623C17.8992 14.8623 17.8642 14.8593 17.8292 14.8513C17.5592 14.7943 17.3862 14.5293 17.4432 14.2593L18.5182 9.1553C18.5752 8.8853 18.8422 8.7123 19.1102 8.7693C19.3802 8.8263 19.5542 9.0913 19.4962 9.3623L18.4222 14.4653C18.3722 14.7013 18.1642 14.8623 17.9332 14.8623M21.6017 6.824C21.3727 6.824 21.1657 6.666 21.1147 6.433C21.0537 6.164 21.2237 5.896 21.4937 5.836C21.8987 5.745 22.1937 5.378 22.1937 4.963C22.1937 4.515 21.8547 4.136 21.4057 4.081C21.2467 4.062 21.1067 3.968 21.0297 3.828C20.8517 3.509 20.5217 3.31 20.1707 3.31L19.1207 3.31C18.8467 3.31 18.6227 3.089 18.6207 2.814C18.6167 2.276 18.1757 1.837 17.6377 1.837L16.0397 1.837C15.8487 1.837 15.6747 1.729 15.5907 1.557C15.4247 1.219 15.0797 1 14.7097 1L13.0597 1C12.8627 1 12.6717 1.058 12.5087 1.169C12.3397 1.283 12.1177 1.283 11.9487 1.169C11.7857 1.058 11.5947 1 11.3987 1L9.74771 1C9.34471 1 8.98571 1.245 8.83271 1.625C8.73071 1.878 8.44471 2.002 8.19071 1.906C8.07271 1.86 7.95571 1.837 7.84271 1.837L6.19171 1.837C5.65471 1.837 5.21271 2.277 5.20571 2.817C5.20171 3.09 4.97871 3.31 4.70571 3.31L3.60271 3.31C3.23071 3.31 2.89471 3.522 2.72371 3.864C2.66371 3.984 2.55771 4.075 2.43071 4.116C2.05771 4.237 1.80671 4.577 1.80671 4.963C1.80671 5.317 2.01771 5.639 2.34471 5.782C2.59771 5.894 2.71271 6.189 2.60171 6.442C2.49071 6.694 2.19471 6.809 1.94271 6.698C1.25171 6.394 0.806711 5.713 0.806711 4.963C0.806711 4.211 1.24971 3.542 1.92971 3.239C2.29371 2.661 2.91771 2.31 3.60271 2.31L4.27471 2.31C4.50471 1.464 5.28071 0.837 6.19171 0.837L7.84271 0.837C7.93371 0.837 8.02471 0.844 8.11671 0.858C8.48171 0.326 9.08471 3.4639e-14 9.74771 3.4639e-14L11.3987 3.4639e-14C11.6877 3.4639e-14 11.9697 0.062 12.2287 0.182C12.4877 0.062 12.7697 3.4639e-14 13.0597 3.4639e-14L14.7097 3.4639e-14C15.3497 3.4639e-14 15.9527 0.32 16.3217 0.837L17.6377 0.837C18.5507 0.837 19.3267 1.464 19.5537 2.31L20.1707 2.31C20.8037 2.31 21.3967 2.621 21.7707 3.134C22.5977 3.346 23.1937 4.094 23.1937 4.963C23.1937 5.842 22.5707 6.62 21.7107 6.812C21.6747 6.82 21.6377 6.824 21.6017 6.824M21.7658 20.0112L19.9238 20.0112C19.6468 20.0112 19.4238 19.7872 19.4238 19.5112C19.4238 19.2352 19.6468 19.0112 19.9238 19.0112L21.3328 19.0112L22.9228 7.9542L1.07781 7.9542L2.66781 19.0112L4.07381 19.0112C4.34981 19.0112 4.57381 19.2352 4.57381 19.5112C4.57381 19.7872 4.34981 20.0112 4.07381 20.0112L2.23481 20.0112C1.98581 20.0112 1.77481 19.8282 1.73981 19.5822L0.00481102 7.5262C-0.015189 7.3822 0.027811 7.2372 0.121811 7.1272C0.217811 7.0172 0.354811 6.9542 0.499811 6.9542L23.4998 6.9542C23.6448 6.9542 23.7828 7.0172 23.8778 7.1272C23.9728 7.2372 24.0158 7.3822 23.9948 7.5262L22.2608 19.5822C22.2248 19.8282 22.0148 20.0112 21.7658 20.0112"/>
	</g>
	<defs>
		<clipPath id="clip_1">
			<path d="M215 -64L-9 -64Q-9.20491 -64 -9.40845 -63.9907Q-9.61198 -63.9813 -9.81373 -63.9627Q-10.0155 -63.9441 -10.215 -63.9162Q-10.4146 -63.8883 -10.6115 -63.8512Q-10.8084 -63.8141 -11.0024 -63.7678Q-11.1963 -63.7216 -11.3868 -63.6663Q-11.5773 -63.611 -11.7641 -63.5468Q-11.9508 -63.4825 -12.1333 -63.4095Q-12.3159 -63.3365 -12.4939 -63.2548Q-12.6719 -63.1732 -12.845 -63.083Q-13.0181 -62.9929 -13.1859 -62.8944Q-13.3537 -62.796 -13.5159 -62.6894Q-13.6781 -62.5829 -13.8344 -62.4684Q-13.9907 -62.354 -14.1407 -62.2319Q-14.2908 -62.1098 -14.4342 -61.9804Q-14.5777 -61.8509 -14.7143 -61.7143Q-14.8509 -61.5777 -14.9804 -61.4342Q-15.1098 -61.2908 -15.2319 -61.1407Q-15.354 -60.9907 -15.4684 -60.8344Q-15.5828 -60.6781 -15.6894 -60.5159Q-15.7959 -60.3537 -15.8944 -60.1859Q-15.9928 -60.0181 -16.083 -59.845Q-16.1731 -59.6719 -16.2548 -59.4939Q-16.3365 -59.3159 -16.4095 -59.1333Q-16.4825 -58.9508 -16.5467 -58.7641Q-16.611 -58.5773 -16.6663 -58.3868Q-16.7216 -58.1963 -16.7678 -58.0024Q-16.8141 -57.8084 -16.8512 -57.6115Q-16.8883 -57.4146 -16.9162 -57.215Q-16.9441 -57.0155 -16.9627 -56.8137Q-16.9813 -56.612 -16.9907 -56.4085Q-17 -56.2049 -17 -56L-17 188Q-17 188.205 -16.9907 188.408Q-16.9813 188.612 -16.9627 188.814Q-16.9441 189.015 -16.9162 189.215Q-16.8883 189.415 -16.8512 189.612Q-16.8141 189.808 -16.7678 190.002Q-16.7216 190.196 -16.6663 190.387Q-16.611 190.577 -16.5467 190.764Q-16.4825 190.951 -16.4095 191.133Q-16.3365 191.316 -16.2548 191.494Q-16.1731 191.672 -16.083 191.845Q-15.9928 192.018 -15.8944 192.186Q-15.7959 192.354 -15.6894 192.516Q-15.5828 192.678 -15.4684 192.834Q-15.354 192.991 -15.2319 193.141Q-15.1098 193.291 -14.9804 193.434Q-14.8509 193.578 -14.7143 193.714Q-14.5777 193.851 -14.4342 193.98Q-14.2908 194.11 -14.1407 194.232Q-13.9907 194.354 -13.8344 194.468Q-13.6781 194.583 -13.5159 194.689Q-13.3537 194.796 -13.1859 194.894Q-13.0181 194.993 -12.845 195.083Q-12.6719 195.173 -12.4939 195.255Q-12.3159 195.337 -12.1333 195.41Q-11.9508 195.483 -11.7641 195.547Q-11.5773 195.611 -11.3868 195.666Q-11.1963 195.722 -11.0024 195.768Q-10.8084 195.814 -10.6115 195.851Q-10.4146 195.888 -10.215 195.916Q-10.0155 195.944 -9.81373 195.963Q-9.61198 195.981 -9.40845 195.991Q-9.20491 196 -9 196L215 196Q215.205 196 215.408 195.991Q215.612 195.981 215.814 195.963Q216.015 195.944 216.215 195.916Q216.415 195.888 216.611 195.851Q216.808 195.814 217.002 195.768Q217.196 195.722 217.387 195.666Q217.577 195.611 217.764 195.547Q217.951 195.483 218.133 195.41Q218.316 195.337 218.494 195.255Q218.672 195.173 218.845 195.083Q219.018 194.993 219.186 194.894Q219.354 194.796 219.516 194.689Q219.678 194.583 219.834 194.468Q219.991 194.354 220.141 194.232Q220.291 194.11 220.434 193.98Q220.578 193.851 220.714 193.714Q220.851 193.578 220.98 193.434Q221.11 193.291 221.232 193.141Q221.354 192.991 221.468 192.834Q221.583 192.678 221.689 192.516Q221.796 192.354 221.894 192.186Q221.993 192.018 222.083 191.845Q222.173 191.672 222.255 191.494Q222.337 191.316 222.41 191.133Q222.483 190.951 222.547 190.764Q222.611 190.577 222.666 190.387Q222.722 190.196 222.768 190.002Q222.814 189.808 222.851 189.612Q222.888 189.415 222.916 189.215Q222.944 189.016 222.963 188.814Q222.981 188.612 222.991 188.408Q223 188.205 223 188L223 -56Q223 -56.2049 222.991 -56.4085Q222.981 -56.612 222.963 -56.8137Q222.944 -57.0155 222.916 -57.215Q222.888 -57.4146 222.851 -57.6115Q222.814 -57.8084 222.768 -58.0024Q222.722 -58.1963 222.666 -58.3868Q222.611 -58.5773 222.547 -58.7641Q222.483 -58.9508 222.41 -59.1333Q222.337 -59.3159 222.255 -59.4939Q222.173 -59.6719 222.083 -59.845Q221.993 -60.0181 221.894 -60.1859Q221.796 -60.3537 221.689 -60.5159Q221.583 -60.6781 221.468 -60.8344Q221.354 -60.9907 221.232 -61.1407Q221.11 -61.2908 220.98 -61.4342Q220.851 -61.5777 220.714 -61.7143Q220.578 -61.8509 220.434 -61.9804Q220.291 -62.1098 220.141 -62.2319Q219.991 -62.354 219.834 -62.4684Q219.678 -62.5829 219.516 -62.6894Q219.354 -62.796 219.186 -62.8944Q219.018 -62.9929 218.845 -63.083Q218.672 -63.1732 218.494 -63.2548Q218.316 -63.3365 218.133 -63.4095Q217.951 -63.4825 217.764 -63.5467Q217.577 -63.611 217.387 -63.6663Q217.196 -63.7216 217.002 -63.7678Q216.808 -63.8141 216.611 -63.8512Q216.415 -63.8883 216.215 -63.9162Q216.015 -63.9441 215.814 -63.9627Q215.612 -63.9813 215.408 -63.9907Q215.205 -64 215 -64Z" clip-rule="evenodd"/>
		</clipPath>
	</defs>
	<g clip-path="url(#clip_1)">
		<path fill="rgb(0,0,0)" stroke="none" transform="translate(3.50082 18.5466)" d="M2.491 1C1.669 1 1 1.669 1 2.491C1 3.313 1.669 3.982 2.491 3.982C3.313 3.982 3.982 3.313 3.982 2.491C3.982 1.669 3.313 1 2.491 1M2.491 4.982C1.117 4.982 0 3.865 0 2.491C0 1.117 1.117 0 2.491 0C3.865 0 4.982 1.117 4.982 2.491C4.982 3.865 3.865 4.982 2.491 4.982"/>
	</g>
	<defs>
		<clipPath id="clip_2">
			<path d="M215 -64L-9 -64Q-9.20491 -64 -9.40845 -63.9907Q-9.61198 -63.9813 -9.81373 -63.9627Q-10.0155 -63.9441 -10.215 -63.9162Q-10.4146 -63.8883 -10.6115 -63.8512Q-10.8084 -63.8141 -11.0024 -63.7678Q-11.1963 -63.7216 -11.3868 -63.6663Q-11.5773 -63.611 -11.7641 -63.5468Q-11.9508 -63.4825 -12.1333 -63.4095Q-12.3159 -63.3365 -12.4939 -63.2548Q-12.6719 -63.1732 -12.845 -63.083Q-13.0181 -62.9929 -13.1859 -62.8944Q-13.3537 -62.796 -13.5159 -62.6894Q-13.6781 -62.5829 -13.8344 -62.4684Q-13.9907 -62.354 -14.1407 -62.2319Q-14.2908 -62.1098 -14.4342 -61.9804Q-14.5777 -61.8509 -14.7143 -61.7143Q-14.8509 -61.5777 -14.9804 -61.4342Q-15.1098 -61.2908 -15.2319 -61.1407Q-15.354 -60.9907 -15.4684 -60.8344Q-15.5828 -60.6781 -15.6894 -60.5159Q-15.7959 -60.3537 -15.8944 -60.1859Q-15.9928 -60.0181 -16.083 -59.845Q-16.1731 -59.6719 -16.2548 -59.4939Q-16.3365 -59.3159 -16.4095 -59.1333Q-16.4825 -58.9508 -16.5467 -58.7641Q-16.611 -58.5773 -16.6663 -58.3868Q-16.7216 -58.1963 -16.7678 -58.0024Q-16.8141 -57.8084 -16.8512 -57.6115Q-16.8883 -57.4146 -16.9162 -57.215Q-16.9441 -57.0155 -16.9627 -56.8137Q-16.9813 -56.612 -16.9907 -56.4085Q-17 -56.2049 -17 -56L-17 188Q-17 188.205 -16.9907 188.408Q-16.9813 188.612 -16.9627 188.814Q-16.9441 189.015 -16.9162 189.215Q-16.8883 189.415 -16.8512 189.612Q-16.8141 189.808 -16.7678 190.002Q-16.7216 190.196 -16.6663 190.387Q-16.611 190.577 -16.5467 190.764Q-16.4825 190.951 -16.4095 191.133Q-16.3365 191.316 -16.2548 191.494Q-16.1731 191.672 -16.083 191.845Q-15.9928 192.018 -15.8944 192.186Q-15.7959 192.354 -15.6894 192.516Q-15.5828 192.678 -15.4684 192.834Q-15.354 192.991 -15.2319 193.141Q-15.1098 193.291 -14.9804 193.434Q-14.8509 193.578 -14.7143 193.714Q-14.5777 193.851 -14.4342 193.98Q-14.2908 194.11 -14.1407 194.232Q-13.9907 194.354 -13.8344 194.468Q-13.6781 194.583 -13.5159 194.689Q-13.3537 194.796 -13.1859 194.894Q-13.0181 194.993 -12.845 195.083Q-12.6719 195.173 -12.4939 195.255Q-12.3159 195.337 -12.1333 195.41Q-11.9508 195.483 -11.7641 195.547Q-11.5773 195.611 -11.3868 195.666Q-11.1963 195.722 -11.0024 195.768Q-10.8084 195.814 -10.6115 195.851Q-10.4146 195.888 -10.215 195.916Q-10.0155 195.944 -9.81373 195.963Q-9.61198 195.981 -9.40845 195.991Q-9.20491 196 -9 196L215 196Q215.205 196 215.408 195.991Q215.612 195.981 215.814 195.963Q216.015 195.944 216.215 195.916Q216.415 195.888 216.611 195.851Q216.808 195.814 217.002 195.768Q217.196 195.722 217.387 195.666Q217.577 195.611 217.764 195.547Q217.951 195.483 218.133 195.41Q218.316 195.337 218.494 195.255Q218.672 195.173 218.845 195.083Q219.018 194.993 219.186 194.894Q219.354 194.796 219.516 194.689Q219.678 194.583 219.834 194.468Q219.991 194.354 220.141 194.232Q220.291 194.11 220.434 193.98Q220.578 193.851 220.714 193.714Q220.851 193.578 220.98 193.434Q221.11 193.291 221.232 193.141Q221.354 192.991 221.468 192.834Q221.583 192.678 221.689 192.516Q221.796 192.354 221.894 192.186Q221.993 192.018 222.083 191.845Q222.173 191.672 222.255 191.494Q222.337 191.316 222.41 191.133Q222.483 190.951 222.547 190.764Q222.611 190.577 222.666 190.387Q222.722 190.196 222.768 190.002Q222.814 189.808 222.851 189.612Q222.888 189.415 222.916 189.215Q222.944 189.016 222.963 188.814Q222.981 188.612 222.991 188.408Q223 188.205 223 188L223 -56Q223 -56.2049 222.991 -56.4085Q222.981 -56.612 222.963 -56.8137Q222.944 -57.0155 222.916 -57.215Q222.888 -57.4146 222.851 -57.6115Q222.814 -57.8084 222.768 -58.0024Q222.722 -58.1963 222.666 -58.3868Q222.611 -58.5773 222.547 -58.7641Q222.483 -58.9508 222.41 -59.1333Q222.337 -59.3159 222.255 -59.4939Q222.173 -59.6719 222.083 -59.845Q221.993 -60.0181 221.894 -60.1859Q221.796 -60.3537 221.689 -60.5159Q221.583 -60.6781 221.468 -60.8344Q221.354 -60.9907 221.232 -61.1407Q221.11 -61.2908 220.98 -61.4342Q220.851 -61.5777 220.714 -61.7143Q220.578 -61.8509 220.434 -61.9804Q220.291 -62.1098 220.141 -62.2319Q219.991 -62.354 219.834 -62.4684Q219.678 -62.5829 219.516 -62.6894Q219.354 -62.796 219.186 -62.8944Q219.018 -62.9929 218.845 -63.083Q218.672 -63.1732 218.494 -63.2548Q218.316 -63.3365 218.133 -63.4095Q217.951 -63.4825 217.764 -63.5467Q217.577 -63.611 217.387 -63.6663Q217.196 -63.7216 217.002 -63.7678Q216.808 -63.8141 216.611 -63.8512Q216.415 -63.8883 216.215 -63.9162Q216.015 -63.9441 215.814 -63.9627Q215.612 -63.9813 215.408 -63.9907Q215.205 -64 215 -64Z" clip-rule="evenodd"/>
		</clipPath>
	</defs>
	<g clip-path="url(#clip_2)">
		<path fill="rgb(0,0,0)" stroke="none" transform="translate(15.5165 18.5466)" d="M2.491 1C1.669 1 1 1.669 1 2.491C1 3.313 1.669 3.982 2.491 3.982C3.313 3.982 3.982 3.313 3.982 2.491C3.982 1.669 3.313 1 2.491 1M2.491 4.982C1.117 4.982 0 3.865 0 2.491C0 1.117 1.117 0 2.491 0C3.865 0 4.982 1.117 4.982 2.491C4.982 3.865 3.865 4.982 2.491 4.982"/>
	</g>

</svg>