<?xml version="1.0" encoding="utf-8" ?>
<svg xmlns="http://www.w3.org/2000/svg" xmlns:xlink="http://www.w3.org/1999/xlink" width="12" height="12">
	<defs>
		<clipPath id="clip_0">
			<path d="M212 -64L-12 -64Q-12.2049 -64 -12.4084 -63.9907Q-12.612 -63.9813 -12.8137 -63.9627Q-13.0155 -63.9441 -13.215 -63.9162Q-13.4146 -63.8883 -13.6115 -63.8512Q-13.8084 -63.8141 -14.0024 -63.7678Q-14.1963 -63.7216 -14.3868 -63.6663Q-14.5773 -63.611 -14.7641 -63.5468Q-14.9508 -63.4825 -15.1333 -63.4095Q-15.3159 -63.3365 -15.4939 -63.2548Q-15.6719 -63.1732 -15.845 -63.083Q-16.0181 -62.9929 -16.1859 -62.8944Q-16.3537 -62.796 -16.5159 -62.6894Q-16.6781 -62.5829 -16.8344 -62.4684Q-16.9907 -62.354 -17.1407 -62.2319Q-17.2908 -62.1098 -17.4342 -61.9804Q-17.5777 -61.8509 -17.7143 -61.7143Q-17.8509 -61.5777 -17.9804 -61.4342Q-18.1098 -61.2908 -18.2319 -61.1407Q-18.354 -60.9907 -18.4684 -60.8344Q-18.5829 -60.6781 -18.6894 -60.5159Q-18.7959 -60.3537 -18.8944 -60.1859Q-18.9928 -60.0181 -19.083 -59.845Q-19.1731 -59.6719 -19.2548 -59.4939Q-19.3365 -59.3159 -19.4095 -59.1333Q-19.4825 -58.9508 -19.5467 -58.7641Q-19.611 -58.5773 -19.6663 -58.3868Q-19.7216 -58.1963 -19.7678 -58.0024Q-19.8141 -57.8084 -19.8512 -57.6115Q-19.8883 -57.4146 -19.9162 -57.215Q-19.9441 -57.0155 -19.9627 -56.8137Q-19.9813 -56.612 -19.9907 -56.4085Q-20 -56.2049 -20 -56L-20 188Q-20 188.205 -19.9907 188.408Q-19.9813 188.612 -19.9627 188.814Q-19.9441 189.015 -19.9162 189.215Q-19.8883 189.415 -19.8512 189.612Q-19.8141 189.808 -19.7678 190.002Q-19.7216 190.196 -19.6663 190.387Q-19.611 190.577 -19.5467 190.764Q-19.4825 190.951 -19.4095 191.133Q-19.3365 191.316 -19.2548 191.494Q-19.1731 191.672 -19.083 191.845Q-18.9928 192.018 -18.8944 192.186Q-18.7959 192.354 -18.6894 192.516Q-18.5829 192.678 -18.4684 192.834Q-18.354 192.991 -18.2319 193.141Q-18.1098 193.291 -17.9804 193.434Q-17.8509 193.578 -17.7143 193.714Q-17.5777 193.851 -17.4342 193.98Q-17.2908 194.11 -17.1407 194.232Q-16.9907 194.354 -16.8344 194.468Q-16.6781 194.583 -16.5159 194.689Q-16.3537 194.796 -16.1859 194.894Q-16.0181 194.993 -15.845 195.083Q-15.6719 195.173 -15.4939 195.255Q-15.3159 195.337 -15.1333 195.41Q-14.9508 195.483 -14.7641 195.547Q-14.5773 195.611 -14.3868 195.666Q-14.1963 195.722 -14.0024 195.768Q-13.8084 195.814 -13.6115 195.851Q-13.4146 195.888 -13.215 195.916Q-13.0155 195.944 -12.8137 195.963Q-12.612 195.981 -12.4084 195.991Q-12.2049 196 -12 196L212 196Q212.205 196 212.408 195.991Q212.612 195.981 212.814 195.963Q213.016 195.944 213.215 195.916Q213.415 195.888 213.612 195.851Q213.808 195.814 214.002 195.768Q214.196 195.722 214.387 195.666Q214.577 195.611 214.764 195.547Q214.951 195.483 215.133 195.41Q215.316 195.337 215.494 195.255Q215.672 195.173 215.845 195.083Q216.018 194.993 216.186 194.894Q216.354 194.796 216.516 194.689Q216.678 194.583 216.834 194.468Q216.991 194.354 217.141 194.232Q217.291 194.11 217.434 193.98Q217.578 193.851 217.714 193.714Q217.851 193.578 217.98 193.434Q218.11 193.291 218.232 193.141Q218.354 192.991 218.468 192.834Q218.583 192.678 218.689 192.516Q218.796 192.354 218.894 192.186Q218.993 192.018 219.083 191.845Q219.173 191.672 219.255 191.494Q219.337 191.316 219.41 191.133Q219.483 190.951 219.547 190.764Q219.611 190.577 219.666 190.387Q219.722 190.196 219.768 190.002Q219.814 189.808 219.851 189.612Q219.888 189.415 219.916 189.215Q219.944 189.016 219.963 188.814Q219.981 188.612 219.991 188.408Q220 188.205 220 188L220 -56Q220 -56.2049 219.991 -56.4085Q219.981 -56.612 219.963 -56.8137Q219.944 -57.0155 219.916 -57.215Q219.888 -57.4146 219.851 -57.6115Q219.814 -57.8084 219.768 -58.0024Q219.722 -58.1963 219.666 -58.3868Q219.611 -58.5773 219.547 -58.7641Q219.483 -58.9508 219.41 -59.1333Q219.337 -59.3159 219.255 -59.4939Q219.173 -59.6719 219.083 -59.845Q218.993 -60.0181 218.894 -60.1859Q218.796 -60.3537 218.689 -60.5159Q218.583 -60.6781 218.468 -60.8344Q218.354 -60.9907 218.232 -61.1407Q218.11 -61.2908 217.98 -61.4342Q217.851 -61.5777 217.714 -61.7143Q217.578 -61.8509 217.434 -61.9804Q217.291 -62.1098 217.141 -62.2319Q216.991 -62.354 216.834 -62.4684Q216.678 -62.5829 216.516 -62.6894Q216.354 -62.796 216.186 -62.8944Q216.018 -62.9929 215.845 -63.083Q215.672 -63.1732 215.494 -63.2548Q215.316 -63.3365 215.133 -63.4095Q214.951 -63.4825 214.764 -63.5467Q214.577 -63.611 214.387 -63.6663Q214.196 -63.7216 214.002 -63.7678Q213.808 -63.8141 213.612 -63.8512Q213.415 -63.8883 213.215 -63.9162Q213.016 -63.9441 212.814 -63.9627Q212.612 -63.9813 212.408 -63.9907Q212.205 -64 212 -64Z" clip-rule="evenodd"/>
		</clipPath>
	</defs>
	<g clip-path="url(#clip_0)">
		<path fill="rgb(131,156,171)" stroke="none" transform="translate(1.79999 0)" d="M2.4 7.992C0.948 7.308 0 5.838 0 4.2C0 1.884 1.884 0 4.2 0C6.516 0 8.4 1.884 8.4 4.2C8.4 5.838 7.452 7.308 6 7.992L6 8.6Q6 8.70272 5.9814 8.80144Q5.96279 8.90016 5.92619 8.99167Q5.88959 9.08317 5.83617 9.16449Q5.78276 9.24581 5.71429 9.31429Q5.64581 9.38276 5.56449 9.43617Q5.48317 9.48959 5.39167 9.52619Q5.30016 9.56279 5.20144 9.5814Q5.10272 9.6 5 9.6L3.4 9.6Q3.29728 9.6 3.19856 9.5814Q3.09984 9.56279 3.00833 9.52619Q2.91683 9.48959 2.83551 9.43617Q2.75419 9.38276 2.68571 9.31429Q2.61724 9.24581 2.56383 9.16449Q2.51042 9.08317 2.47381 8.99167Q2.43721 8.90016 2.4186 8.80144Q2.4 8.70272 2.4 8.6L2.4 7.992ZM4.40012 11.9999L4.00012 11.9999Q3.84671 11.9999 3.70395 11.9588Q3.56119 11.9177 3.43935 11.8385Q3.3175 11.7593 3.22534 11.6476Q3.13317 11.5359 3.07731 11.3999Q3.13317 11.2638 3.22534 11.1522Q3.3175 11.0405 3.43935 10.9613Q3.56119 10.8821 3.70395 10.841Q3.84671 10.7999 4.00012 10.7999L4.40012 10.7999Q4.55353 10.7999 4.69629 10.841Q4.83905 10.8821 4.96089 10.9613Q5.08274 11.0405 5.1749 11.1522Q5.26707 11.2638 5.32293 11.3999Q5.26707 11.5359 5.1749 11.6476Q5.08274 11.7593 4.96089 11.8385Q4.83905 11.9177 4.69629 11.9588Q4.55353 11.9999 4.40012 11.9999ZM5.32293 11.3999Q5.40012 11.5879 5.40012 11.7999L5.40012 10.9999Q5.40012 11.2119 5.32293 11.3999L5.32293 11.3999ZM3.07731 11.3999Q3.00012 11.2119 3.00012 10.9999L3.00012 11.7999Q3.00012 11.5879 3.07731 11.3999Z" fill-rule="evenodd"/>
	</g>

</svg>