
<svg width="20px" height="20px" viewBox="0 0 20 20" version="1.1" xmlns="http://www.w3.org/2000/svg" xmlns:xlink="http://www.w3.org/1999/xlink">
    <g id="left_Navi" stroke="none" stroke-width="1" fill="none" fill-rule="evenodd">
        <g id="left-Navi-new" transform="translate(-22.000000, -158.000000)">
            <g id="left-Navi-new-Copy">
                <g id="setting-block" transform="translate(0.000000, 72.000000)">
                    <g id="icon_style" transform="translate(0.000000, 64.000000)">
                        <rect id="block" x="0" y="0" width="64" height="64"></rect>
                        <g id="icon_02/gray" transform="translate(22.000000, 22.000000)" fill="#6E8591" fill-rule="evenodd" stroke-width="1">
                            <g id="icon">
                                <path d="M2.5,1 C1.673,1 1,1.673 1,2.5 L1,17.5 C1,18.327 1.673,19 2.5,19 L17.5,19 C18.327,19 19,18.327 19,17.5 L19,2.5 C19,1.673 18.327,1 17.5,1 L2.5,1 Z M17.5,20 L2.5,20 C1.121,20 0,18.879 0,17.5 L0,2.5 C0,1.121 1.121,0 2.5,0 L17.5,0 C18.879,0 20,1.121 20,2.5 L20,17.5 C20,18.879 18.879,20 17.5,20 L17.5,20 Z" id="Fill-1"></path>
                                <polygon id="Fill-3" points="10.9932 6.3281 7.6102 7.7811 10.9932 9.2341 14.1482 7.7811"></polygon>
                                <polygon id="Fill-5" points="11.5 15.001 14.844 13.461 14.844 8.562 11.5 10.102"></polygon>
                                <polygon id="Fill-7" points="6.8437 13.4521 10.4997 15.0221 10.4997 10.1101 6.8437 8.5401"></polygon>
                                <path d="M15.8437,13.7813 C15.8437,13.9763 15.7307,14.1533 15.5527,14.2353 L11.2087,16.2353 C11.2067,16.2363 11.2037,16.2363 11.2017,16.2363 C11.1407,16.2643 11.0727,16.2813 10.9997,16.2813 C10.9297,16.2813 10.8637,16.2663 10.8027,16.2403 L6.1467,14.2403 C5.9627,14.1623 5.8437,13.9813 5.8437,13.7813 L5.8437,7.7813 C5.8437,7.6893 5.8747,7.6093 5.9167,7.5353 C5.9277,7.5173 5.9387,7.5023 5.9507,7.4853 C6.0047,7.4153 6.0697,7.3543 6.1527,7.3203 L10.8027,5.3223 C10.9317,5.2653 11.0797,5.2683 11.2087,5.3273 L15.5377,7.3203 L15.5387,7.3203 L15.5527,7.3273 C15.5587,7.3303 15.5617,7.3373 15.5687,7.3403 C15.6367,7.3763 15.6937,7.4273 15.7387,7.4893 C15.7517,7.5063 15.7627,7.5213 15.7737,7.5403 C15.8147,7.6123 15.8437,7.6923 15.8437,7.7813 L15.8437,13.7813 Z M4.9997,6.5003 L3.9997,6.5003 C3.7237,6.5003 3.4997,6.2763 3.4997,6.0003 C3.4997,5.7233 3.7237,5.5003 3.9997,5.5003 L4.9997,5.5003 C5.2767,5.5003 5.4997,5.7233 5.4997,6.0003 C5.4997,6.2763 5.2767,6.5003 4.9997,6.5003 L4.9997,6.5003 Z M3.9997,3.5003 L5.9997,3.5003 C6.2767,3.5003 6.4997,3.7233 6.4997,4.0003 C6.4997,4.2763 6.2767,4.5003 5.9997,4.5003 L3.9997,4.5003 C3.7237,4.5003 3.4997,4.2763 3.4997,4.0003 C3.4997,3.7233 3.7237,3.5003 3.9997,3.5003 L3.9997,3.5003 Z M7.6497,3.6493 C7.6897,3.5993 7.7497,3.5593 7.8097,3.5403 C7.9297,3.4903 8.0697,3.4903 8.1897,3.5403 C8.2497,3.5593 8.3097,3.5993 8.3497,3.6493 C8.4497,3.7403 8.4997,3.8703 8.4997,4.0003 C8.4997,4.1303 8.4497,4.2603 8.3497,4.3493 C8.2597,4.4503 8.1297,4.5003 7.9997,4.5003 C7.9297,4.5003 7.8697,4.4903 7.8097,4.4603 C7.7497,4.4393 7.6897,4.3993 7.6497,4.3493 C7.5497,4.2603 7.4997,4.1303 7.4997,4.0003 C7.4997,3.8703 7.5497,3.7403 7.6497,3.6493 L7.6497,3.6493 Z M16.9207,2.0003 L3.0787,2.0003 C2.4857,2.0003 1.9997,2.4853 1.9997,3.0793 L1.9997,16.9213 C1.9997,17.5143 2.4857,18.0003 3.0787,18.0003 L16.9207,18.0003 C17.5147,18.0003 17.9997,17.5143 17.9997,16.9213 L17.9997,3.0793 C17.9997,2.4853 17.5147,2.0003 16.9207,2.0003 L16.9207,2.0003 Z" id="Fill-9"></path>
                            </g>
                        </g>
                    </g>
                </g>
            </g>
        </g>
    </g>
</svg>