
<svg width="19px" height="20px" viewBox="0 0 19 20" version="1.1" xmlns="http://www.w3.org/2000/svg" xmlns:xlink="http://www.w3.org/1999/xlink">
    <g id="组件" stroke="none" stroke-width="1" fill="none" fill-rule="evenodd">
        <g id="secNavi_row" transform="translate(-20.000000, -14.000000)" fill="#6E8591">
            <g id="icon_sec_02" transform="translate(20.000000, 14.000000)">
                <path d="M18.8506,18.1436 L14.4136,13.7846 C15.1076,12.9516 15.5586,11.9106 15.6626,10.7706 L17.1786,10.7706 C17.4546,10.7706 17.6786,10.5466 17.6786,10.2706 C17.6786,9.9946 17.4546,9.7706 17.1786,9.7706 L11.9376,9.7706 L10.5876,7.9706 C10.3986,7.7186 9.9766,7.7186 9.7876,7.9706 L8.4376,9.7706 L7.1876,9.7706 C6.9116,9.7706 6.6876,9.9946 6.6876,10.2706 C6.6876,10.5466 6.9116,10.7706 7.1876,10.7706 L8.6876,10.7706 C8.8446,10.7706 8.9936,10.6966 9.0876,10.5706 L10.1876,9.1036 L11.2876,10.5706 C11.3816,10.6966 11.5306,10.7706 11.6876,10.7706 L14.6366,10.7706 C14.5216,11.7956 14.0796,12.7226 13.3916,13.4226 C13.3806,13.4316 13.3676,13.4356 13.3566,13.4466 C13.3476,13.4556 13.3446,13.4676 13.3356,13.4776 C12.5236,14.2756 11.4136,14.7706 10.1876,14.7706 C7.7056,14.7706 5.6876,12.7516 5.6876,10.2706 C5.6876,7.7896 7.7056,5.7706 10.1876,5.7706 C12.1436,5.7706 13.8596,7.0376 14.4556,8.9216 C14.5386,9.1846 14.8176,9.3296 15.0836,9.2476 C15.3466,9.1646 15.4926,8.8826 15.4096,8.6196 C14.6806,6.3176 12.5816,4.7706 10.1876,4.7706 C7.1556,4.7706 4.6876,7.2386 4.6876,10.2706 C4.6876,13.3026 7.1556,15.7706 10.1876,15.7706 C11.5256,15.7706 12.7516,15.2896 13.7066,14.4926 L18.1496,18.8566 C18.2466,18.9526 18.3726,18.9996 18.4996,18.9996 C18.6296,18.9996 18.7586,18.9506 18.8566,18.8506 C19.0496,18.6536 19.0476,18.3366 18.8506,18.1436" id="Fill-3"></path>
                <path d="M13.5,15.9902 C13.224,15.9902 13,16.2142 13,16.4902 L13,18.5002 C13,18.7752 12.775,19.0002 12.5,19.0002 L1.5,19.0002 C1.225,19.0002 1,18.7752 1,18.5002 L1,1.5002 C1,1.2242 1.225,1.0002 1.5,1.0002 L12.5,1.0002 C12.775,1.0002 13,1.2242 13,1.5002 L13,4.0512 C13,4.3272 13.224,4.5512 13.5,4.5512 C13.776,4.5512 14,4.3272 14,4.0512 L14,1.5002 C14,0.6732 13.327,0.0002 12.5,0.0002 L1.5,0.0002 C0.673,0.0002 0,0.6732 0,1.5002 L0,18.5002 C0,19.3272 0.673,20.0002 1.5,20.0002 L12.5,20.0002 C13.327,20.0002 14,19.3272 14,18.5002 L14,16.4902 C14,16.2142 13.776,15.9902 13.5,15.9902" id="Fill-1"></path>
            </g>
        </g>
    </g>
</svg>