<?xml version="1.0" encoding="utf-8" ?>
<svg xmlns="http://www.w3.org/2000/svg" xmlns:xlink="http://www.w3.org/1999/xlink" width="24" height="24">
	<defs>
		<clipPath id="clip_0">
			<path d="M215 -64L-9 -64Q-9.20491 -64 -9.40845 -63.9907Q-9.61198 -63.9813 -9.81373 -63.9627Q-10.0155 -63.9441 -10.215 -63.9162Q-10.4146 -63.8883 -10.6115 -63.8512Q-10.8084 -63.8141 -11.0024 -63.7678Q-11.1963 -63.7216 -11.3868 -63.6663Q-11.5773 -63.611 -11.7641 -63.5468Q-11.9508 -63.4825 -12.1333 -63.4095Q-12.3159 -63.3365 -12.4939 -63.2548Q-12.6719 -63.1732 -12.845 -63.083Q-13.0181 -62.9929 -13.1859 -62.8944Q-13.3537 -62.796 -13.5159 -62.6894Q-13.6781 -62.5829 -13.8344 -62.4684Q-13.9907 -62.354 -14.1407 -62.2319Q-14.2908 -62.1098 -14.4342 -61.9804Q-14.5777 -61.8509 -14.7143 -61.7143Q-14.8509 -61.5777 -14.9804 -61.4342Q-15.1098 -61.2908 -15.2319 -61.1407Q-15.354 -60.9907 -15.4684 -60.8344Q-15.5828 -60.6781 -15.6894 -60.5159Q-15.7959 -60.3537 -15.8944 -60.1859Q-15.9928 -60.0181 -16.083 -59.845Q-16.1731 -59.6719 -16.2548 -59.4939Q-16.3365 -59.3159 -16.4095 -59.1333Q-16.4825 -58.9508 -16.5467 -58.7641Q-16.611 -58.5773 -16.6663 -58.3868Q-16.7216 -58.1963 -16.7678 -58.0024Q-16.8141 -57.8084 -16.8512 -57.6115Q-16.8883 -57.4146 -16.9162 -57.215Q-16.9441 -57.0155 -16.9627 -56.8137Q-16.9813 -56.612 -16.9907 -56.4085Q-17 -56.2049 -17 -56L-17 188Q-17 188.205 -16.9907 188.408Q-16.9813 188.612 -16.9627 188.814Q-16.9441 189.015 -16.9162 189.215Q-16.8883 189.415 -16.8512 189.612Q-16.8141 189.808 -16.7678 190.002Q-16.7216 190.196 -16.6663 190.387Q-16.611 190.577 -16.5467 190.764Q-16.4825 190.951 -16.4095 191.133Q-16.3365 191.316 -16.2548 191.494Q-16.1731 191.672 -16.083 191.845Q-15.9928 192.018 -15.8944 192.186Q-15.7959 192.354 -15.6894 192.516Q-15.5828 192.678 -15.4684 192.834Q-15.354 192.991 -15.2319 193.141Q-15.1098 193.291 -14.9804 193.434Q-14.8509 193.578 -14.7143 193.714Q-14.5777 193.851 -14.4342 193.98Q-14.2908 194.11 -14.1407 194.232Q-13.9907 194.354 -13.8344 194.468Q-13.6781 194.583 -13.5159 194.689Q-13.3537 194.796 -13.1859 194.894Q-13.0181 194.993 -12.845 195.083Q-12.6719 195.173 -12.4939 195.255Q-12.3159 195.337 -12.1333 195.41Q-11.9508 195.483 -11.7641 195.547Q-11.5773 195.611 -11.3868 195.666Q-11.1963 195.722 -11.0024 195.768Q-10.8084 195.814 -10.6115 195.851Q-10.4146 195.888 -10.215 195.916Q-10.0155 195.944 -9.81373 195.963Q-9.61198 195.981 -9.40845 195.991Q-9.20491 196 -9 196L215 196Q215.205 196 215.408 195.991Q215.612 195.981 215.814 195.963Q216.015 195.944 216.215 195.916Q216.415 195.888 216.611 195.851Q216.808 195.814 217.002 195.768Q217.196 195.722 217.387 195.666Q217.577 195.611 217.764 195.547Q217.951 195.483 218.133 195.41Q218.316 195.337 218.494 195.255Q218.672 195.173 218.845 195.083Q219.018 194.993 219.186 194.894Q219.354 194.796 219.516 194.689Q219.678 194.583 219.834 194.468Q219.991 194.354 220.141 194.232Q220.291 194.11 220.434 193.98Q220.578 193.851 220.714 193.714Q220.851 193.578 220.98 193.434Q221.11 193.291 221.232 193.141Q221.354 192.991 221.468 192.834Q221.583 192.678 221.689 192.516Q221.796 192.354 221.894 192.186Q221.993 192.018 222.083 191.845Q222.173 191.672 222.255 191.494Q222.337 191.316 222.41 191.133Q222.483 190.951 222.547 190.764Q222.611 190.577 222.666 190.387Q222.722 190.196 222.768 190.002Q222.814 189.808 222.851 189.612Q222.888 189.415 222.916 189.215Q222.944 189.016 222.963 188.814Q222.981 188.612 222.991 188.408Q223 188.205 223 188L223 -56Q223 -56.2049 222.991 -56.4085Q222.981 -56.612 222.963 -56.8137Q222.944 -57.0155 222.916 -57.215Q222.888 -57.4146 222.851 -57.6115Q222.814 -57.8084 222.768 -58.0024Q222.722 -58.1963 222.666 -58.3868Q222.611 -58.5773 222.547 -58.7641Q222.483 -58.9508 222.41 -59.1333Q222.337 -59.3159 222.255 -59.4939Q222.173 -59.6719 222.083 -59.845Q221.993 -60.0181 221.894 -60.1859Q221.796 -60.3537 221.689 -60.5159Q221.583 -60.6781 221.468 -60.8344Q221.354 -60.9907 221.232 -61.1407Q221.11 -61.2908 220.98 -61.4342Q220.851 -61.5777 220.714 -61.7143Q220.578 -61.8509 220.434 -61.9804Q220.291 -62.1098 220.141 -62.2319Q219.991 -62.354 219.834 -62.4684Q219.678 -62.5829 219.516 -62.6894Q219.354 -62.796 219.186 -62.8944Q219.018 -62.9929 218.845 -63.083Q218.672 -63.1732 218.494 -63.2548Q218.316 -63.3365 218.133 -63.4095Q217.951 -63.4825 217.764 -63.5467Q217.577 -63.611 217.387 -63.6663Q217.196 -63.7216 217.002 -63.7678Q216.808 -63.8141 216.611 -63.8512Q216.415 -63.8883 216.215 -63.9162Q216.015 -63.9441 215.814 -63.9627Q215.612 -63.9813 215.408 -63.9907Q215.205 -64 215 -64Z" clip-rule="evenodd"/>
		</clipPath>
	</defs>
	<g clip-path="url(#clip_0)">
		<path fill="rgb(131,156,171)" stroke="none" transform="translate(0 20)" d="M0.5 0L23.5 0C23.776 0 24 0.224 24 0.5L24 3.5C24 3.776 23.776 4 23.5 4L0.5 4C0.224 4 0 3.776 0 3.5L0 0.5C0 0.224 0.224 0 0.5 0ZM1 3L3.773 3L3.773 1L1 1L1 3ZM11.5 3L4.773 3L4.773 1L11.5 1L11.5 3ZM12.5 3L19.227 3L19.227 1L12.5 1L12.5 3ZM20.227 3L23 3L23 1L20.227 1L20.227 3Z" fill-rule="evenodd"/>
	</g>
	<defs>
		<clipPath id="clip_1">
			<path d="M215 -64L-9 -64Q-9.20491 -64 -9.40845 -63.9907Q-9.61198 -63.9813 -9.81373 -63.9627Q-10.0155 -63.9441 -10.215 -63.9162Q-10.4146 -63.8883 -10.6115 -63.8512Q-10.8084 -63.8141 -11.0024 -63.7678Q-11.1963 -63.7216 -11.3868 -63.6663Q-11.5773 -63.611 -11.7641 -63.5468Q-11.9508 -63.4825 -12.1333 -63.4095Q-12.3159 -63.3365 -12.4939 -63.2548Q-12.6719 -63.1732 -12.845 -63.083Q-13.0181 -62.9929 -13.1859 -62.8944Q-13.3537 -62.796 -13.5159 -62.6894Q-13.6781 -62.5829 -13.8344 -62.4684Q-13.9907 -62.354 -14.1407 -62.2319Q-14.2908 -62.1098 -14.4342 -61.9804Q-14.5777 -61.8509 -14.7143 -61.7143Q-14.8509 -61.5777 -14.9804 -61.4342Q-15.1098 -61.2908 -15.2319 -61.1407Q-15.354 -60.9907 -15.4684 -60.8344Q-15.5828 -60.6781 -15.6894 -60.5159Q-15.7959 -60.3537 -15.8944 -60.1859Q-15.9928 -60.0181 -16.083 -59.845Q-16.1731 -59.6719 -16.2548 -59.4939Q-16.3365 -59.3159 -16.4095 -59.1333Q-16.4825 -58.9508 -16.5467 -58.7641Q-16.611 -58.5773 -16.6663 -58.3868Q-16.7216 -58.1963 -16.7678 -58.0024Q-16.8141 -57.8084 -16.8512 -57.6115Q-16.8883 -57.4146 -16.9162 -57.215Q-16.9441 -57.0155 -16.9627 -56.8137Q-16.9813 -56.612 -16.9907 -56.4085Q-17 -56.2049 -17 -56L-17 188Q-17 188.205 -16.9907 188.408Q-16.9813 188.612 -16.9627 188.814Q-16.9441 189.015 -16.9162 189.215Q-16.8883 189.415 -16.8512 189.612Q-16.8141 189.808 -16.7678 190.002Q-16.7216 190.196 -16.6663 190.387Q-16.611 190.577 -16.5467 190.764Q-16.4825 190.951 -16.4095 191.133Q-16.3365 191.316 -16.2548 191.494Q-16.1731 191.672 -16.083 191.845Q-15.9928 192.018 -15.8944 192.186Q-15.7959 192.354 -15.6894 192.516Q-15.5828 192.678 -15.4684 192.834Q-15.354 192.991 -15.2319 193.141Q-15.1098 193.291 -14.9804 193.434Q-14.8509 193.578 -14.7143 193.714Q-14.5777 193.851 -14.4342 193.98Q-14.2908 194.11 -14.1407 194.232Q-13.9907 194.354 -13.8344 194.468Q-13.6781 194.583 -13.5159 194.689Q-13.3537 194.796 -13.1859 194.894Q-13.0181 194.993 -12.845 195.083Q-12.6719 195.173 -12.4939 195.255Q-12.3159 195.337 -12.1333 195.41Q-11.9508 195.483 -11.7641 195.547Q-11.5773 195.611 -11.3868 195.666Q-11.1963 195.722 -11.0024 195.768Q-10.8084 195.814 -10.6115 195.851Q-10.4146 195.888 -10.215 195.916Q-10.0155 195.944 -9.81373 195.963Q-9.61198 195.981 -9.40845 195.991Q-9.20491 196 -9 196L215 196Q215.205 196 215.408 195.991Q215.612 195.981 215.814 195.963Q216.015 195.944 216.215 195.916Q216.415 195.888 216.611 195.851Q216.808 195.814 217.002 195.768Q217.196 195.722 217.387 195.666Q217.577 195.611 217.764 195.547Q217.951 195.483 218.133 195.41Q218.316 195.337 218.494 195.255Q218.672 195.173 218.845 195.083Q219.018 194.993 219.186 194.894Q219.354 194.796 219.516 194.689Q219.678 194.583 219.834 194.468Q219.991 194.354 220.141 194.232Q220.291 194.11 220.434 193.98Q220.578 193.851 220.714 193.714Q220.851 193.578 220.98 193.434Q221.11 193.291 221.232 193.141Q221.354 192.991 221.468 192.834Q221.583 192.678 221.689 192.516Q221.796 192.354 221.894 192.186Q221.993 192.018 222.083 191.845Q222.173 191.672 222.255 191.494Q222.337 191.316 222.41 191.133Q222.483 190.951 222.547 190.764Q222.611 190.577 222.666 190.387Q222.722 190.196 222.768 190.002Q222.814 189.808 222.851 189.612Q222.888 189.415 222.916 189.215Q222.944 189.016 222.963 188.814Q222.981 188.612 222.991 188.408Q223 188.205 223 188L223 -56Q223 -56.2049 222.991 -56.4085Q222.981 -56.612 222.963 -56.8137Q222.944 -57.0155 222.916 -57.215Q222.888 -57.4146 222.851 -57.6115Q222.814 -57.8084 222.768 -58.0024Q222.722 -58.1963 222.666 -58.3868Q222.611 -58.5773 222.547 -58.7641Q222.483 -58.9508 222.41 -59.1333Q222.337 -59.3159 222.255 -59.4939Q222.173 -59.6719 222.083 -59.845Q221.993 -60.0181 221.894 -60.1859Q221.796 -60.3537 221.689 -60.5159Q221.583 -60.6781 221.468 -60.8344Q221.354 -60.9907 221.232 -61.1407Q221.11 -61.2908 220.98 -61.4342Q220.851 -61.5777 220.714 -61.7143Q220.578 -61.8509 220.434 -61.9804Q220.291 -62.1098 220.141 -62.2319Q219.991 -62.354 219.834 -62.4684Q219.678 -62.5829 219.516 -62.6894Q219.354 -62.796 219.186 -62.8944Q219.018 -62.9929 218.845 -63.083Q218.672 -63.1732 218.494 -63.2548Q218.316 -63.3365 218.133 -63.4095Q217.951 -63.4825 217.764 -63.5467Q217.577 -63.611 217.387 -63.6663Q217.196 -63.7216 217.002 -63.7678Q216.808 -63.8141 216.611 -63.8512Q216.415 -63.8883 216.215 -63.9162Q216.015 -63.9441 215.814 -63.9627Q215.612 -63.9813 215.408 -63.9907Q215.205 -64 215 -64Z" clip-rule="evenodd"/>
		</clipPath>
	</defs>
	<g clip-path="url(#clip_1)">
		<path fill="rgb(131,156,171)" stroke="none" transform="translate(7.5 0)" d="M8.499 9L0.5 9C0.224 9 0 8.776 0 8.5L0 0.5C0 0.224 0.224 0 0.5 0L8.499 0C8.775 0 8.999 0.224 8.999 0.5L8.999 2.996C8.999 2.997 9 2.999 9 3C9 3.002 8.999 3.003 8.999 3.005L8.999 8.5C8.999 8.776 8.775 9 8.499 9ZM1 2.5L7.999 2.5L7.999 1L1 1L1 2.5ZM1 8L7.999 8L7.999 3.5L1 3.5L1 8Z" fill-rule="evenodd"/>
	</g>
	<defs>
		<clipPath id="clip_2">
			<path d="M215 -64L-9 -64Q-9.20491 -64 -9.40845 -63.9907Q-9.61198 -63.9813 -9.81373 -63.9627Q-10.0155 -63.9441 -10.215 -63.9162Q-10.4146 -63.8883 -10.6115 -63.8512Q-10.8084 -63.8141 -11.0024 -63.7678Q-11.1963 -63.7216 -11.3868 -63.6663Q-11.5773 -63.611 -11.7641 -63.5468Q-11.9508 -63.4825 -12.1333 -63.4095Q-12.3159 -63.3365 -12.4939 -63.2548Q-12.6719 -63.1732 -12.845 -63.083Q-13.0181 -62.9929 -13.1859 -62.8944Q-13.3537 -62.796 -13.5159 -62.6894Q-13.6781 -62.5829 -13.8344 -62.4684Q-13.9907 -62.354 -14.1407 -62.2319Q-14.2908 -62.1098 -14.4342 -61.9804Q-14.5777 -61.8509 -14.7143 -61.7143Q-14.8509 -61.5777 -14.9804 -61.4342Q-15.1098 -61.2908 -15.2319 -61.1407Q-15.354 -60.9907 -15.4684 -60.8344Q-15.5828 -60.6781 -15.6894 -60.5159Q-15.7959 -60.3537 -15.8944 -60.1859Q-15.9928 -60.0181 -16.083 -59.845Q-16.1731 -59.6719 -16.2548 -59.4939Q-16.3365 -59.3159 -16.4095 -59.1333Q-16.4825 -58.9508 -16.5467 -58.7641Q-16.611 -58.5773 -16.6663 -58.3868Q-16.7216 -58.1963 -16.7678 -58.0024Q-16.8141 -57.8084 -16.8512 -57.6115Q-16.8883 -57.4146 -16.9162 -57.215Q-16.9441 -57.0155 -16.9627 -56.8137Q-16.9813 -56.612 -16.9907 -56.4085Q-17 -56.2049 -17 -56L-17 188Q-17 188.205 -16.9907 188.408Q-16.9813 188.612 -16.9627 188.814Q-16.9441 189.015 -16.9162 189.215Q-16.8883 189.415 -16.8512 189.612Q-16.8141 189.808 -16.7678 190.002Q-16.7216 190.196 -16.6663 190.387Q-16.611 190.577 -16.5467 190.764Q-16.4825 190.951 -16.4095 191.133Q-16.3365 191.316 -16.2548 191.494Q-16.1731 191.672 -16.083 191.845Q-15.9928 192.018 -15.8944 192.186Q-15.7959 192.354 -15.6894 192.516Q-15.5828 192.678 -15.4684 192.834Q-15.354 192.991 -15.2319 193.141Q-15.1098 193.291 -14.9804 193.434Q-14.8509 193.578 -14.7143 193.714Q-14.5777 193.851 -14.4342 193.98Q-14.2908 194.11 -14.1407 194.232Q-13.9907 194.354 -13.8344 194.468Q-13.6781 194.583 -13.5159 194.689Q-13.3537 194.796 -13.1859 194.894Q-13.0181 194.993 -12.845 195.083Q-12.6719 195.173 -12.4939 195.255Q-12.3159 195.337 -12.1333 195.41Q-11.9508 195.483 -11.7641 195.547Q-11.5773 195.611 -11.3868 195.666Q-11.1963 195.722 -11.0024 195.768Q-10.8084 195.814 -10.6115 195.851Q-10.4146 195.888 -10.215 195.916Q-10.0155 195.944 -9.81373 195.963Q-9.61198 195.981 -9.40845 195.991Q-9.20491 196 -9 196L215 196Q215.205 196 215.408 195.991Q215.612 195.981 215.814 195.963Q216.015 195.944 216.215 195.916Q216.415 195.888 216.611 195.851Q216.808 195.814 217.002 195.768Q217.196 195.722 217.387 195.666Q217.577 195.611 217.764 195.547Q217.951 195.483 218.133 195.41Q218.316 195.337 218.494 195.255Q218.672 195.173 218.845 195.083Q219.018 194.993 219.186 194.894Q219.354 194.796 219.516 194.689Q219.678 194.583 219.834 194.468Q219.991 194.354 220.141 194.232Q220.291 194.11 220.434 193.98Q220.578 193.851 220.714 193.714Q220.851 193.578 220.98 193.434Q221.11 193.291 221.232 193.141Q221.354 192.991 221.468 192.834Q221.583 192.678 221.689 192.516Q221.796 192.354 221.894 192.186Q221.993 192.018 222.083 191.845Q222.173 191.672 222.255 191.494Q222.337 191.316 222.41 191.133Q222.483 190.951 222.547 190.764Q222.611 190.577 222.666 190.387Q222.722 190.196 222.768 190.002Q222.814 189.808 222.851 189.612Q222.888 189.415 222.916 189.215Q222.944 189.016 222.963 188.814Q222.981 188.612 222.991 188.408Q223 188.205 223 188L223 -56Q223 -56.2049 222.991 -56.4085Q222.981 -56.612 222.963 -56.8137Q222.944 -57.0155 222.916 -57.215Q222.888 -57.4146 222.851 -57.6115Q222.814 -57.8084 222.768 -58.0024Q222.722 -58.1963 222.666 -58.3868Q222.611 -58.5773 222.547 -58.7641Q222.483 -58.9508 222.41 -59.1333Q222.337 -59.3159 222.255 -59.4939Q222.173 -59.6719 222.083 -59.845Q221.993 -60.0181 221.894 -60.1859Q221.796 -60.3537 221.689 -60.5159Q221.583 -60.6781 221.468 -60.8344Q221.354 -60.9907 221.232 -61.1407Q221.11 -61.2908 220.98 -61.4342Q220.851 -61.5777 220.714 -61.7143Q220.578 -61.8509 220.434 -61.9804Q220.291 -62.1098 220.141 -62.2319Q219.991 -62.354 219.834 -62.4684Q219.678 -62.5829 219.516 -62.6894Q219.354 -62.796 219.186 -62.8944Q219.018 -62.9929 218.845 -63.083Q218.672 -63.1732 218.494 -63.2548Q218.316 -63.3365 218.133 -63.4095Q217.951 -63.4825 217.764 -63.5467Q217.577 -63.611 217.387 -63.6663Q217.196 -63.7216 217.002 -63.7678Q216.808 -63.8141 216.611 -63.8512Q216.415 -63.8883 216.215 -63.9162Q216.015 -63.9441 215.814 -63.9627Q215.612 -63.9813 215.408 -63.9907Q215.205 -64 215 -64Z" clip-rule="evenodd"/>
		</clipPath>
	</defs>
	<g clip-path="url(#clip_2)">
		<path fill="rgb(131,156,171)" stroke="none" transform="translate(11 4.5)" d="M1.5 0L0.5 0C0.224 0 0 0.224 0 0.5C0 0.776 0.224 1 0.5 1L1.5 1C1.776 1 2 0.776 2 0.5C2 0.224 1.776 0 1.5 0"/>
	</g>
	<defs>
		<clipPath id="clip_3">
			<path d="M215 -64L-9 -64Q-9.20491 -64 -9.40845 -63.9907Q-9.61198 -63.9813 -9.81373 -63.9627Q-10.0155 -63.9441 -10.215 -63.9162Q-10.4146 -63.8883 -10.6115 -63.8512Q-10.8084 -63.8141 -11.0024 -63.7678Q-11.1963 -63.7216 -11.3868 -63.6663Q-11.5773 -63.611 -11.7641 -63.5468Q-11.9508 -63.4825 -12.1333 -63.4095Q-12.3159 -63.3365 -12.4939 -63.2548Q-12.6719 -63.1732 -12.845 -63.083Q-13.0181 -62.9929 -13.1859 -62.8944Q-13.3537 -62.796 -13.5159 -62.6894Q-13.6781 -62.5829 -13.8344 -62.4684Q-13.9907 -62.354 -14.1407 -62.2319Q-14.2908 -62.1098 -14.4342 -61.9804Q-14.5777 -61.8509 -14.7143 -61.7143Q-14.8509 -61.5777 -14.9804 -61.4342Q-15.1098 -61.2908 -15.2319 -61.1407Q-15.354 -60.9907 -15.4684 -60.8344Q-15.5828 -60.6781 -15.6894 -60.5159Q-15.7959 -60.3537 -15.8944 -60.1859Q-15.9928 -60.0181 -16.083 -59.845Q-16.1731 -59.6719 -16.2548 -59.4939Q-16.3365 -59.3159 -16.4095 -59.1333Q-16.4825 -58.9508 -16.5467 -58.7641Q-16.611 -58.5773 -16.6663 -58.3868Q-16.7216 -58.1963 -16.7678 -58.0024Q-16.8141 -57.8084 -16.8512 -57.6115Q-16.8883 -57.4146 -16.9162 -57.215Q-16.9441 -57.0155 -16.9627 -56.8137Q-16.9813 -56.612 -16.9907 -56.4085Q-17 -56.2049 -17 -56L-17 188Q-17 188.205 -16.9907 188.408Q-16.9813 188.612 -16.9627 188.814Q-16.9441 189.015 -16.9162 189.215Q-16.8883 189.415 -16.8512 189.612Q-16.8141 189.808 -16.7678 190.002Q-16.7216 190.196 -16.6663 190.387Q-16.611 190.577 -16.5467 190.764Q-16.4825 190.951 -16.4095 191.133Q-16.3365 191.316 -16.2548 191.494Q-16.1731 191.672 -16.083 191.845Q-15.9928 192.018 -15.8944 192.186Q-15.7959 192.354 -15.6894 192.516Q-15.5828 192.678 -15.4684 192.834Q-15.354 192.991 -15.2319 193.141Q-15.1098 193.291 -14.9804 193.434Q-14.8509 193.578 -14.7143 193.714Q-14.5777 193.851 -14.4342 193.98Q-14.2908 194.11 -14.1407 194.232Q-13.9907 194.354 -13.8344 194.468Q-13.6781 194.583 -13.5159 194.689Q-13.3537 194.796 -13.1859 194.894Q-13.0181 194.993 -12.845 195.083Q-12.6719 195.173 -12.4939 195.255Q-12.3159 195.337 -12.1333 195.41Q-11.9508 195.483 -11.7641 195.547Q-11.5773 195.611 -11.3868 195.666Q-11.1963 195.722 -11.0024 195.768Q-10.8084 195.814 -10.6115 195.851Q-10.4146 195.888 -10.215 195.916Q-10.0155 195.944 -9.81373 195.963Q-9.61198 195.981 -9.40845 195.991Q-9.20491 196 -9 196L215 196Q215.205 196 215.408 195.991Q215.612 195.981 215.814 195.963Q216.015 195.944 216.215 195.916Q216.415 195.888 216.611 195.851Q216.808 195.814 217.002 195.768Q217.196 195.722 217.387 195.666Q217.577 195.611 217.764 195.547Q217.951 195.483 218.133 195.41Q218.316 195.337 218.494 195.255Q218.672 195.173 218.845 195.083Q219.018 194.993 219.186 194.894Q219.354 194.796 219.516 194.689Q219.678 194.583 219.834 194.468Q219.991 194.354 220.141 194.232Q220.291 194.11 220.434 193.98Q220.578 193.851 220.714 193.714Q220.851 193.578 220.98 193.434Q221.11 193.291 221.232 193.141Q221.354 192.991 221.468 192.834Q221.583 192.678 221.689 192.516Q221.796 192.354 221.894 192.186Q221.993 192.018 222.083 191.845Q222.173 191.672 222.255 191.494Q222.337 191.316 222.41 191.133Q222.483 190.951 222.547 190.764Q222.611 190.577 222.666 190.387Q222.722 190.196 222.768 190.002Q222.814 189.808 222.851 189.612Q222.888 189.415 222.916 189.215Q222.944 189.016 222.963 188.814Q222.981 188.612 222.991 188.408Q223 188.205 223 188L223 -56Q223 -56.2049 222.991 -56.4085Q222.981 -56.612 222.963 -56.8137Q222.944 -57.0155 222.916 -57.215Q222.888 -57.4146 222.851 -57.6115Q222.814 -57.8084 222.768 -58.0024Q222.722 -58.1963 222.666 -58.3868Q222.611 -58.5773 222.547 -58.7641Q222.483 -58.9508 222.41 -59.1333Q222.337 -59.3159 222.255 -59.4939Q222.173 -59.6719 222.083 -59.845Q221.993 -60.0181 221.894 -60.1859Q221.796 -60.3537 221.689 -60.5159Q221.583 -60.6781 221.468 -60.8344Q221.354 -60.9907 221.232 -61.1407Q221.11 -61.2908 220.98 -61.4342Q220.851 -61.5777 220.714 -61.7143Q220.578 -61.8509 220.434 -61.9804Q220.291 -62.1098 220.141 -62.2319Q219.991 -62.354 219.834 -62.4684Q219.678 -62.5829 219.516 -62.6894Q219.354 -62.796 219.186 -62.8944Q219.018 -62.9929 218.845 -63.083Q218.672 -63.1732 218.494 -63.2548Q218.316 -63.3365 218.133 -63.4095Q217.951 -63.4825 217.764 -63.5467Q217.577 -63.611 217.387 -63.6663Q217.196 -63.7216 217.002 -63.7678Q216.808 -63.8141 216.611 -63.8512Q216.415 -63.8883 216.215 -63.9162Q216.015 -63.9441 215.814 -63.9627Q215.612 -63.9813 215.408 -63.9907Q215.205 -64 215 -64Z" clip-rule="evenodd"/>
		</clipPath>
	</defs>
	<g clip-path="url(#clip_3)">
		<path fill="rgb(131,156,171)" stroke="none" transform="translate(2.5 10)" d="M8.499 9L0.5 9C0.224 9 0 8.776 0 8.5L0 0.5C0 0.224 0.224 0 0.5 0L8.499 0C8.775 0 8.999 0.224 8.999 0.5L8.999 2.996C8.999 2.997 9 2.999 9 3C9 3.002 8.999 3.003 8.999 3.005L8.999 8.5C8.999 8.776 8.775 9 8.499 9ZM1 2.5L7.999 2.5L7.999 1L1 1L1 2.5ZM1 8L7.999 8L7.999 3.5L1 3.5L1 8Z" fill-rule="evenodd"/>
	</g>
	<defs>
		<clipPath id="clip_4">
			<path d="M215 -64L-9 -64Q-9.20491 -64 -9.40845 -63.9907Q-9.61198 -63.9813 -9.81373 -63.9627Q-10.0155 -63.9441 -10.215 -63.9162Q-10.4146 -63.8883 -10.6115 -63.8512Q-10.8084 -63.8141 -11.0024 -63.7678Q-11.1963 -63.7216 -11.3868 -63.6663Q-11.5773 -63.611 -11.7641 -63.5468Q-11.9508 -63.4825 -12.1333 -63.4095Q-12.3159 -63.3365 -12.4939 -63.2548Q-12.6719 -63.1732 -12.845 -63.083Q-13.0181 -62.9929 -13.1859 -62.8944Q-13.3537 -62.796 -13.5159 -62.6894Q-13.6781 -62.5829 -13.8344 -62.4684Q-13.9907 -62.354 -14.1407 -62.2319Q-14.2908 -62.1098 -14.4342 -61.9804Q-14.5777 -61.8509 -14.7143 -61.7143Q-14.8509 -61.5777 -14.9804 -61.4342Q-15.1098 -61.2908 -15.2319 -61.1407Q-15.354 -60.9907 -15.4684 -60.8344Q-15.5828 -60.6781 -15.6894 -60.5159Q-15.7959 -60.3537 -15.8944 -60.1859Q-15.9928 -60.0181 -16.083 -59.845Q-16.1731 -59.6719 -16.2548 -59.4939Q-16.3365 -59.3159 -16.4095 -59.1333Q-16.4825 -58.9508 -16.5467 -58.7641Q-16.611 -58.5773 -16.6663 -58.3868Q-16.7216 -58.1963 -16.7678 -58.0024Q-16.8141 -57.8084 -16.8512 -57.6115Q-16.8883 -57.4146 -16.9162 -57.215Q-16.9441 -57.0155 -16.9627 -56.8137Q-16.9813 -56.612 -16.9907 -56.4085Q-17 -56.2049 -17 -56L-17 188Q-17 188.205 -16.9907 188.408Q-16.9813 188.612 -16.9627 188.814Q-16.9441 189.015 -16.9162 189.215Q-16.8883 189.415 -16.8512 189.612Q-16.8141 189.808 -16.7678 190.002Q-16.7216 190.196 -16.6663 190.387Q-16.611 190.577 -16.5467 190.764Q-16.4825 190.951 -16.4095 191.133Q-16.3365 191.316 -16.2548 191.494Q-16.1731 191.672 -16.083 191.845Q-15.9928 192.018 -15.8944 192.186Q-15.7959 192.354 -15.6894 192.516Q-15.5828 192.678 -15.4684 192.834Q-15.354 192.991 -15.2319 193.141Q-15.1098 193.291 -14.9804 193.434Q-14.8509 193.578 -14.7143 193.714Q-14.5777 193.851 -14.4342 193.98Q-14.2908 194.11 -14.1407 194.232Q-13.9907 194.354 -13.8344 194.468Q-13.6781 194.583 -13.5159 194.689Q-13.3537 194.796 -13.1859 194.894Q-13.0181 194.993 -12.845 195.083Q-12.6719 195.173 -12.4939 195.255Q-12.3159 195.337 -12.1333 195.41Q-11.9508 195.483 -11.7641 195.547Q-11.5773 195.611 -11.3868 195.666Q-11.1963 195.722 -11.0024 195.768Q-10.8084 195.814 -10.6115 195.851Q-10.4146 195.888 -10.215 195.916Q-10.0155 195.944 -9.81373 195.963Q-9.61198 195.981 -9.40845 195.991Q-9.20491 196 -9 196L215 196Q215.205 196 215.408 195.991Q215.612 195.981 215.814 195.963Q216.015 195.944 216.215 195.916Q216.415 195.888 216.611 195.851Q216.808 195.814 217.002 195.768Q217.196 195.722 217.387 195.666Q217.577 195.611 217.764 195.547Q217.951 195.483 218.133 195.41Q218.316 195.337 218.494 195.255Q218.672 195.173 218.845 195.083Q219.018 194.993 219.186 194.894Q219.354 194.796 219.516 194.689Q219.678 194.583 219.834 194.468Q219.991 194.354 220.141 194.232Q220.291 194.11 220.434 193.98Q220.578 193.851 220.714 193.714Q220.851 193.578 220.98 193.434Q221.11 193.291 221.232 193.141Q221.354 192.991 221.468 192.834Q221.583 192.678 221.689 192.516Q221.796 192.354 221.894 192.186Q221.993 192.018 222.083 191.845Q222.173 191.672 222.255 191.494Q222.337 191.316 222.41 191.133Q222.483 190.951 222.547 190.764Q222.611 190.577 222.666 190.387Q222.722 190.196 222.768 190.002Q222.814 189.808 222.851 189.612Q222.888 189.415 222.916 189.215Q222.944 189.016 222.963 188.814Q222.981 188.612 222.991 188.408Q223 188.205 223 188L223 -56Q223 -56.2049 222.991 -56.4085Q222.981 -56.612 222.963 -56.8137Q222.944 -57.0155 222.916 -57.215Q222.888 -57.4146 222.851 -57.6115Q222.814 -57.8084 222.768 -58.0024Q222.722 -58.1963 222.666 -58.3868Q222.611 -58.5773 222.547 -58.7641Q222.483 -58.9508 222.41 -59.1333Q222.337 -59.3159 222.255 -59.4939Q222.173 -59.6719 222.083 -59.845Q221.993 -60.0181 221.894 -60.1859Q221.796 -60.3537 221.689 -60.5159Q221.583 -60.6781 221.468 -60.8344Q221.354 -60.9907 221.232 -61.1407Q221.11 -61.2908 220.98 -61.4342Q220.851 -61.5777 220.714 -61.7143Q220.578 -61.8509 220.434 -61.9804Q220.291 -62.1098 220.141 -62.2319Q219.991 -62.354 219.834 -62.4684Q219.678 -62.5829 219.516 -62.6894Q219.354 -62.796 219.186 -62.8944Q219.018 -62.9929 218.845 -63.083Q218.672 -63.1732 218.494 -63.2548Q218.316 -63.3365 218.133 -63.4095Q217.951 -63.4825 217.764 -63.5467Q217.577 -63.611 217.387 -63.6663Q217.196 -63.7216 217.002 -63.7678Q216.808 -63.8141 216.611 -63.8512Q216.415 -63.8883 216.215 -63.9162Q216.015 -63.9441 215.814 -63.9627Q215.612 -63.9813 215.408 -63.9907Q215.205 -64 215 -64Z" clip-rule="evenodd"/>
		</clipPath>
	</defs>
	<g clip-path="url(#clip_4)">
		<path fill="rgb(131,156,171)" stroke="none" transform="translate(6 14.5)" d="M1.5 0L0.5 0C0.224 0 0 0.224 0 0.5C0 0.776 0.224 1 0.5 1L1.5 1C1.776 1 2 0.776 2 0.5C2 0.224 1.776 0 1.5 0"/>
	</g>
	<defs>
		<clipPath id="clip_5">
			<path d="M215 -64L-9 -64Q-9.20491 -64 -9.40845 -63.9907Q-9.61198 -63.9813 -9.81373 -63.9627Q-10.0155 -63.9441 -10.215 -63.9162Q-10.4146 -63.8883 -10.6115 -63.8512Q-10.8084 -63.8141 -11.0024 -63.7678Q-11.1963 -63.7216 -11.3868 -63.6663Q-11.5773 -63.611 -11.7641 -63.5468Q-11.9508 -63.4825 -12.1333 -63.4095Q-12.3159 -63.3365 -12.4939 -63.2548Q-12.6719 -63.1732 -12.845 -63.083Q-13.0181 -62.9929 -13.1859 -62.8944Q-13.3537 -62.796 -13.5159 -62.6894Q-13.6781 -62.5829 -13.8344 -62.4684Q-13.9907 -62.354 -14.1407 -62.2319Q-14.2908 -62.1098 -14.4342 -61.9804Q-14.5777 -61.8509 -14.7143 -61.7143Q-14.8509 -61.5777 -14.9804 -61.4342Q-15.1098 -61.2908 -15.2319 -61.1407Q-15.354 -60.9907 -15.4684 -60.8344Q-15.5828 -60.6781 -15.6894 -60.5159Q-15.7959 -60.3537 -15.8944 -60.1859Q-15.9928 -60.0181 -16.083 -59.845Q-16.1731 -59.6719 -16.2548 -59.4939Q-16.3365 -59.3159 -16.4095 -59.1333Q-16.4825 -58.9508 -16.5467 -58.7641Q-16.611 -58.5773 -16.6663 -58.3868Q-16.7216 -58.1963 -16.7678 -58.0024Q-16.8141 -57.8084 -16.8512 -57.6115Q-16.8883 -57.4146 -16.9162 -57.215Q-16.9441 -57.0155 -16.9627 -56.8137Q-16.9813 -56.612 -16.9907 -56.4085Q-17 -56.2049 -17 -56L-17 188Q-17 188.205 -16.9907 188.408Q-16.9813 188.612 -16.9627 188.814Q-16.9441 189.015 -16.9162 189.215Q-16.8883 189.415 -16.8512 189.612Q-16.8141 189.808 -16.7678 190.002Q-16.7216 190.196 -16.6663 190.387Q-16.611 190.577 -16.5467 190.764Q-16.4825 190.951 -16.4095 191.133Q-16.3365 191.316 -16.2548 191.494Q-16.1731 191.672 -16.083 191.845Q-15.9928 192.018 -15.8944 192.186Q-15.7959 192.354 -15.6894 192.516Q-15.5828 192.678 -15.4684 192.834Q-15.354 192.991 -15.2319 193.141Q-15.1098 193.291 -14.9804 193.434Q-14.8509 193.578 -14.7143 193.714Q-14.5777 193.851 -14.4342 193.98Q-14.2908 194.11 -14.1407 194.232Q-13.9907 194.354 -13.8344 194.468Q-13.6781 194.583 -13.5159 194.689Q-13.3537 194.796 -13.1859 194.894Q-13.0181 194.993 -12.845 195.083Q-12.6719 195.173 -12.4939 195.255Q-12.3159 195.337 -12.1333 195.41Q-11.9508 195.483 -11.7641 195.547Q-11.5773 195.611 -11.3868 195.666Q-11.1963 195.722 -11.0024 195.768Q-10.8084 195.814 -10.6115 195.851Q-10.4146 195.888 -10.215 195.916Q-10.0155 195.944 -9.81373 195.963Q-9.61198 195.981 -9.40845 195.991Q-9.20491 196 -9 196L215 196Q215.205 196 215.408 195.991Q215.612 195.981 215.814 195.963Q216.015 195.944 216.215 195.916Q216.415 195.888 216.611 195.851Q216.808 195.814 217.002 195.768Q217.196 195.722 217.387 195.666Q217.577 195.611 217.764 195.547Q217.951 195.483 218.133 195.41Q218.316 195.337 218.494 195.255Q218.672 195.173 218.845 195.083Q219.018 194.993 219.186 194.894Q219.354 194.796 219.516 194.689Q219.678 194.583 219.834 194.468Q219.991 194.354 220.141 194.232Q220.291 194.11 220.434 193.98Q220.578 193.851 220.714 193.714Q220.851 193.578 220.98 193.434Q221.11 193.291 221.232 193.141Q221.354 192.991 221.468 192.834Q221.583 192.678 221.689 192.516Q221.796 192.354 221.894 192.186Q221.993 192.018 222.083 191.845Q222.173 191.672 222.255 191.494Q222.337 191.316 222.41 191.133Q222.483 190.951 222.547 190.764Q222.611 190.577 222.666 190.387Q222.722 190.196 222.768 190.002Q222.814 189.808 222.851 189.612Q222.888 189.415 222.916 189.215Q222.944 189.016 222.963 188.814Q222.981 188.612 222.991 188.408Q223 188.205 223 188L223 -56Q223 -56.2049 222.991 -56.4085Q222.981 -56.612 222.963 -56.8137Q222.944 -57.0155 222.916 -57.215Q222.888 -57.4146 222.851 -57.6115Q222.814 -57.8084 222.768 -58.0024Q222.722 -58.1963 222.666 -58.3868Q222.611 -58.5773 222.547 -58.7641Q222.483 -58.9508 222.41 -59.1333Q222.337 -59.3159 222.255 -59.4939Q222.173 -59.6719 222.083 -59.845Q221.993 -60.0181 221.894 -60.1859Q221.796 -60.3537 221.689 -60.5159Q221.583 -60.6781 221.468 -60.8344Q221.354 -60.9907 221.232 -61.1407Q221.11 -61.2908 220.98 -61.4342Q220.851 -61.5777 220.714 -61.7143Q220.578 -61.8509 220.434 -61.9804Q220.291 -62.1098 220.141 -62.2319Q219.991 -62.354 219.834 -62.4684Q219.678 -62.5829 219.516 -62.6894Q219.354 -62.796 219.186 -62.8944Q219.018 -62.9929 218.845 -63.083Q218.672 -63.1732 218.494 -63.2548Q218.316 -63.3365 218.133 -63.4095Q217.951 -63.4825 217.764 -63.5467Q217.577 -63.611 217.387 -63.6663Q217.196 -63.7216 217.002 -63.7678Q216.808 -63.8141 216.611 -63.8512Q216.415 -63.8883 216.215 -63.9162Q216.015 -63.9441 215.814 -63.9627Q215.612 -63.9813 215.408 -63.9907Q215.205 -64 215 -64Z" clip-rule="evenodd"/>
		</clipPath>
	</defs>
	<g clip-path="url(#clip_5)">
		<path fill="rgb(131,156,171)" stroke="none" transform="translate(12.5 10)" d="M0 8.5L0 0.5C0 0.224 0.224 0 0.5 0L8.499 0C8.775 0 8.999 0.224 8.999 0.5L8.999 2.996C8.999 2.997 9 2.999 9 3C9 3.002 8.999 3.003 8.999 3.005L8.999 8.5C8.999 8.776 8.775 9 8.499 9L0.5 9C0.224 9 0 8.776 0 8.5ZM1 2.5L7.999 2.5L7.999 1L1 1L1 2.5ZM1 8L7.999 8L7.999 3.5L1 3.5L1 8Z" fill-rule="evenodd"/>
	</g>
	<defs>
		<clipPath id="clip_6">
			<path d="M215 -64L-9 -64Q-9.20491 -64 -9.40845 -63.9907Q-9.61198 -63.9813 -9.81373 -63.9627Q-10.0155 -63.9441 -10.215 -63.9162Q-10.4146 -63.8883 -10.6115 -63.8512Q-10.8084 -63.8141 -11.0024 -63.7678Q-11.1963 -63.7216 -11.3868 -63.6663Q-11.5773 -63.611 -11.7641 -63.5468Q-11.9508 -63.4825 -12.1333 -63.4095Q-12.3159 -63.3365 -12.4939 -63.2548Q-12.6719 -63.1732 -12.845 -63.083Q-13.0181 -62.9929 -13.1859 -62.8944Q-13.3537 -62.796 -13.5159 -62.6894Q-13.6781 -62.5829 -13.8344 -62.4684Q-13.9907 -62.354 -14.1407 -62.2319Q-14.2908 -62.1098 -14.4342 -61.9804Q-14.5777 -61.8509 -14.7143 -61.7143Q-14.8509 -61.5777 -14.9804 -61.4342Q-15.1098 -61.2908 -15.2319 -61.1407Q-15.354 -60.9907 -15.4684 -60.8344Q-15.5828 -60.6781 -15.6894 -60.5159Q-15.7959 -60.3537 -15.8944 -60.1859Q-15.9928 -60.0181 -16.083 -59.845Q-16.1731 -59.6719 -16.2548 -59.4939Q-16.3365 -59.3159 -16.4095 -59.1333Q-16.4825 -58.9508 -16.5467 -58.7641Q-16.611 -58.5773 -16.6663 -58.3868Q-16.7216 -58.1963 -16.7678 -58.0024Q-16.8141 -57.8084 -16.8512 -57.6115Q-16.8883 -57.4146 -16.9162 -57.215Q-16.9441 -57.0155 -16.9627 -56.8137Q-16.9813 -56.612 -16.9907 -56.4085Q-17 -56.2049 -17 -56L-17 188Q-17 188.205 -16.9907 188.408Q-16.9813 188.612 -16.9627 188.814Q-16.9441 189.015 -16.9162 189.215Q-16.8883 189.415 -16.8512 189.612Q-16.8141 189.808 -16.7678 190.002Q-16.7216 190.196 -16.6663 190.387Q-16.611 190.577 -16.5467 190.764Q-16.4825 190.951 -16.4095 191.133Q-16.3365 191.316 -16.2548 191.494Q-16.1731 191.672 -16.083 191.845Q-15.9928 192.018 -15.8944 192.186Q-15.7959 192.354 -15.6894 192.516Q-15.5828 192.678 -15.4684 192.834Q-15.354 192.991 -15.2319 193.141Q-15.1098 193.291 -14.9804 193.434Q-14.8509 193.578 -14.7143 193.714Q-14.5777 193.851 -14.4342 193.98Q-14.2908 194.11 -14.1407 194.232Q-13.9907 194.354 -13.8344 194.468Q-13.6781 194.583 -13.5159 194.689Q-13.3537 194.796 -13.1859 194.894Q-13.0181 194.993 -12.845 195.083Q-12.6719 195.173 -12.4939 195.255Q-12.3159 195.337 -12.1333 195.41Q-11.9508 195.483 -11.7641 195.547Q-11.5773 195.611 -11.3868 195.666Q-11.1963 195.722 -11.0024 195.768Q-10.8084 195.814 -10.6115 195.851Q-10.4146 195.888 -10.215 195.916Q-10.0155 195.944 -9.81373 195.963Q-9.61198 195.981 -9.40845 195.991Q-9.20491 196 -9 196L215 196Q215.205 196 215.408 195.991Q215.612 195.981 215.814 195.963Q216.015 195.944 216.215 195.916Q216.415 195.888 216.611 195.851Q216.808 195.814 217.002 195.768Q217.196 195.722 217.387 195.666Q217.577 195.611 217.764 195.547Q217.951 195.483 218.133 195.41Q218.316 195.337 218.494 195.255Q218.672 195.173 218.845 195.083Q219.018 194.993 219.186 194.894Q219.354 194.796 219.516 194.689Q219.678 194.583 219.834 194.468Q219.991 194.354 220.141 194.232Q220.291 194.11 220.434 193.98Q220.578 193.851 220.714 193.714Q220.851 193.578 220.98 193.434Q221.11 193.291 221.232 193.141Q221.354 192.991 221.468 192.834Q221.583 192.678 221.689 192.516Q221.796 192.354 221.894 192.186Q221.993 192.018 222.083 191.845Q222.173 191.672 222.255 191.494Q222.337 191.316 222.41 191.133Q222.483 190.951 222.547 190.764Q222.611 190.577 222.666 190.387Q222.722 190.196 222.768 190.002Q222.814 189.808 222.851 189.612Q222.888 189.415 222.916 189.215Q222.944 189.016 222.963 188.814Q222.981 188.612 222.991 188.408Q223 188.205 223 188L223 -56Q223 -56.2049 222.991 -56.4085Q222.981 -56.612 222.963 -56.8137Q222.944 -57.0155 222.916 -57.215Q222.888 -57.4146 222.851 -57.6115Q222.814 -57.8084 222.768 -58.0024Q222.722 -58.1963 222.666 -58.3868Q222.611 -58.5773 222.547 -58.7641Q222.483 -58.9508 222.41 -59.1333Q222.337 -59.3159 222.255 -59.4939Q222.173 -59.6719 222.083 -59.845Q221.993 -60.0181 221.894 -60.1859Q221.796 -60.3537 221.689 -60.5159Q221.583 -60.6781 221.468 -60.8344Q221.354 -60.9907 221.232 -61.1407Q221.11 -61.2908 220.98 -61.4342Q220.851 -61.5777 220.714 -61.7143Q220.578 -61.8509 220.434 -61.9804Q220.291 -62.1098 220.141 -62.2319Q219.991 -62.354 219.834 -62.4684Q219.678 -62.5829 219.516 -62.6894Q219.354 -62.796 219.186 -62.8944Q219.018 -62.9929 218.845 -63.083Q218.672 -63.1732 218.494 -63.2548Q218.316 -63.3365 218.133 -63.4095Q217.951 -63.4825 217.764 -63.5467Q217.577 -63.611 217.387 -63.6663Q217.196 -63.7216 217.002 -63.7678Q216.808 -63.8141 216.611 -63.8512Q216.415 -63.8883 216.215 -63.9162Q216.015 -63.9441 215.814 -63.9627Q215.612 -63.9813 215.408 -63.9907Q215.205 -64 215 -64Z" clip-rule="evenodd"/>
		</clipPath>
	</defs>
	<g clip-path="url(#clip_6)">
		<path fill="rgb(131,156,171)" stroke="none" transform="translate(16 14.5)" d="M1.5 0L0.5 0C0.224 0 0 0.224 0 0.5C0 0.776 0.224 1 0.5 1L1.5 1C1.776 1 2 0.776 2 0.5C2 0.224 1.776 0 1.5 0"/>
	</g>

</svg>