<?xml version="1.0" encoding="utf-8" ?>
<svg xmlns="http://www.w3.org/2000/svg" xmlns:xlink="http://www.w3.org/1999/xlink" width="24" height="24">
	<defs>
		<clipPath id="clip_0">
			<path d="M193 -136L-31 -136Q-31.2049 -136 -31.4084 -135.991Q-31.612 -135.981 -31.8137 -135.963Q-32.0155 -135.944 -32.215 -135.916Q-32.4146 -135.888 -32.6115 -135.851Q-32.8084 -135.814 -33.0024 -135.768Q-33.1963 -135.722 -33.3868 -135.666Q-33.5773 -135.611 -33.7641 -135.547Q-33.9508 -135.483 -34.1333 -135.41Q-34.3159 -135.336 -34.4939 -135.255Q-34.6719 -135.173 -34.845 -135.083Q-35.0181 -134.993 -35.1859 -134.894Q-35.3537 -134.796 -35.5159 -134.689Q-35.6782 -134.583 -35.8344 -134.468Q-35.9907 -134.354 -36.1407 -134.232Q-36.2908 -134.11 -36.4342 -133.98Q-36.5777 -133.851 -36.7143 -133.714Q-36.8509 -133.578 -36.9804 -133.434Q-37.1098 -133.291 -37.2319 -133.141Q-37.354 -132.991 -37.4684 -132.834Q-37.5829 -132.678 -37.6894 -132.516Q-37.7959 -132.354 -37.8944 -132.186Q-37.9928 -132.018 -38.083 -131.845Q-38.1731 -131.672 -38.2548 -131.494Q-38.3365 -131.316 -38.4095 -131.133Q-38.4825 -130.951 -38.5467 -130.764Q-38.611 -130.577 -38.6663 -130.387Q-38.7216 -130.196 -38.7678 -130.002Q-38.8141 -129.808 -38.8512 -129.611Q-38.8883 -129.415 -38.9162 -129.215Q-38.9441 -129.015 -38.9627 -128.814Q-38.9814 -128.612 -38.9907 -128.408Q-39 -128.205 -39 -128L-39 116Q-39 116.205 -38.9907 116.408Q-38.9814 116.612 -38.9627 116.814Q-38.9441 117.015 -38.9162 117.215Q-38.8883 117.415 -38.8512 117.612Q-38.8141 117.808 -38.7678 118.002Q-38.7216 118.196 -38.6663 118.387Q-38.611 118.577 -38.5467 118.764Q-38.4825 118.951 -38.4095 119.133Q-38.3365 119.316 -38.2548 119.494Q-38.1731 119.672 -38.083 119.845Q-37.9928 120.018 -37.8944 120.186Q-37.7959 120.354 -37.6894 120.516Q-37.5828 120.678 -37.4684 120.834Q-37.354 120.991 -37.2319 121.141Q-37.1098 121.291 -36.9804 121.434Q-36.8509 121.578 -36.7143 121.714Q-36.5777 121.851 -36.4342 121.98Q-36.2908 122.11 -36.1407 122.232Q-35.9907 122.354 -35.8344 122.468Q-35.6782 122.583 -35.5159 122.689Q-35.3537 122.796 -35.1859 122.894Q-35.0181 122.993 -34.845 123.083Q-34.6719 123.173 -34.4939 123.255Q-34.3159 123.336 -34.1333 123.41Q-33.9508 123.483 -33.7641 123.547Q-33.5773 123.611 -33.3868 123.666Q-33.1963 123.722 -33.0024 123.768Q-32.8084 123.814 -32.6115 123.851Q-32.4146 123.888 -32.215 123.916Q-32.0155 123.944 -31.8137 123.963Q-31.612 123.981 -31.4084 123.991Q-31.2049 124 -31 124L193 124Q193.205 124 193.408 123.991Q193.612 123.981 193.814 123.963Q194.016 123.944 194.215 123.916Q194.415 123.888 194.612 123.851Q194.808 123.814 195.002 123.768Q195.196 123.722 195.387 123.666Q195.577 123.611 195.764 123.547Q195.951 123.483 196.133 123.41Q196.316 123.336 196.494 123.255Q196.672 123.173 196.845 123.083Q197.018 122.993 197.186 122.894Q197.354 122.796 197.516 122.689Q197.678 122.583 197.834 122.468Q197.991 122.354 198.141 122.232Q198.291 122.11 198.434 121.98Q198.578 121.851 198.714 121.714Q198.851 121.578 198.98 121.434Q199.11 121.291 199.232 121.141Q199.354 120.991 199.468 120.834Q199.583 120.678 199.689 120.516Q199.796 120.354 199.894 120.186Q199.993 120.018 200.083 119.845Q200.173 119.672 200.255 119.494Q200.337 119.316 200.41 119.133Q200.483 118.951 200.547 118.764Q200.611 118.577 200.666 118.387Q200.722 118.196 200.768 118.002Q200.814 117.808 200.851 117.612Q200.888 117.415 200.916 117.215Q200.944 117.015 200.963 116.814Q200.981 116.612 200.991 116.408Q201 116.205 201 116L201 -128Q201 -128.205 200.991 -128.408Q200.981 -128.612 200.963 -128.814Q200.944 -129.016 200.916 -129.215Q200.888 -129.415 200.851 -129.612Q200.814 -129.808 200.768 -130.002Q200.722 -130.196 200.666 -130.387Q200.611 -130.577 200.547 -130.764Q200.483 -130.951 200.41 -131.133Q200.337 -131.316 200.255 -131.494Q200.173 -131.672 200.083 -131.845Q199.993 -132.018 199.894 -132.186Q199.796 -132.354 199.689 -132.516Q199.583 -132.678 199.468 -132.834Q199.354 -132.991 199.232 -133.141Q199.11 -133.291 198.98 -133.434Q198.851 -133.578 198.714 -133.714Q198.578 -133.851 198.434 -133.98Q198.291 -134.11 198.141 -134.232Q197.991 -134.354 197.834 -134.468Q197.678 -134.583 197.516 -134.689Q197.354 -134.796 197.186 -134.894Q197.018 -134.993 196.845 -135.083Q196.672 -135.173 196.494 -135.255Q196.316 -135.336 196.133 -135.41Q195.951 -135.483 195.764 -135.547Q195.577 -135.611 195.387 -135.666Q195.196 -135.722 195.002 -135.768Q194.808 -135.814 194.612 -135.851Q194.415 -135.888 194.215 -135.916Q194.016 -135.944 193.814 -135.963Q193.612 -135.981 193.408 -135.991Q193.205 -136 193 -136Z" clip-rule="evenodd"/>
		</clipPath>
	</defs>
	<g clip-path="url(#clip_0)">
		<path fill="rgb(131,156,171)" stroke="none" d="M23.308 20.557L23.5 20.557C23.776 20.557 24 20.781 24 21.057L24 23.5C24 23.776 23.776 24 23.5 24L0.5 24C0.224 24 0 23.776 0 23.5L0 21.057C0 20.781 0.224 20.557 0.5 20.557L0.692 20.557L0.692 14.916L0.5 14.916C0.224 14.916 0 14.692 0 14.416C0 14.14 0.224 13.916 0.5 13.916L0.875 13.916L1.016 11.352C1.03 11.086 1.249 10.879 1.515 10.879L1.684 10.879L3.372 1L3.001 1C2.725 1 2.501 0.776 2.501 0.5C2.501 0.224 2.725 0 3.001 0L8.041 0C8.317 0 8.541 0.224 8.541 0.5C8.541 0.776 8.317 1 8.041 1L7.67 1L9.359 10.879L9.527 10.879C9.793 10.879 10.012 11.086 10.026 11.352L10.167 13.916L10.287 13.916L10.287 3.512C10.287 3.235 10.511 3.012 10.787 3.012L22.808 3.012C23.084 3.012 23.308 3.235 23.308 3.512L23.308 13.916L23.5 13.916C23.776 13.916 24 14.14 24 14.416C24 14.692 23.776 14.916 23.5 14.916L23.308 14.916L23.308 20.557ZM4.387 1L6.655 1L8.345 10.879L2.698 10.879L4.387 1ZM11.287 13.916L22.308 13.916L22.308 4.012L11.287 4.012L11.287 13.916ZM9.054 11.879L1.988 11.879L1.876 13.916L9.166 13.916L9.054 11.879ZM22.308 14.916L1.692 14.916L1.692 20.557L22.308 20.557L22.308 14.916ZM1 23L23 23L23 21.557L1 21.557L1 23Z" fill-rule="evenodd"/>
	</g>
	<defs>
		<clipPath id="clip_1">
			<path d="M193 -136L-31 -136Q-31.2049 -136 -31.4084 -135.991Q-31.612 -135.981 -31.8137 -135.963Q-32.0155 -135.944 -32.215 -135.916Q-32.4146 -135.888 -32.6115 -135.851Q-32.8084 -135.814 -33.0024 -135.768Q-33.1963 -135.722 -33.3868 -135.666Q-33.5773 -135.611 -33.7641 -135.547Q-33.9508 -135.483 -34.1333 -135.41Q-34.3159 -135.336 -34.4939 -135.255Q-34.6719 -135.173 -34.845 -135.083Q-35.0181 -134.993 -35.1859 -134.894Q-35.3537 -134.796 -35.5159 -134.689Q-35.6782 -134.583 -35.8344 -134.468Q-35.9907 -134.354 -36.1407 -134.232Q-36.2908 -134.11 -36.4342 -133.98Q-36.5777 -133.851 -36.7143 -133.714Q-36.8509 -133.578 -36.9804 -133.434Q-37.1098 -133.291 -37.2319 -133.141Q-37.354 -132.991 -37.4684 -132.834Q-37.5829 -132.678 -37.6894 -132.516Q-37.7959 -132.354 -37.8944 -132.186Q-37.9928 -132.018 -38.083 -131.845Q-38.1731 -131.672 -38.2548 -131.494Q-38.3365 -131.316 -38.4095 -131.133Q-38.4825 -130.951 -38.5467 -130.764Q-38.611 -130.577 -38.6663 -130.387Q-38.7216 -130.196 -38.7678 -130.002Q-38.8141 -129.808 -38.8512 -129.611Q-38.8883 -129.415 -38.9162 -129.215Q-38.9441 -129.015 -38.9627 -128.814Q-38.9814 -128.612 -38.9907 -128.408Q-39 -128.205 -39 -128L-39 116Q-39 116.205 -38.9907 116.408Q-38.9814 116.612 -38.9627 116.814Q-38.9441 117.015 -38.9162 117.215Q-38.8883 117.415 -38.8512 117.612Q-38.8141 117.808 -38.7678 118.002Q-38.7216 118.196 -38.6663 118.387Q-38.611 118.577 -38.5467 118.764Q-38.4825 118.951 -38.4095 119.133Q-38.3365 119.316 -38.2548 119.494Q-38.1731 119.672 -38.083 119.845Q-37.9928 120.018 -37.8944 120.186Q-37.7959 120.354 -37.6894 120.516Q-37.5828 120.678 -37.4684 120.834Q-37.354 120.991 -37.2319 121.141Q-37.1098 121.291 -36.9804 121.434Q-36.8509 121.578 -36.7143 121.714Q-36.5777 121.851 -36.4342 121.98Q-36.2908 122.11 -36.1407 122.232Q-35.9907 122.354 -35.8344 122.468Q-35.6782 122.583 -35.5159 122.689Q-35.3537 122.796 -35.1859 122.894Q-35.0181 122.993 -34.845 123.083Q-34.6719 123.173 -34.4939 123.255Q-34.3159 123.336 -34.1333 123.41Q-33.9508 123.483 -33.7641 123.547Q-33.5773 123.611 -33.3868 123.666Q-33.1963 123.722 -33.0024 123.768Q-32.8084 123.814 -32.6115 123.851Q-32.4146 123.888 -32.215 123.916Q-32.0155 123.944 -31.8137 123.963Q-31.612 123.981 -31.4084 123.991Q-31.2049 124 -31 124L193 124Q193.205 124 193.408 123.991Q193.612 123.981 193.814 123.963Q194.016 123.944 194.215 123.916Q194.415 123.888 194.612 123.851Q194.808 123.814 195.002 123.768Q195.196 123.722 195.387 123.666Q195.577 123.611 195.764 123.547Q195.951 123.483 196.133 123.41Q196.316 123.336 196.494 123.255Q196.672 123.173 196.845 123.083Q197.018 122.993 197.186 122.894Q197.354 122.796 197.516 122.689Q197.678 122.583 197.834 122.468Q197.991 122.354 198.141 122.232Q198.291 122.11 198.434 121.98Q198.578 121.851 198.714 121.714Q198.851 121.578 198.98 121.434Q199.11 121.291 199.232 121.141Q199.354 120.991 199.468 120.834Q199.583 120.678 199.689 120.516Q199.796 120.354 199.894 120.186Q199.993 120.018 200.083 119.845Q200.173 119.672 200.255 119.494Q200.337 119.316 200.41 119.133Q200.483 118.951 200.547 118.764Q200.611 118.577 200.666 118.387Q200.722 118.196 200.768 118.002Q200.814 117.808 200.851 117.612Q200.888 117.415 200.916 117.215Q200.944 117.015 200.963 116.814Q200.981 116.612 200.991 116.408Q201 116.205 201 116L201 -128Q201 -128.205 200.991 -128.408Q200.981 -128.612 200.963 -128.814Q200.944 -129.016 200.916 -129.215Q200.888 -129.415 200.851 -129.612Q200.814 -129.808 200.768 -130.002Q200.722 -130.196 200.666 -130.387Q200.611 -130.577 200.547 -130.764Q200.483 -130.951 200.41 -131.133Q200.337 -131.316 200.255 -131.494Q200.173 -131.672 200.083 -131.845Q199.993 -132.018 199.894 -132.186Q199.796 -132.354 199.689 -132.516Q199.583 -132.678 199.468 -132.834Q199.354 -132.991 199.232 -133.141Q199.11 -133.291 198.98 -133.434Q198.851 -133.578 198.714 -133.714Q198.578 -133.851 198.434 -133.98Q198.291 -134.11 198.141 -134.232Q197.991 -134.354 197.834 -134.468Q197.678 -134.583 197.516 -134.689Q197.354 -134.796 197.186 -134.894Q197.018 -134.993 196.845 -135.083Q196.672 -135.173 196.494 -135.255Q196.316 -135.336 196.133 -135.41Q195.951 -135.483 195.764 -135.547Q195.577 -135.611 195.387 -135.666Q195.196 -135.722 195.002 -135.768Q194.808 -135.814 194.612 -135.851Q194.415 -135.888 194.215 -135.916Q194.016 -135.944 193.814 -135.963Q193.612 -135.981 193.408 -135.991Q193.205 -136 193 -136Z" clip-rule="evenodd"/>
		</clipPath>
	</defs>
	<g clip-path="url(#clip_1)">
		<path fill="rgb(131,156,171)" stroke="none" transform="translate(12.5 5)" d="M0.5 0L2.567 0C2.843 0 3.067 0.223 3.067 0.5L3.067 2.565C3.067 2.842 2.843 3.065 2.567 3.065L0.5 3.065C0.224 3.065 0 2.842 0 2.565L0 0.5C0 0.223 0.224 0 0.5 0ZM2.067 2.065L1.001 2.065L1.001 1L2.067 1L2.067 2.065Z" fill-rule="evenodd"/>
	</g>
	<defs>
		<clipPath id="clip_2">
			<path d="M193 -136L-31 -136Q-31.2049 -136 -31.4084 -135.991Q-31.612 -135.981 -31.8137 -135.963Q-32.0155 -135.944 -32.215 -135.916Q-32.4146 -135.888 -32.6115 -135.851Q-32.8084 -135.814 -33.0024 -135.768Q-33.1963 -135.722 -33.3868 -135.666Q-33.5773 -135.611 -33.7641 -135.547Q-33.9508 -135.483 -34.1333 -135.41Q-34.3159 -135.336 -34.4939 -135.255Q-34.6719 -135.173 -34.845 -135.083Q-35.0181 -134.993 -35.1859 -134.894Q-35.3537 -134.796 -35.5159 -134.689Q-35.6782 -134.583 -35.8344 -134.468Q-35.9907 -134.354 -36.1407 -134.232Q-36.2908 -134.11 -36.4342 -133.98Q-36.5777 -133.851 -36.7143 -133.714Q-36.8509 -133.578 -36.9804 -133.434Q-37.1098 -133.291 -37.2319 -133.141Q-37.354 -132.991 -37.4684 -132.834Q-37.5829 -132.678 -37.6894 -132.516Q-37.7959 -132.354 -37.8944 -132.186Q-37.9928 -132.018 -38.083 -131.845Q-38.1731 -131.672 -38.2548 -131.494Q-38.3365 -131.316 -38.4095 -131.133Q-38.4825 -130.951 -38.5467 -130.764Q-38.611 -130.577 -38.6663 -130.387Q-38.7216 -130.196 -38.7678 -130.002Q-38.8141 -129.808 -38.8512 -129.611Q-38.8883 -129.415 -38.9162 -129.215Q-38.9441 -129.015 -38.9627 -128.814Q-38.9814 -128.612 -38.9907 -128.408Q-39 -128.205 -39 -128L-39 116Q-39 116.205 -38.9907 116.408Q-38.9814 116.612 -38.9627 116.814Q-38.9441 117.015 -38.9162 117.215Q-38.8883 117.415 -38.8512 117.612Q-38.8141 117.808 -38.7678 118.002Q-38.7216 118.196 -38.6663 118.387Q-38.611 118.577 -38.5467 118.764Q-38.4825 118.951 -38.4095 119.133Q-38.3365 119.316 -38.2548 119.494Q-38.1731 119.672 -38.083 119.845Q-37.9928 120.018 -37.8944 120.186Q-37.7959 120.354 -37.6894 120.516Q-37.5828 120.678 -37.4684 120.834Q-37.354 120.991 -37.2319 121.141Q-37.1098 121.291 -36.9804 121.434Q-36.8509 121.578 -36.7143 121.714Q-36.5777 121.851 -36.4342 121.98Q-36.2908 122.11 -36.1407 122.232Q-35.9907 122.354 -35.8344 122.468Q-35.6782 122.583 -35.5159 122.689Q-35.3537 122.796 -35.1859 122.894Q-35.0181 122.993 -34.845 123.083Q-34.6719 123.173 -34.4939 123.255Q-34.3159 123.336 -34.1333 123.41Q-33.9508 123.483 -33.7641 123.547Q-33.5773 123.611 -33.3868 123.666Q-33.1963 123.722 -33.0024 123.768Q-32.8084 123.814 -32.6115 123.851Q-32.4146 123.888 -32.215 123.916Q-32.0155 123.944 -31.8137 123.963Q-31.612 123.981 -31.4084 123.991Q-31.2049 124 -31 124L193 124Q193.205 124 193.408 123.991Q193.612 123.981 193.814 123.963Q194.016 123.944 194.215 123.916Q194.415 123.888 194.612 123.851Q194.808 123.814 195.002 123.768Q195.196 123.722 195.387 123.666Q195.577 123.611 195.764 123.547Q195.951 123.483 196.133 123.41Q196.316 123.336 196.494 123.255Q196.672 123.173 196.845 123.083Q197.018 122.993 197.186 122.894Q197.354 122.796 197.516 122.689Q197.678 122.583 197.834 122.468Q197.991 122.354 198.141 122.232Q198.291 122.11 198.434 121.98Q198.578 121.851 198.714 121.714Q198.851 121.578 198.98 121.434Q199.11 121.291 199.232 121.141Q199.354 120.991 199.468 120.834Q199.583 120.678 199.689 120.516Q199.796 120.354 199.894 120.186Q199.993 120.018 200.083 119.845Q200.173 119.672 200.255 119.494Q200.337 119.316 200.41 119.133Q200.483 118.951 200.547 118.764Q200.611 118.577 200.666 118.387Q200.722 118.196 200.768 118.002Q200.814 117.808 200.851 117.612Q200.888 117.415 200.916 117.215Q200.944 117.015 200.963 116.814Q200.981 116.612 200.991 116.408Q201 116.205 201 116L201 -128Q201 -128.205 200.991 -128.408Q200.981 -128.612 200.963 -128.814Q200.944 -129.016 200.916 -129.215Q200.888 -129.415 200.851 -129.612Q200.814 -129.808 200.768 -130.002Q200.722 -130.196 200.666 -130.387Q200.611 -130.577 200.547 -130.764Q200.483 -130.951 200.41 -131.133Q200.337 -131.316 200.255 -131.494Q200.173 -131.672 200.083 -131.845Q199.993 -132.018 199.894 -132.186Q199.796 -132.354 199.689 -132.516Q199.583 -132.678 199.468 -132.834Q199.354 -132.991 199.232 -133.141Q199.11 -133.291 198.98 -133.434Q198.851 -133.578 198.714 -133.714Q198.578 -133.851 198.434 -133.98Q198.291 -134.11 198.141 -134.232Q197.991 -134.354 197.834 -134.468Q197.678 -134.583 197.516 -134.689Q197.354 -134.796 197.186 -134.894Q197.018 -134.993 196.845 -135.083Q196.672 -135.173 196.494 -135.255Q196.316 -135.336 196.133 -135.41Q195.951 -135.483 195.764 -135.547Q195.577 -135.611 195.387 -135.666Q195.196 -135.722 195.002 -135.768Q194.808 -135.814 194.612 -135.851Q194.415 -135.888 194.215 -135.916Q194.016 -135.944 193.814 -135.963Q193.612 -135.981 193.408 -135.991Q193.205 -136 193 -136Z" clip-rule="evenodd"/>
		</clipPath>
	</defs>
	<g clip-path="url(#clip_2)">
		<path fill="rgb(131,156,171)" stroke="none" transform="translate(17.5 5.01202)" d="M0.5 0L2.566 0C2.842 0 3.066 0.223 3.066 0.5L3.066 2.565C3.066 2.842 2.842 3.065 2.566 3.065L0.5 3.065C0.223 3.065 0 2.842 0 2.565L0 0.5C0 0.223 0.223 0 0.5 0ZM2.066 2.065L1 2.065L1 1L2.066 1L2.066 2.065Z" fill-rule="evenodd"/>
	</g>
	<defs>
		<clipPath id="clip_3">
			<path d="M193 -136L-31 -136Q-31.2049 -136 -31.4084 -135.991Q-31.612 -135.981 -31.8137 -135.963Q-32.0155 -135.944 -32.215 -135.916Q-32.4146 -135.888 -32.6115 -135.851Q-32.8084 -135.814 -33.0024 -135.768Q-33.1963 -135.722 -33.3868 -135.666Q-33.5773 -135.611 -33.7641 -135.547Q-33.9508 -135.483 -34.1333 -135.41Q-34.3159 -135.336 -34.4939 -135.255Q-34.6719 -135.173 -34.845 -135.083Q-35.0181 -134.993 -35.1859 -134.894Q-35.3537 -134.796 -35.5159 -134.689Q-35.6782 -134.583 -35.8344 -134.468Q-35.9907 -134.354 -36.1407 -134.232Q-36.2908 -134.11 -36.4342 -133.98Q-36.5777 -133.851 -36.7143 -133.714Q-36.8509 -133.578 -36.9804 -133.434Q-37.1098 -133.291 -37.2319 -133.141Q-37.354 -132.991 -37.4684 -132.834Q-37.5829 -132.678 -37.6894 -132.516Q-37.7959 -132.354 -37.8944 -132.186Q-37.9928 -132.018 -38.083 -131.845Q-38.1731 -131.672 -38.2548 -131.494Q-38.3365 -131.316 -38.4095 -131.133Q-38.4825 -130.951 -38.5467 -130.764Q-38.611 -130.577 -38.6663 -130.387Q-38.7216 -130.196 -38.7678 -130.002Q-38.8141 -129.808 -38.8512 -129.611Q-38.8883 -129.415 -38.9162 -129.215Q-38.9441 -129.015 -38.9627 -128.814Q-38.9814 -128.612 -38.9907 -128.408Q-39 -128.205 -39 -128L-39 116Q-39 116.205 -38.9907 116.408Q-38.9814 116.612 -38.9627 116.814Q-38.9441 117.015 -38.9162 117.215Q-38.8883 117.415 -38.8512 117.612Q-38.8141 117.808 -38.7678 118.002Q-38.7216 118.196 -38.6663 118.387Q-38.611 118.577 -38.5467 118.764Q-38.4825 118.951 -38.4095 119.133Q-38.3365 119.316 -38.2548 119.494Q-38.1731 119.672 -38.083 119.845Q-37.9928 120.018 -37.8944 120.186Q-37.7959 120.354 -37.6894 120.516Q-37.5828 120.678 -37.4684 120.834Q-37.354 120.991 -37.2319 121.141Q-37.1098 121.291 -36.9804 121.434Q-36.8509 121.578 -36.7143 121.714Q-36.5777 121.851 -36.4342 121.98Q-36.2908 122.11 -36.1407 122.232Q-35.9907 122.354 -35.8344 122.468Q-35.6782 122.583 -35.5159 122.689Q-35.3537 122.796 -35.1859 122.894Q-35.0181 122.993 -34.845 123.083Q-34.6719 123.173 -34.4939 123.255Q-34.3159 123.336 -34.1333 123.41Q-33.9508 123.483 -33.7641 123.547Q-33.5773 123.611 -33.3868 123.666Q-33.1963 123.722 -33.0024 123.768Q-32.8084 123.814 -32.6115 123.851Q-32.4146 123.888 -32.215 123.916Q-32.0155 123.944 -31.8137 123.963Q-31.612 123.981 -31.4084 123.991Q-31.2049 124 -31 124L193 124Q193.205 124 193.408 123.991Q193.612 123.981 193.814 123.963Q194.016 123.944 194.215 123.916Q194.415 123.888 194.612 123.851Q194.808 123.814 195.002 123.768Q195.196 123.722 195.387 123.666Q195.577 123.611 195.764 123.547Q195.951 123.483 196.133 123.41Q196.316 123.336 196.494 123.255Q196.672 123.173 196.845 123.083Q197.018 122.993 197.186 122.894Q197.354 122.796 197.516 122.689Q197.678 122.583 197.834 122.468Q197.991 122.354 198.141 122.232Q198.291 122.11 198.434 121.98Q198.578 121.851 198.714 121.714Q198.851 121.578 198.98 121.434Q199.11 121.291 199.232 121.141Q199.354 120.991 199.468 120.834Q199.583 120.678 199.689 120.516Q199.796 120.354 199.894 120.186Q199.993 120.018 200.083 119.845Q200.173 119.672 200.255 119.494Q200.337 119.316 200.41 119.133Q200.483 118.951 200.547 118.764Q200.611 118.577 200.666 118.387Q200.722 118.196 200.768 118.002Q200.814 117.808 200.851 117.612Q200.888 117.415 200.916 117.215Q200.944 117.015 200.963 116.814Q200.981 116.612 200.991 116.408Q201 116.205 201 116L201 -128Q201 -128.205 200.991 -128.408Q200.981 -128.612 200.963 -128.814Q200.944 -129.016 200.916 -129.215Q200.888 -129.415 200.851 -129.612Q200.814 -129.808 200.768 -130.002Q200.722 -130.196 200.666 -130.387Q200.611 -130.577 200.547 -130.764Q200.483 -130.951 200.41 -131.133Q200.337 -131.316 200.255 -131.494Q200.173 -131.672 200.083 -131.845Q199.993 -132.018 199.894 -132.186Q199.796 -132.354 199.689 -132.516Q199.583 -132.678 199.468 -132.834Q199.354 -132.991 199.232 -133.141Q199.11 -133.291 198.98 -133.434Q198.851 -133.578 198.714 -133.714Q198.578 -133.851 198.434 -133.98Q198.291 -134.11 198.141 -134.232Q197.991 -134.354 197.834 -134.468Q197.678 -134.583 197.516 -134.689Q197.354 -134.796 197.186 -134.894Q197.018 -134.993 196.845 -135.083Q196.672 -135.173 196.494 -135.255Q196.316 -135.336 196.133 -135.41Q195.951 -135.483 195.764 -135.547Q195.577 -135.611 195.387 -135.666Q195.196 -135.722 195.002 -135.768Q194.808 -135.814 194.612 -135.851Q194.415 -135.888 194.215 -135.916Q194.016 -135.944 193.814 -135.963Q193.612 -135.981 193.408 -135.991Q193.205 -136 193 -136Z" clip-rule="evenodd"/>
		</clipPath>
	</defs>
	<g clip-path="url(#clip_3)">
		<path fill="rgb(131,156,171)" stroke="none" transform="translate(12.5 9)" d="M0.5 0L2.567 0C2.843 0 3.067 0.224 3.067 0.5L3.067 2.567C3.067 2.842 2.843 3.067 2.567 3.067L0.5 3.067C0.224 3.067 0 2.842 0 2.567L0 0.5C0 0.224 0.224 0 0.5 0ZM2.067 2.067L1.001 2.067L1.001 1.001L2.067 1.001L2.067 2.067Z" fill-rule="evenodd"/>
	</g>
	<defs>
		<clipPath id="clip_4">
			<path d="M193 -136L-31 -136Q-31.2049 -136 -31.4084 -135.991Q-31.612 -135.981 -31.8137 -135.963Q-32.0155 -135.944 -32.215 -135.916Q-32.4146 -135.888 -32.6115 -135.851Q-32.8084 -135.814 -33.0024 -135.768Q-33.1963 -135.722 -33.3868 -135.666Q-33.5773 -135.611 -33.7641 -135.547Q-33.9508 -135.483 -34.1333 -135.41Q-34.3159 -135.336 -34.4939 -135.255Q-34.6719 -135.173 -34.845 -135.083Q-35.0181 -134.993 -35.1859 -134.894Q-35.3537 -134.796 -35.5159 -134.689Q-35.6782 -134.583 -35.8344 -134.468Q-35.9907 -134.354 -36.1407 -134.232Q-36.2908 -134.11 -36.4342 -133.98Q-36.5777 -133.851 -36.7143 -133.714Q-36.8509 -133.578 -36.9804 -133.434Q-37.1098 -133.291 -37.2319 -133.141Q-37.354 -132.991 -37.4684 -132.834Q-37.5829 -132.678 -37.6894 -132.516Q-37.7959 -132.354 -37.8944 -132.186Q-37.9928 -132.018 -38.083 -131.845Q-38.1731 -131.672 -38.2548 -131.494Q-38.3365 -131.316 -38.4095 -131.133Q-38.4825 -130.951 -38.5467 -130.764Q-38.611 -130.577 -38.6663 -130.387Q-38.7216 -130.196 -38.7678 -130.002Q-38.8141 -129.808 -38.8512 -129.611Q-38.8883 -129.415 -38.9162 -129.215Q-38.9441 -129.015 -38.9627 -128.814Q-38.9814 -128.612 -38.9907 -128.408Q-39 -128.205 -39 -128L-39 116Q-39 116.205 -38.9907 116.408Q-38.9814 116.612 -38.9627 116.814Q-38.9441 117.015 -38.9162 117.215Q-38.8883 117.415 -38.8512 117.612Q-38.8141 117.808 -38.7678 118.002Q-38.7216 118.196 -38.6663 118.387Q-38.611 118.577 -38.5467 118.764Q-38.4825 118.951 -38.4095 119.133Q-38.3365 119.316 -38.2548 119.494Q-38.1731 119.672 -38.083 119.845Q-37.9928 120.018 -37.8944 120.186Q-37.7959 120.354 -37.6894 120.516Q-37.5828 120.678 -37.4684 120.834Q-37.354 120.991 -37.2319 121.141Q-37.1098 121.291 -36.9804 121.434Q-36.8509 121.578 -36.7143 121.714Q-36.5777 121.851 -36.4342 121.98Q-36.2908 122.11 -36.1407 122.232Q-35.9907 122.354 -35.8344 122.468Q-35.6782 122.583 -35.5159 122.689Q-35.3537 122.796 -35.1859 122.894Q-35.0181 122.993 -34.845 123.083Q-34.6719 123.173 -34.4939 123.255Q-34.3159 123.336 -34.1333 123.41Q-33.9508 123.483 -33.7641 123.547Q-33.5773 123.611 -33.3868 123.666Q-33.1963 123.722 -33.0024 123.768Q-32.8084 123.814 -32.6115 123.851Q-32.4146 123.888 -32.215 123.916Q-32.0155 123.944 -31.8137 123.963Q-31.612 123.981 -31.4084 123.991Q-31.2049 124 -31 124L193 124Q193.205 124 193.408 123.991Q193.612 123.981 193.814 123.963Q194.016 123.944 194.215 123.916Q194.415 123.888 194.612 123.851Q194.808 123.814 195.002 123.768Q195.196 123.722 195.387 123.666Q195.577 123.611 195.764 123.547Q195.951 123.483 196.133 123.41Q196.316 123.336 196.494 123.255Q196.672 123.173 196.845 123.083Q197.018 122.993 197.186 122.894Q197.354 122.796 197.516 122.689Q197.678 122.583 197.834 122.468Q197.991 122.354 198.141 122.232Q198.291 122.11 198.434 121.98Q198.578 121.851 198.714 121.714Q198.851 121.578 198.98 121.434Q199.11 121.291 199.232 121.141Q199.354 120.991 199.468 120.834Q199.583 120.678 199.689 120.516Q199.796 120.354 199.894 120.186Q199.993 120.018 200.083 119.845Q200.173 119.672 200.255 119.494Q200.337 119.316 200.41 119.133Q200.483 118.951 200.547 118.764Q200.611 118.577 200.666 118.387Q200.722 118.196 200.768 118.002Q200.814 117.808 200.851 117.612Q200.888 117.415 200.916 117.215Q200.944 117.015 200.963 116.814Q200.981 116.612 200.991 116.408Q201 116.205 201 116L201 -128Q201 -128.205 200.991 -128.408Q200.981 -128.612 200.963 -128.814Q200.944 -129.016 200.916 -129.215Q200.888 -129.415 200.851 -129.612Q200.814 -129.808 200.768 -130.002Q200.722 -130.196 200.666 -130.387Q200.611 -130.577 200.547 -130.764Q200.483 -130.951 200.41 -131.133Q200.337 -131.316 200.255 -131.494Q200.173 -131.672 200.083 -131.845Q199.993 -132.018 199.894 -132.186Q199.796 -132.354 199.689 -132.516Q199.583 -132.678 199.468 -132.834Q199.354 -132.991 199.232 -133.141Q199.11 -133.291 198.98 -133.434Q198.851 -133.578 198.714 -133.714Q198.578 -133.851 198.434 -133.98Q198.291 -134.11 198.141 -134.232Q197.991 -134.354 197.834 -134.468Q197.678 -134.583 197.516 -134.689Q197.354 -134.796 197.186 -134.894Q197.018 -134.993 196.845 -135.083Q196.672 -135.173 196.494 -135.255Q196.316 -135.336 196.133 -135.41Q195.951 -135.483 195.764 -135.547Q195.577 -135.611 195.387 -135.666Q195.196 -135.722 195.002 -135.768Q194.808 -135.814 194.612 -135.851Q194.415 -135.888 194.215 -135.916Q194.016 -135.944 193.814 -135.963Q193.612 -135.981 193.408 -135.991Q193.205 -136 193 -136Z" clip-rule="evenodd"/>
		</clipPath>
	</defs>
	<g clip-path="url(#clip_4)">
		<path fill="rgb(131,156,171)" stroke="none" transform="translate(17.5 9)" d="M0.5 0L2.566 0C2.842 0 3.066 0.224 3.066 0.5L3.066 2.567C3.066 2.842 2.842 3.067 2.566 3.067L0.5 3.067C0.223 3.067 0 2.842 0 2.567L0 0.5C0 0.224 0.223 0 0.5 0ZM2.066 2.067L1 2.067L1 1.001L2.066 1.001L2.066 2.067Z" fill-rule="evenodd"/>
	</g>
	<defs>
		<clipPath id="clip_5">
			<path d="M193 -136L-31 -136Q-31.2049 -136 -31.4084 -135.991Q-31.612 -135.981 -31.8137 -135.963Q-32.0155 -135.944 -32.215 -135.916Q-32.4146 -135.888 -32.6115 -135.851Q-32.8084 -135.814 -33.0024 -135.768Q-33.1963 -135.722 -33.3868 -135.666Q-33.5773 -135.611 -33.7641 -135.547Q-33.9508 -135.483 -34.1333 -135.41Q-34.3159 -135.336 -34.4939 -135.255Q-34.6719 -135.173 -34.845 -135.083Q-35.0181 -134.993 -35.1859 -134.894Q-35.3537 -134.796 -35.5159 -134.689Q-35.6782 -134.583 -35.8344 -134.468Q-35.9907 -134.354 -36.1407 -134.232Q-36.2908 -134.11 -36.4342 -133.98Q-36.5777 -133.851 -36.7143 -133.714Q-36.8509 -133.578 -36.9804 -133.434Q-37.1098 -133.291 -37.2319 -133.141Q-37.354 -132.991 -37.4684 -132.834Q-37.5829 -132.678 -37.6894 -132.516Q-37.7959 -132.354 -37.8944 -132.186Q-37.9928 -132.018 -38.083 -131.845Q-38.1731 -131.672 -38.2548 -131.494Q-38.3365 -131.316 -38.4095 -131.133Q-38.4825 -130.951 -38.5467 -130.764Q-38.611 -130.577 -38.6663 -130.387Q-38.7216 -130.196 -38.7678 -130.002Q-38.8141 -129.808 -38.8512 -129.611Q-38.8883 -129.415 -38.9162 -129.215Q-38.9441 -129.015 -38.9627 -128.814Q-38.9814 -128.612 -38.9907 -128.408Q-39 -128.205 -39 -128L-39 116Q-39 116.205 -38.9907 116.408Q-38.9814 116.612 -38.9627 116.814Q-38.9441 117.015 -38.9162 117.215Q-38.8883 117.415 -38.8512 117.612Q-38.8141 117.808 -38.7678 118.002Q-38.7216 118.196 -38.6663 118.387Q-38.611 118.577 -38.5467 118.764Q-38.4825 118.951 -38.4095 119.133Q-38.3365 119.316 -38.2548 119.494Q-38.1731 119.672 -38.083 119.845Q-37.9928 120.018 -37.8944 120.186Q-37.7959 120.354 -37.6894 120.516Q-37.5828 120.678 -37.4684 120.834Q-37.354 120.991 -37.2319 121.141Q-37.1098 121.291 -36.9804 121.434Q-36.8509 121.578 -36.7143 121.714Q-36.5777 121.851 -36.4342 121.98Q-36.2908 122.11 -36.1407 122.232Q-35.9907 122.354 -35.8344 122.468Q-35.6782 122.583 -35.5159 122.689Q-35.3537 122.796 -35.1859 122.894Q-35.0181 122.993 -34.845 123.083Q-34.6719 123.173 -34.4939 123.255Q-34.3159 123.336 -34.1333 123.41Q-33.9508 123.483 -33.7641 123.547Q-33.5773 123.611 -33.3868 123.666Q-33.1963 123.722 -33.0024 123.768Q-32.8084 123.814 -32.6115 123.851Q-32.4146 123.888 -32.215 123.916Q-32.0155 123.944 -31.8137 123.963Q-31.612 123.981 -31.4084 123.991Q-31.2049 124 -31 124L193 124Q193.205 124 193.408 123.991Q193.612 123.981 193.814 123.963Q194.016 123.944 194.215 123.916Q194.415 123.888 194.612 123.851Q194.808 123.814 195.002 123.768Q195.196 123.722 195.387 123.666Q195.577 123.611 195.764 123.547Q195.951 123.483 196.133 123.41Q196.316 123.336 196.494 123.255Q196.672 123.173 196.845 123.083Q197.018 122.993 197.186 122.894Q197.354 122.796 197.516 122.689Q197.678 122.583 197.834 122.468Q197.991 122.354 198.141 122.232Q198.291 122.11 198.434 121.98Q198.578 121.851 198.714 121.714Q198.851 121.578 198.98 121.434Q199.11 121.291 199.232 121.141Q199.354 120.991 199.468 120.834Q199.583 120.678 199.689 120.516Q199.796 120.354 199.894 120.186Q199.993 120.018 200.083 119.845Q200.173 119.672 200.255 119.494Q200.337 119.316 200.41 119.133Q200.483 118.951 200.547 118.764Q200.611 118.577 200.666 118.387Q200.722 118.196 200.768 118.002Q200.814 117.808 200.851 117.612Q200.888 117.415 200.916 117.215Q200.944 117.015 200.963 116.814Q200.981 116.612 200.991 116.408Q201 116.205 201 116L201 -128Q201 -128.205 200.991 -128.408Q200.981 -128.612 200.963 -128.814Q200.944 -129.016 200.916 -129.215Q200.888 -129.415 200.851 -129.612Q200.814 -129.808 200.768 -130.002Q200.722 -130.196 200.666 -130.387Q200.611 -130.577 200.547 -130.764Q200.483 -130.951 200.41 -131.133Q200.337 -131.316 200.255 -131.494Q200.173 -131.672 200.083 -131.845Q199.993 -132.018 199.894 -132.186Q199.796 -132.354 199.689 -132.516Q199.583 -132.678 199.468 -132.834Q199.354 -132.991 199.232 -133.141Q199.11 -133.291 198.98 -133.434Q198.851 -133.578 198.714 -133.714Q198.578 -133.851 198.434 -133.98Q198.291 -134.11 198.141 -134.232Q197.991 -134.354 197.834 -134.468Q197.678 -134.583 197.516 -134.689Q197.354 -134.796 197.186 -134.894Q197.018 -134.993 196.845 -135.083Q196.672 -135.173 196.494 -135.255Q196.316 -135.336 196.133 -135.41Q195.951 -135.483 195.764 -135.547Q195.577 -135.611 195.387 -135.666Q195.196 -135.722 195.002 -135.768Q194.808 -135.814 194.612 -135.851Q194.415 -135.888 194.215 -135.916Q194.016 -135.944 193.814 -135.963Q193.612 -135.981 193.408 -135.991Q193.205 -136 193 -136Z" clip-rule="evenodd"/>
		</clipPath>
	</defs>
	<g clip-path="url(#clip_5)">
		<path fill="rgb(131,156,171)" stroke="none" transform="translate(16 16)" d="M0.5 0L3.488 0C3.764 0 3.988 0.224 3.988 0.5L3.988 3.487C3.988 3.764 3.764 3.987 3.488 3.987L0.5 3.987C0.223 3.987 0 3.764 0 3.487L0 0.5C0 0.224 0.223 0 0.5 0ZM2.988 2.987L1 2.987L1 0.999L2.988 0.999L2.988 2.987Z" fill-rule="evenodd"/>
	</g>
	<defs>
		<clipPath id="clip_6">
			<path d="M193 -136L-31 -136Q-31.2049 -136 -31.4084 -135.991Q-31.612 -135.981 -31.8137 -135.963Q-32.0155 -135.944 -32.215 -135.916Q-32.4146 -135.888 -32.6115 -135.851Q-32.8084 -135.814 -33.0024 -135.768Q-33.1963 -135.722 -33.3868 -135.666Q-33.5773 -135.611 -33.7641 -135.547Q-33.9508 -135.483 -34.1333 -135.41Q-34.3159 -135.336 -34.4939 -135.255Q-34.6719 -135.173 -34.845 -135.083Q-35.0181 -134.993 -35.1859 -134.894Q-35.3537 -134.796 -35.5159 -134.689Q-35.6782 -134.583 -35.8344 -134.468Q-35.9907 -134.354 -36.1407 -134.232Q-36.2908 -134.11 -36.4342 -133.98Q-36.5777 -133.851 -36.7143 -133.714Q-36.8509 -133.578 -36.9804 -133.434Q-37.1098 -133.291 -37.2319 -133.141Q-37.354 -132.991 -37.4684 -132.834Q-37.5829 -132.678 -37.6894 -132.516Q-37.7959 -132.354 -37.8944 -132.186Q-37.9928 -132.018 -38.083 -131.845Q-38.1731 -131.672 -38.2548 -131.494Q-38.3365 -131.316 -38.4095 -131.133Q-38.4825 -130.951 -38.5467 -130.764Q-38.611 -130.577 -38.6663 -130.387Q-38.7216 -130.196 -38.7678 -130.002Q-38.8141 -129.808 -38.8512 -129.611Q-38.8883 -129.415 -38.9162 -129.215Q-38.9441 -129.015 -38.9627 -128.814Q-38.9814 -128.612 -38.9907 -128.408Q-39 -128.205 -39 -128L-39 116Q-39 116.205 -38.9907 116.408Q-38.9814 116.612 -38.9627 116.814Q-38.9441 117.015 -38.9162 117.215Q-38.8883 117.415 -38.8512 117.612Q-38.8141 117.808 -38.7678 118.002Q-38.7216 118.196 -38.6663 118.387Q-38.611 118.577 -38.5467 118.764Q-38.4825 118.951 -38.4095 119.133Q-38.3365 119.316 -38.2548 119.494Q-38.1731 119.672 -38.083 119.845Q-37.9928 120.018 -37.8944 120.186Q-37.7959 120.354 -37.6894 120.516Q-37.5828 120.678 -37.4684 120.834Q-37.354 120.991 -37.2319 121.141Q-37.1098 121.291 -36.9804 121.434Q-36.8509 121.578 -36.7143 121.714Q-36.5777 121.851 -36.4342 121.98Q-36.2908 122.11 -36.1407 122.232Q-35.9907 122.354 -35.8344 122.468Q-35.6782 122.583 -35.5159 122.689Q-35.3537 122.796 -35.1859 122.894Q-35.0181 122.993 -34.845 123.083Q-34.6719 123.173 -34.4939 123.255Q-34.3159 123.336 -34.1333 123.41Q-33.9508 123.483 -33.7641 123.547Q-33.5773 123.611 -33.3868 123.666Q-33.1963 123.722 -33.0024 123.768Q-32.8084 123.814 -32.6115 123.851Q-32.4146 123.888 -32.215 123.916Q-32.0155 123.944 -31.8137 123.963Q-31.612 123.981 -31.4084 123.991Q-31.2049 124 -31 124L193 124Q193.205 124 193.408 123.991Q193.612 123.981 193.814 123.963Q194.016 123.944 194.215 123.916Q194.415 123.888 194.612 123.851Q194.808 123.814 195.002 123.768Q195.196 123.722 195.387 123.666Q195.577 123.611 195.764 123.547Q195.951 123.483 196.133 123.41Q196.316 123.336 196.494 123.255Q196.672 123.173 196.845 123.083Q197.018 122.993 197.186 122.894Q197.354 122.796 197.516 122.689Q197.678 122.583 197.834 122.468Q197.991 122.354 198.141 122.232Q198.291 122.11 198.434 121.98Q198.578 121.851 198.714 121.714Q198.851 121.578 198.98 121.434Q199.11 121.291 199.232 121.141Q199.354 120.991 199.468 120.834Q199.583 120.678 199.689 120.516Q199.796 120.354 199.894 120.186Q199.993 120.018 200.083 119.845Q200.173 119.672 200.255 119.494Q200.337 119.316 200.41 119.133Q200.483 118.951 200.547 118.764Q200.611 118.577 200.666 118.387Q200.722 118.196 200.768 118.002Q200.814 117.808 200.851 117.612Q200.888 117.415 200.916 117.215Q200.944 117.015 200.963 116.814Q200.981 116.612 200.991 116.408Q201 116.205 201 116L201 -128Q201 -128.205 200.991 -128.408Q200.981 -128.612 200.963 -128.814Q200.944 -129.016 200.916 -129.215Q200.888 -129.415 200.851 -129.612Q200.814 -129.808 200.768 -130.002Q200.722 -130.196 200.666 -130.387Q200.611 -130.577 200.547 -130.764Q200.483 -130.951 200.41 -131.133Q200.337 -131.316 200.255 -131.494Q200.173 -131.672 200.083 -131.845Q199.993 -132.018 199.894 -132.186Q199.796 -132.354 199.689 -132.516Q199.583 -132.678 199.468 -132.834Q199.354 -132.991 199.232 -133.141Q199.11 -133.291 198.98 -133.434Q198.851 -133.578 198.714 -133.714Q198.578 -133.851 198.434 -133.98Q198.291 -134.11 198.141 -134.232Q197.991 -134.354 197.834 -134.468Q197.678 -134.583 197.516 -134.689Q197.354 -134.796 197.186 -134.894Q197.018 -134.993 196.845 -135.083Q196.672 -135.173 196.494 -135.255Q196.316 -135.336 196.133 -135.41Q195.951 -135.483 195.764 -135.547Q195.577 -135.611 195.387 -135.666Q195.196 -135.722 195.002 -135.768Q194.808 -135.814 194.612 -135.851Q194.415 -135.888 194.215 -135.916Q194.016 -135.944 193.814 -135.963Q193.612 -135.981 193.408 -135.991Q193.205 -136 193 -136Z" clip-rule="evenodd"/>
		</clipPath>
	</defs>
	<g clip-path="url(#clip_6)">
		<path fill="rgb(131,156,171)" stroke="none" transform="translate(10 16)" d="M0.5 0L3.488 0C3.765 0 3.988 0.224 3.988 0.5L3.988 3.487C3.988 3.764 3.765 3.987 3.488 3.987L0.5 3.987C0.224 3.987 0 3.764 0 3.487L0 0.5C0 0.224 0.224 0 0.5 0ZM2.988 2.987L1 2.987L1 0.999L2.988 0.999L2.988 2.987Z" fill-rule="evenodd"/>
	</g>
	<defs>
		<clipPath id="clip_7">
			<path d="M193 -136L-31 -136Q-31.2049 -136 -31.4084 -135.991Q-31.612 -135.981 -31.8137 -135.963Q-32.0155 -135.944 -32.215 -135.916Q-32.4146 -135.888 -32.6115 -135.851Q-32.8084 -135.814 -33.0024 -135.768Q-33.1963 -135.722 -33.3868 -135.666Q-33.5773 -135.611 -33.7641 -135.547Q-33.9508 -135.483 -34.1333 -135.41Q-34.3159 -135.336 -34.4939 -135.255Q-34.6719 -135.173 -34.845 -135.083Q-35.0181 -134.993 -35.1859 -134.894Q-35.3537 -134.796 -35.5159 -134.689Q-35.6782 -134.583 -35.8344 -134.468Q-35.9907 -134.354 -36.1407 -134.232Q-36.2908 -134.11 -36.4342 -133.98Q-36.5777 -133.851 -36.7143 -133.714Q-36.8509 -133.578 -36.9804 -133.434Q-37.1098 -133.291 -37.2319 -133.141Q-37.354 -132.991 -37.4684 -132.834Q-37.5829 -132.678 -37.6894 -132.516Q-37.7959 -132.354 -37.8944 -132.186Q-37.9928 -132.018 -38.083 -131.845Q-38.1731 -131.672 -38.2548 -131.494Q-38.3365 -131.316 -38.4095 -131.133Q-38.4825 -130.951 -38.5467 -130.764Q-38.611 -130.577 -38.6663 -130.387Q-38.7216 -130.196 -38.7678 -130.002Q-38.8141 -129.808 -38.8512 -129.611Q-38.8883 -129.415 -38.9162 -129.215Q-38.9441 -129.015 -38.9627 -128.814Q-38.9814 -128.612 -38.9907 -128.408Q-39 -128.205 -39 -128L-39 116Q-39 116.205 -38.9907 116.408Q-38.9814 116.612 -38.9627 116.814Q-38.9441 117.015 -38.9162 117.215Q-38.8883 117.415 -38.8512 117.612Q-38.8141 117.808 -38.7678 118.002Q-38.7216 118.196 -38.6663 118.387Q-38.611 118.577 -38.5467 118.764Q-38.4825 118.951 -38.4095 119.133Q-38.3365 119.316 -38.2548 119.494Q-38.1731 119.672 -38.083 119.845Q-37.9928 120.018 -37.8944 120.186Q-37.7959 120.354 -37.6894 120.516Q-37.5828 120.678 -37.4684 120.834Q-37.354 120.991 -37.2319 121.141Q-37.1098 121.291 -36.9804 121.434Q-36.8509 121.578 -36.7143 121.714Q-36.5777 121.851 -36.4342 121.98Q-36.2908 122.11 -36.1407 122.232Q-35.9907 122.354 -35.8344 122.468Q-35.6782 122.583 -35.5159 122.689Q-35.3537 122.796 -35.1859 122.894Q-35.0181 122.993 -34.845 123.083Q-34.6719 123.173 -34.4939 123.255Q-34.3159 123.336 -34.1333 123.41Q-33.9508 123.483 -33.7641 123.547Q-33.5773 123.611 -33.3868 123.666Q-33.1963 123.722 -33.0024 123.768Q-32.8084 123.814 -32.6115 123.851Q-32.4146 123.888 -32.215 123.916Q-32.0155 123.944 -31.8137 123.963Q-31.612 123.981 -31.4084 123.991Q-31.2049 124 -31 124L193 124Q193.205 124 193.408 123.991Q193.612 123.981 193.814 123.963Q194.016 123.944 194.215 123.916Q194.415 123.888 194.612 123.851Q194.808 123.814 195.002 123.768Q195.196 123.722 195.387 123.666Q195.577 123.611 195.764 123.547Q195.951 123.483 196.133 123.41Q196.316 123.336 196.494 123.255Q196.672 123.173 196.845 123.083Q197.018 122.993 197.186 122.894Q197.354 122.796 197.516 122.689Q197.678 122.583 197.834 122.468Q197.991 122.354 198.141 122.232Q198.291 122.11 198.434 121.98Q198.578 121.851 198.714 121.714Q198.851 121.578 198.98 121.434Q199.11 121.291 199.232 121.141Q199.354 120.991 199.468 120.834Q199.583 120.678 199.689 120.516Q199.796 120.354 199.894 120.186Q199.993 120.018 200.083 119.845Q200.173 119.672 200.255 119.494Q200.337 119.316 200.41 119.133Q200.483 118.951 200.547 118.764Q200.611 118.577 200.666 118.387Q200.722 118.196 200.768 118.002Q200.814 117.808 200.851 117.612Q200.888 117.415 200.916 117.215Q200.944 117.015 200.963 116.814Q200.981 116.612 200.991 116.408Q201 116.205 201 116L201 -128Q201 -128.205 200.991 -128.408Q200.981 -128.612 200.963 -128.814Q200.944 -129.016 200.916 -129.215Q200.888 -129.415 200.851 -129.612Q200.814 -129.808 200.768 -130.002Q200.722 -130.196 200.666 -130.387Q200.611 -130.577 200.547 -130.764Q200.483 -130.951 200.41 -131.133Q200.337 -131.316 200.255 -131.494Q200.173 -131.672 200.083 -131.845Q199.993 -132.018 199.894 -132.186Q199.796 -132.354 199.689 -132.516Q199.583 -132.678 199.468 -132.834Q199.354 -132.991 199.232 -133.141Q199.11 -133.291 198.98 -133.434Q198.851 -133.578 198.714 -133.714Q198.578 -133.851 198.434 -133.98Q198.291 -134.11 198.141 -134.232Q197.991 -134.354 197.834 -134.468Q197.678 -134.583 197.516 -134.689Q197.354 -134.796 197.186 -134.894Q197.018 -134.993 196.845 -135.083Q196.672 -135.173 196.494 -135.255Q196.316 -135.336 196.133 -135.41Q195.951 -135.483 195.764 -135.547Q195.577 -135.611 195.387 -135.666Q195.196 -135.722 195.002 -135.768Q194.808 -135.814 194.612 -135.851Q194.415 -135.888 194.215 -135.916Q194.016 -135.944 193.814 -135.963Q193.612 -135.981 193.408 -135.991Q193.205 -136 193 -136Z" clip-rule="evenodd"/>
		</clipPath>
	</defs>
	<g clip-path="url(#clip_7)">
		<path fill="rgb(131,156,171)" stroke="none" transform="translate(4 16)" d="M0.5 0L3.488 0C3.764 0 3.988 0.224 3.988 0.5L3.988 3.487C3.988 3.764 3.764 3.987 3.488 3.987L0.5 3.987C0.223 3.987 0 3.764 0 3.487L0 0.5C0 0.224 0.223 0 0.5 0ZM2.988 2.987L1 2.987L1 0.999L2.988 0.999L2.988 2.987Z" fill-rule="evenodd"/>
	</g>

</svg>