<?xml version="1.0" encoding="utf-8" ?>
<svg xmlns="http://www.w3.org/2000/svg" xmlns:xlink="http://www.w3.org/1999/xlink" width="24" height="24">
	<defs>
		<clipPath id="clip_0">
			<path d="M213 -64L-11 -64Q-11.2049 -64 -11.4084 -63.9907Q-11.612 -63.9813 -11.8137 -63.9627Q-12.0155 -63.9441 -12.215 -63.9162Q-12.4146 -63.8883 -12.6115 -63.8512Q-12.8084 -63.8141 -13.0024 -63.7678Q-13.1963 -63.7216 -13.3868 -63.6663Q-13.5773 -63.611 -13.7641 -63.5468Q-13.9508 -63.4825 -14.1333 -63.4095Q-14.3159 -63.3365 -14.4939 -63.2548Q-14.6719 -63.1732 -14.845 -63.083Q-15.0181 -62.9929 -15.1859 -62.8944Q-15.3537 -62.796 -15.5159 -62.6894Q-15.6781 -62.5829 -15.8344 -62.4684Q-15.9907 -62.354 -16.1407 -62.2319Q-16.2908 -62.1098 -16.4342 -61.9804Q-16.5777 -61.8509 -16.7143 -61.7143Q-16.8509 -61.5777 -16.9804 -61.4342Q-17.1098 -61.2908 -17.2319 -61.1407Q-17.354 -60.9907 -17.4684 -60.8344Q-17.5828 -60.6781 -17.6894 -60.5159Q-17.7959 -60.3537 -17.8944 -60.1859Q-17.9928 -60.0181 -18.083 -59.845Q-18.1731 -59.6719 -18.2548 -59.4939Q-18.3365 -59.3159 -18.4095 -59.1333Q-18.4825 -58.9508 -18.5467 -58.7641Q-18.611 -58.5773 -18.6663 -58.3868Q-18.7216 -58.1963 -18.7678 -58.0024Q-18.8141 -57.8084 -18.8512 -57.6115Q-18.8883 -57.4146 -18.9162 -57.215Q-18.9441 -57.0155 -18.9627 -56.8137Q-18.9813 -56.612 -18.9907 -56.4085Q-19 -56.2049 -19 -56L-19 188Q-19 188.205 -18.9907 188.408Q-18.9813 188.612 -18.9627 188.814Q-18.9441 189.015 -18.9162 189.215Q-18.8883 189.415 -18.8512 189.612Q-18.8141 189.808 -18.7678 190.002Q-18.7216 190.196 -18.6663 190.387Q-18.611 190.577 -18.5467 190.764Q-18.4825 190.951 -18.4095 191.133Q-18.3365 191.316 -18.2548 191.494Q-18.1731 191.672 -18.083 191.845Q-17.9928 192.018 -17.8944 192.186Q-17.7959 192.354 -17.6894 192.516Q-17.5828 192.678 -17.4684 192.834Q-17.354 192.991 -17.2319 193.141Q-17.1098 193.291 -16.9804 193.434Q-16.8509 193.578 -16.7143 193.714Q-16.5777 193.851 -16.4342 193.98Q-16.2908 194.11 -16.1407 194.232Q-15.9907 194.354 -15.8344 194.468Q-15.6781 194.583 -15.5159 194.689Q-15.3537 194.796 -15.1859 194.894Q-15.0181 194.993 -14.845 195.083Q-14.6719 195.173 -14.4939 195.255Q-14.3159 195.337 -14.1333 195.41Q-13.9508 195.483 -13.7641 195.547Q-13.5773 195.611 -13.3868 195.666Q-13.1963 195.722 -13.0024 195.768Q-12.8084 195.814 -12.6115 195.851Q-12.4146 195.888 -12.215 195.916Q-12.0155 195.944 -11.8137 195.963Q-11.612 195.981 -11.4084 195.991Q-11.2049 196 -11 196L213 196Q213.205 196 213.408 195.991Q213.612 195.981 213.814 195.963Q214.016 195.944 214.215 195.916Q214.415 195.888 214.612 195.851Q214.808 195.814 215.002 195.768Q215.196 195.722 215.387 195.666Q215.577 195.611 215.764 195.547Q215.951 195.483 216.133 195.41Q216.316 195.337 216.494 195.255Q216.672 195.173 216.845 195.083Q217.018 194.993 217.186 194.894Q217.354 194.796 217.516 194.689Q217.678 194.583 217.834 194.468Q217.991 194.354 218.141 194.232Q218.291 194.11 218.434 193.98Q218.578 193.851 218.714 193.714Q218.851 193.578 218.98 193.434Q219.11 193.291 219.232 193.141Q219.354 192.991 219.468 192.834Q219.583 192.678 219.689 192.516Q219.796 192.354 219.894 192.186Q219.993 192.018 220.083 191.845Q220.173 191.672 220.255 191.494Q220.337 191.316 220.41 191.133Q220.483 190.951 220.547 190.764Q220.611 190.577 220.666 190.387Q220.722 190.196 220.768 190.002Q220.814 189.808 220.851 189.612Q220.888 189.415 220.916 189.215Q220.944 189.016 220.963 188.814Q220.981 188.612 220.991 188.408Q221 188.205 221 188L221 -56Q221 -56.2049 220.991 -56.4085Q220.981 -56.612 220.963 -56.8137Q220.944 -57.0155 220.916 -57.215Q220.888 -57.4146 220.851 -57.6115Q220.814 -57.8084 220.768 -58.0024Q220.722 -58.1963 220.666 -58.3868Q220.611 -58.5773 220.547 -58.7641Q220.483 -58.9508 220.41 -59.1333Q220.337 -59.3159 220.255 -59.4939Q220.173 -59.6719 220.083 -59.845Q219.993 -60.0181 219.894 -60.1859Q219.796 -60.3537 219.689 -60.5159Q219.583 -60.6781 219.468 -60.8344Q219.354 -60.9907 219.232 -61.1407Q219.11 -61.2908 218.98 -61.4342Q218.851 -61.5777 218.714 -61.7143Q218.578 -61.8509 218.434 -61.9804Q218.291 -62.1098 218.141 -62.2319Q217.991 -62.354 217.834 -62.4684Q217.678 -62.5829 217.516 -62.6894Q217.354 -62.796 217.186 -62.8944Q217.018 -62.9929 216.845 -63.083Q216.672 -63.1732 216.494 -63.2548Q216.316 -63.3365 216.133 -63.4095Q215.951 -63.4825 215.764 -63.5467Q215.577 -63.611 215.387 -63.6663Q215.196 -63.7216 215.002 -63.7678Q214.808 -63.8141 214.612 -63.8512Q214.415 -63.8883 214.215 -63.9162Q214.016 -63.9441 213.814 -63.9627Q213.612 -63.9813 213.408 -63.9907Q213.205 -64 213 -64Z" clip-rule="evenodd"/>
		</clipPath>
	</defs>
	<g clip-path="url(#clip_0)">
		<path fill="rgb(131,156,171)" stroke="none" transform="translate(0 6.75696)" d="M23.775 3.416C23.923 3.659 24 3.934 24 4.215L24 9.18C24 9.182 23.999 9.183 23.999 9.185L23.999 12.486C23.999 12.763 23.775 12.986 23.499 12.986L22.54 12.986C22.498 14.295 21.42 15.349 20.094 15.349C18.766 15.349 17.687 14.293 17.646 12.982L11.801 12.982C11.761 14.293 10.682 15.349 9.354 15.349C8 15.349 6.899 14.254 6.899 12.908C6.899 11.562 8 10.468 9.354 10.468C10.377 10.468 11.255 11.095 11.623 11.982L17.824 11.982C18.192 11.095 19.07 10.468 20.094 10.468C21.119 10.468 21.996 11.097 22.363 11.986L22.999 11.986L22.999 9.68L1 9.68L1 11.986L1.807 11.986C2.174 11.097 3.052 10.468 4.077 10.468C5.431 10.468 6.531 11.562 6.531 12.908C6.531 14.254 5.431 15.349 4.077 15.349C2.75 15.349 1.673 14.295 1.63 12.986L0.5 12.986C0.224 12.986 0 12.763 0 12.486L0 9.18C0 8.973 0.127 8.794 0.307 8.719C0.367 8.694 0.433 8.68 0.502 8.68L15.877 8.68L15.877 7.203L15.878 0.5C15.878 0.224 16.102 0 16.378 0L20.818 0C21.353 0 21.857 0.283 22.137 0.737L23.775 3.416ZM21.283 1.26C21.186 1.099 21.007 1 20.818 1L16.878 1L16.877 6.703L23 6.703L23 4.215C23 4.118 22.973 4.021 22.922 3.937L21.283 1.26ZM23 8.68L16.877 8.68L16.877 7.703L23 7.703L23 8.68ZM4.077 11.468C4.879 11.468 5.531 12.114 5.531 12.908C5.531 13.703 4.879 14.349 4.077 14.349C3.274 14.349 2.622 13.703 2.622 12.908C2.622 12.114 3.274 11.468 4.077 11.468ZM7.899 12.908C7.899 13.703 8.552 14.349 9.354 14.349C10.156 14.349 10.809 13.703 10.809 12.908C10.809 12.114 10.156 11.468 9.354 11.468C8.552 11.468 7.899 12.114 7.899 12.908ZM20.094 14.349C19.291 14.349 18.639 13.703 18.639 12.908C18.639 12.114 19.291 11.468 20.094 11.468C20.896 11.468 21.548 12.114 21.548 12.908C21.548 13.703 20.896 14.349 20.094 14.349Z" fill-rule="evenodd"/>
	</g>
	<defs>
		<clipPath id="clip_1">
			<path d="M213 -64L-11 -64Q-11.2049 -64 -11.4084 -63.9907Q-11.612 -63.9813 -11.8137 -63.9627Q-12.0155 -63.9441 -12.215 -63.9162Q-12.4146 -63.8883 -12.6115 -63.8512Q-12.8084 -63.8141 -13.0024 -63.7678Q-13.1963 -63.7216 -13.3868 -63.6663Q-13.5773 -63.611 -13.7641 -63.5468Q-13.9508 -63.4825 -14.1333 -63.4095Q-14.3159 -63.3365 -14.4939 -63.2548Q-14.6719 -63.1732 -14.845 -63.083Q-15.0181 -62.9929 -15.1859 -62.8944Q-15.3537 -62.796 -15.5159 -62.6894Q-15.6781 -62.5829 -15.8344 -62.4684Q-15.9907 -62.354 -16.1407 -62.2319Q-16.2908 -62.1098 -16.4342 -61.9804Q-16.5777 -61.8509 -16.7143 -61.7143Q-16.8509 -61.5777 -16.9804 -61.4342Q-17.1098 -61.2908 -17.2319 -61.1407Q-17.354 -60.9907 -17.4684 -60.8344Q-17.5828 -60.6781 -17.6894 -60.5159Q-17.7959 -60.3537 -17.8944 -60.1859Q-17.9928 -60.0181 -18.083 -59.845Q-18.1731 -59.6719 -18.2548 -59.4939Q-18.3365 -59.3159 -18.4095 -59.1333Q-18.4825 -58.9508 -18.5467 -58.7641Q-18.611 -58.5773 -18.6663 -58.3868Q-18.7216 -58.1963 -18.7678 -58.0024Q-18.8141 -57.8084 -18.8512 -57.6115Q-18.8883 -57.4146 -18.9162 -57.215Q-18.9441 -57.0155 -18.9627 -56.8137Q-18.9813 -56.612 -18.9907 -56.4085Q-19 -56.2049 -19 -56L-19 188Q-19 188.205 -18.9907 188.408Q-18.9813 188.612 -18.9627 188.814Q-18.9441 189.015 -18.9162 189.215Q-18.8883 189.415 -18.8512 189.612Q-18.8141 189.808 -18.7678 190.002Q-18.7216 190.196 -18.6663 190.387Q-18.611 190.577 -18.5467 190.764Q-18.4825 190.951 -18.4095 191.133Q-18.3365 191.316 -18.2548 191.494Q-18.1731 191.672 -18.083 191.845Q-17.9928 192.018 -17.8944 192.186Q-17.7959 192.354 -17.6894 192.516Q-17.5828 192.678 -17.4684 192.834Q-17.354 192.991 -17.2319 193.141Q-17.1098 193.291 -16.9804 193.434Q-16.8509 193.578 -16.7143 193.714Q-16.5777 193.851 -16.4342 193.98Q-16.2908 194.11 -16.1407 194.232Q-15.9907 194.354 -15.8344 194.468Q-15.6781 194.583 -15.5159 194.689Q-15.3537 194.796 -15.1859 194.894Q-15.0181 194.993 -14.845 195.083Q-14.6719 195.173 -14.4939 195.255Q-14.3159 195.337 -14.1333 195.41Q-13.9508 195.483 -13.7641 195.547Q-13.5773 195.611 -13.3868 195.666Q-13.1963 195.722 -13.0024 195.768Q-12.8084 195.814 -12.6115 195.851Q-12.4146 195.888 -12.215 195.916Q-12.0155 195.944 -11.8137 195.963Q-11.612 195.981 -11.4084 195.991Q-11.2049 196 -11 196L213 196Q213.205 196 213.408 195.991Q213.612 195.981 213.814 195.963Q214.016 195.944 214.215 195.916Q214.415 195.888 214.612 195.851Q214.808 195.814 215.002 195.768Q215.196 195.722 215.387 195.666Q215.577 195.611 215.764 195.547Q215.951 195.483 216.133 195.41Q216.316 195.337 216.494 195.255Q216.672 195.173 216.845 195.083Q217.018 194.993 217.186 194.894Q217.354 194.796 217.516 194.689Q217.678 194.583 217.834 194.468Q217.991 194.354 218.141 194.232Q218.291 194.11 218.434 193.98Q218.578 193.851 218.714 193.714Q218.851 193.578 218.98 193.434Q219.11 193.291 219.232 193.141Q219.354 192.991 219.468 192.834Q219.583 192.678 219.689 192.516Q219.796 192.354 219.894 192.186Q219.993 192.018 220.083 191.845Q220.173 191.672 220.255 191.494Q220.337 191.316 220.41 191.133Q220.483 190.951 220.547 190.764Q220.611 190.577 220.666 190.387Q220.722 190.196 220.768 190.002Q220.814 189.808 220.851 189.612Q220.888 189.415 220.916 189.215Q220.944 189.016 220.963 188.814Q220.981 188.612 220.991 188.408Q221 188.205 221 188L221 -56Q221 -56.2049 220.991 -56.4085Q220.981 -56.612 220.963 -56.8137Q220.944 -57.0155 220.916 -57.215Q220.888 -57.4146 220.851 -57.6115Q220.814 -57.8084 220.768 -58.0024Q220.722 -58.1963 220.666 -58.3868Q220.611 -58.5773 220.547 -58.7641Q220.483 -58.9508 220.41 -59.1333Q220.337 -59.3159 220.255 -59.4939Q220.173 -59.6719 220.083 -59.845Q219.993 -60.0181 219.894 -60.1859Q219.796 -60.3537 219.689 -60.5159Q219.583 -60.6781 219.468 -60.8344Q219.354 -60.9907 219.232 -61.1407Q219.11 -61.2908 218.98 -61.4342Q218.851 -61.5777 218.714 -61.7143Q218.578 -61.8509 218.434 -61.9804Q218.291 -62.1098 218.141 -62.2319Q217.991 -62.354 217.834 -62.4684Q217.678 -62.5829 217.516 -62.6894Q217.354 -62.796 217.186 -62.8944Q217.018 -62.9929 216.845 -63.083Q216.672 -63.1732 216.494 -63.2548Q216.316 -63.3365 216.133 -63.4095Q215.951 -63.4825 215.764 -63.5467Q215.577 -63.611 215.387 -63.6663Q215.196 -63.7216 215.002 -63.7678Q214.808 -63.8141 214.612 -63.8512Q214.415 -63.8883 214.215 -63.9162Q214.016 -63.9441 213.814 -63.9627Q213.612 -63.9813 213.408 -63.9907Q213.205 -64 213 -64Z" clip-rule="evenodd"/>
		</clipPath>
	</defs>
	<g clip-path="url(#clip_1)">
		<path fill="rgb(131,156,171)" stroke="none" transform="translate(0.000301361 1.00012)" d="M13.819 13.937L0.5 13.937C0.223 13.937 0 13.713 0 13.437L0 2.597C0 2.32 0.223 2.097 0.5 2.097L12.716 2.097L13.414 1.08C13.877 0.403 14.643 0 15.464 0L21.196 0C21.472 0 21.696 0.224 21.696 0.5L21.696 2.956C21.696 3.232 21.472 3.456 21.196 3.456L17.703 3.456C16.938 3.456 16.271 4 16.116 4.749L14.309 13.538C14.261 13.77 14.056 13.937 13.819 13.937ZM1 12.937L13.412 12.937L15.136 4.547C15.386 3.335 16.466 2.456 17.703 2.456L20.696 2.456L20.696 1L15.464 1C14.973 1 14.515 1.241 14.238 1.645L13.392 2.879C13.3 3.015 13.145 3.097 12.98 3.097L1 3.097L1 12.937Z" fill-rule="evenodd"/>
	</g>

</svg>