<svg width="10px" height="20px" viewBox="0 0 10 20" version="1.1" xmlns="http://www.w3.org/2000/svg" xmlns:xlink="http://www.w3.org/1999/xlink">
    <defs>
        <path d="M7.07801089,12.0367366 L-4.20488448,10.5323506 C-4.47860451,10.4958545 -4.67091257,10.2443748 -4.63441657,9.97065474 C-4.60458868,9.74694556 -4.42859366,9.57095054 -4.20488448,9.54112265 L7.07801089,8.0367366 L7.07801089,5.93886042 C7.07801089,5.66271805 7.30186852,5.43886042 7.57801089,5.43886042 C7.67172075,5.43886042 7.76354456,5.46519514 7.84301036,5.51486127 L14.3996123,9.61273745 C14.6337805,9.75909262 14.7049671,10.0675678 14.5586119,10.3017361 C14.5183716,10.3661206 14.4639968,10.4204954 14.3996123,10.4607358 L7.84301036,14.5586119 C7.6088421,14.7049671 7.30036691,14.6337805 7.15401174,14.3996123 C7.10434562,14.3201464 7.07801089,14.2283226 7.07801089,14.1346128 L7.07801089,12.0367366 Z" id="path-1"></path>
        <mask id="mask-2" maskContentUnits="userSpaceOnUse" maskUnits="objectBoundingBox" x="0" y="0" width="19.2735401" height="9.19581929" fill="white">
            <use xlink:href="#path-1"></use>
        </mask>
    </defs>
    <g id="New-design" stroke="none" stroke-width="1" fill="none" fill-rule="evenodd" stroke-dasharray="2,2">
        <g id="Cost-Overview" transform="translate(-984.000000, -212.000000)" fill="#1BB9B9" stroke="#1BB9B9" stroke-width="2">
            <g id="right-content" transform="translate(425.000000, 150.000000)">
                <g id="content">
                    <g id="Tab-block-#01" transform="translate(10.000000, 0.000000)">
                        <g id="Tab-#03">
                            <g transform="translate(428.000000, 0.000000)">
                                <g id="icon_arrow_down" transform="translate(121.000000, 62.000000)">
                                    <use id="Combined-Shape" mask="url(#mask-2)" transform="translate(4.997910, 10.036770) rotate(90.000000) translate(-4.997910, -10.036770) " xlink:href="#path-1"></use>
                                </g>
                            </g>
                        </g>
                    </g>
                </g>
            </g>
        </g>
    </g>
</svg>