<?xml version="1.0" encoding="utf-8" ?>
<svg xmlns="http://www.w3.org/2000/svg" xmlns:xlink="http://www.w3.org/1999/xlink" width="24" height="25">
	<defs>
		<clipPath id="clip_0">
			<path d="M193 -179L-31 -179Q-31.2049 -179 -31.4084 -178.991Q-31.612 -178.981 -31.8137 -178.963Q-32.0155 -178.944 -32.215 -178.916Q-32.4146 -178.888 -32.6115 -178.851Q-32.8084 -178.814 -33.0024 -178.768Q-33.1963 -178.722 -33.3868 -178.666Q-33.5773 -178.611 -33.7641 -178.547Q-33.9508 -178.483 -34.1333 -178.41Q-34.3159 -178.337 -34.4939 -178.255Q-34.6719 -178.173 -34.845 -178.083Q-35.0181 -177.993 -35.1859 -177.894Q-35.3537 -177.796 -35.5159 -177.689Q-35.6782 -177.583 -35.8344 -177.468Q-35.9907 -177.354 -36.1407 -177.232Q-36.2908 -177.11 -36.4342 -176.98Q-36.5777 -176.851 -36.7143 -176.714Q-36.8509 -176.578 -36.9804 -176.434Q-37.1098 -176.291 -37.2319 -176.141Q-37.354 -175.991 -37.4684 -175.834Q-37.5829 -175.678 -37.6894 -175.516Q-37.7959 -175.354 -37.8944 -175.186Q-37.9928 -175.018 -38.083 -174.845Q-38.1731 -174.672 -38.2548 -174.494Q-38.3365 -174.316 -38.4095 -174.133Q-38.4825 -173.951 -38.5467 -173.764Q-38.611 -173.577 -38.6663 -173.387Q-38.7216 -173.196 -38.7678 -173.002Q-38.8141 -172.808 -38.8512 -172.612Q-38.8883 -172.415 -38.9162 -172.215Q-38.9441 -172.016 -38.9627 -171.814Q-38.9814 -171.612 -38.9907 -171.408Q-39 -171.205 -39 -171L-39 73Q-39 73.2049 -38.9907 73.4085Q-38.9814 73.612 -38.9627 73.8137Q-38.9441 74.0155 -38.9162 74.215Q-38.8883 74.4146 -38.8512 74.6115Q-38.8141 74.8084 -38.7678 75.0024Q-38.7216 75.1963 -38.6663 75.3868Q-38.611 75.5773 -38.5467 75.7641Q-38.4825 75.9508 -38.4095 76.1333Q-38.3365 76.3159 -38.2548 76.4939Q-38.1731 76.6719 -38.083 76.845Q-37.9928 77.0181 -37.8944 77.1859Q-37.7959 77.3537 -37.6894 77.5159Q-37.5828 77.6781 -37.4684 77.8344Q-37.354 77.9907 -37.2319 78.1407Q-37.1098 78.2908 -36.9804 78.4342Q-36.8509 78.5777 -36.7143 78.7143Q-36.5777 78.8509 -36.4342 78.9804Q-36.2908 79.1098 -36.1407 79.2319Q-35.9907 79.354 -35.8344 79.4684Q-35.6782 79.5829 -35.5159 79.6894Q-35.3537 79.796 -35.1859 79.8944Q-35.0181 79.9929 -34.845 80.083Q-34.6719 80.1732 -34.4939 80.2548Q-34.3159 80.3365 -34.1333 80.4095Q-33.9508 80.4825 -33.7641 80.5468Q-33.5773 80.611 -33.3868 80.6663Q-33.1963 80.7216 -33.0024 80.7678Q-32.8084 80.814 -32.6115 80.8512Q-32.4146 80.8883 -32.215 80.9162Q-32.0155 80.9441 -31.8137 80.9627Q-31.612 80.9814 -31.4084 80.9907Q-31.2049 81 -31 81L193 81Q193.205 81 193.408 80.9907Q193.612 80.9814 193.814 80.9627Q194.016 80.9441 194.215 80.9162Q194.415 80.8883 194.612 80.8512Q194.808 80.814 195.002 80.7678Q195.196 80.7216 195.387 80.6663Q195.577 80.611 195.764 80.5468Q195.951 80.4825 196.133 80.4095Q196.316 80.3365 196.494 80.2548Q196.672 80.1732 196.845 80.083Q197.018 79.9928 197.186 79.8944Q197.354 79.796 197.516 79.6894Q197.678 79.5829 197.834 79.4684Q197.991 79.354 198.141 79.2319Q198.291 79.1098 198.434 78.9804Q198.578 78.8509 198.714 78.7143Q198.851 78.5777 198.98 78.4342Q199.11 78.2908 199.232 78.1407Q199.354 77.9907 199.468 77.8344Q199.583 77.6781 199.689 77.5159Q199.796 77.3537 199.894 77.1859Q199.993 77.0181 200.083 76.845Q200.173 76.6719 200.255 76.4939Q200.337 76.3159 200.41 76.1333Q200.483 75.9508 200.547 75.7641Q200.611 75.5773 200.666 75.3868Q200.722 75.1963 200.768 75.0024Q200.814 74.8084 200.851 74.6115Q200.888 74.4146 200.916 74.215Q200.944 74.0155 200.963 73.8137Q200.981 73.612 200.991 73.4085Q201 73.2049 201 73L201 -171Q201 -171.205 200.991 -171.408Q200.981 -171.612 200.963 -171.814Q200.944 -172.015 200.916 -172.215Q200.888 -172.415 200.851 -172.612Q200.814 -172.808 200.768 -173.002Q200.722 -173.196 200.666 -173.387Q200.611 -173.577 200.547 -173.764Q200.483 -173.951 200.41 -174.133Q200.337 -174.316 200.255 -174.494Q200.173 -174.672 200.083 -174.845Q199.993 -175.018 199.894 -175.186Q199.796 -175.354 199.689 -175.516Q199.583 -175.678 199.468 -175.834Q199.354 -175.991 199.232 -176.141Q199.11 -176.291 198.98 -176.434Q198.851 -176.578 198.714 -176.714Q198.578 -176.851 198.434 -176.98Q198.291 -177.11 198.141 -177.232Q197.991 -177.354 197.834 -177.468Q197.678 -177.583 197.516 -177.689Q197.354 -177.796 197.186 -177.894Q197.018 -177.993 196.845 -178.083Q196.672 -178.173 196.494 -178.255Q196.316 -178.337 196.133 -178.41Q195.951 -178.483 195.764 -178.547Q195.577 -178.611 195.387 -178.666Q195.196 -178.722 195.002 -178.768Q194.808 -178.814 194.612 -178.851Q194.415 -178.888 194.215 -178.916Q194.016 -178.944 193.814 -178.963Q193.612 -178.981 193.408 -178.991Q193.205 -179 193 -179Z" clip-rule="evenodd"/>
		</clipPath>
	</defs>
	<g clip-path="url(#clip_0)">
		<path fill="rgb(131,156,171)" stroke="none" transform="translate(10.7596 4.53857)" d="M1.216 5.415L1.548 1.426L1.548 0.774C1.548 0.347 1.201 0 0.774 0C0.347 0 0 0.347 0 0.774L0 1.426L0.332 5.415L1.216 5.415Z"/>
	</g>
	<defs>
		<clipPath id="clip_1">
			<path d="M193 -179L-31 -179Q-31.2049 -179 -31.4084 -178.991Q-31.612 -178.981 -31.8137 -178.963Q-32.0155 -178.944 -32.215 -178.916Q-32.4146 -178.888 -32.6115 -178.851Q-32.8084 -178.814 -33.0024 -178.768Q-33.1963 -178.722 -33.3868 -178.666Q-33.5773 -178.611 -33.7641 -178.547Q-33.9508 -178.483 -34.1333 -178.41Q-34.3159 -178.337 -34.4939 -178.255Q-34.6719 -178.173 -34.845 -178.083Q-35.0181 -177.993 -35.1859 -177.894Q-35.3537 -177.796 -35.5159 -177.689Q-35.6782 -177.583 -35.8344 -177.468Q-35.9907 -177.354 -36.1407 -177.232Q-36.2908 -177.11 -36.4342 -176.98Q-36.5777 -176.851 -36.7143 -176.714Q-36.8509 -176.578 -36.9804 -176.434Q-37.1098 -176.291 -37.2319 -176.141Q-37.354 -175.991 -37.4684 -175.834Q-37.5829 -175.678 -37.6894 -175.516Q-37.7959 -175.354 -37.8944 -175.186Q-37.9928 -175.018 -38.083 -174.845Q-38.1731 -174.672 -38.2548 -174.494Q-38.3365 -174.316 -38.4095 -174.133Q-38.4825 -173.951 -38.5467 -173.764Q-38.611 -173.577 -38.6663 -173.387Q-38.7216 -173.196 -38.7678 -173.002Q-38.8141 -172.808 -38.8512 -172.612Q-38.8883 -172.415 -38.9162 -172.215Q-38.9441 -172.016 -38.9627 -171.814Q-38.9814 -171.612 -38.9907 -171.408Q-39 -171.205 -39 -171L-39 73Q-39 73.2049 -38.9907 73.4085Q-38.9814 73.612 -38.9627 73.8137Q-38.9441 74.0155 -38.9162 74.215Q-38.8883 74.4146 -38.8512 74.6115Q-38.8141 74.8084 -38.7678 75.0024Q-38.7216 75.1963 -38.6663 75.3868Q-38.611 75.5773 -38.5467 75.7641Q-38.4825 75.9508 -38.4095 76.1333Q-38.3365 76.3159 -38.2548 76.4939Q-38.1731 76.6719 -38.083 76.845Q-37.9928 77.0181 -37.8944 77.1859Q-37.7959 77.3537 -37.6894 77.5159Q-37.5828 77.6781 -37.4684 77.8344Q-37.354 77.9907 -37.2319 78.1407Q-37.1098 78.2908 -36.9804 78.4342Q-36.8509 78.5777 -36.7143 78.7143Q-36.5777 78.8509 -36.4342 78.9804Q-36.2908 79.1098 -36.1407 79.2319Q-35.9907 79.354 -35.8344 79.4684Q-35.6782 79.5829 -35.5159 79.6894Q-35.3537 79.796 -35.1859 79.8944Q-35.0181 79.9929 -34.845 80.083Q-34.6719 80.1732 -34.4939 80.2548Q-34.3159 80.3365 -34.1333 80.4095Q-33.9508 80.4825 -33.7641 80.5468Q-33.5773 80.611 -33.3868 80.6663Q-33.1963 80.7216 -33.0024 80.7678Q-32.8084 80.814 -32.6115 80.8512Q-32.4146 80.8883 -32.215 80.9162Q-32.0155 80.9441 -31.8137 80.9627Q-31.612 80.9814 -31.4084 80.9907Q-31.2049 81 -31 81L193 81Q193.205 81 193.408 80.9907Q193.612 80.9814 193.814 80.9627Q194.016 80.9441 194.215 80.9162Q194.415 80.8883 194.612 80.8512Q194.808 80.814 195.002 80.7678Q195.196 80.7216 195.387 80.6663Q195.577 80.611 195.764 80.5468Q195.951 80.4825 196.133 80.4095Q196.316 80.3365 196.494 80.2548Q196.672 80.1732 196.845 80.083Q197.018 79.9928 197.186 79.8944Q197.354 79.796 197.516 79.6894Q197.678 79.5829 197.834 79.4684Q197.991 79.354 198.141 79.2319Q198.291 79.1098 198.434 78.9804Q198.578 78.8509 198.714 78.7143Q198.851 78.5777 198.98 78.4342Q199.11 78.2908 199.232 78.1407Q199.354 77.9907 199.468 77.8344Q199.583 77.6781 199.689 77.5159Q199.796 77.3537 199.894 77.1859Q199.993 77.0181 200.083 76.845Q200.173 76.6719 200.255 76.4939Q200.337 76.3159 200.41 76.1333Q200.483 75.9508 200.547 75.7641Q200.611 75.5773 200.666 75.3868Q200.722 75.1963 200.768 75.0024Q200.814 74.8084 200.851 74.6115Q200.888 74.4146 200.916 74.215Q200.944 74.0155 200.963 73.8137Q200.981 73.612 200.991 73.4085Q201 73.2049 201 73L201 -171Q201 -171.205 200.991 -171.408Q200.981 -171.612 200.963 -171.814Q200.944 -172.015 200.916 -172.215Q200.888 -172.415 200.851 -172.612Q200.814 -172.808 200.768 -173.002Q200.722 -173.196 200.666 -173.387Q200.611 -173.577 200.547 -173.764Q200.483 -173.951 200.41 -174.133Q200.337 -174.316 200.255 -174.494Q200.173 -174.672 200.083 -174.845Q199.993 -175.018 199.894 -175.186Q199.796 -175.354 199.689 -175.516Q199.583 -175.678 199.468 -175.834Q199.354 -175.991 199.232 -176.141Q199.11 -176.291 198.98 -176.434Q198.851 -176.578 198.714 -176.714Q198.578 -176.851 198.434 -176.98Q198.291 -177.11 198.141 -177.232Q197.991 -177.354 197.834 -177.468Q197.678 -177.583 197.516 -177.689Q197.354 -177.796 197.186 -177.894Q197.018 -177.993 196.845 -178.083Q196.672 -178.173 196.494 -178.255Q196.316 -178.337 196.133 -178.41Q195.951 -178.483 195.764 -178.547Q195.577 -178.611 195.387 -178.666Q195.196 -178.722 195.002 -178.768Q194.808 -178.814 194.612 -178.851Q194.415 -178.888 194.215 -178.916Q194.016 -178.944 193.814 -178.963Q193.612 -178.981 193.408 -178.991Q193.205 -179 193 -179Z" clip-rule="evenodd"/>
		</clipPath>
	</defs>
	<g clip-path="url(#clip_1)">
		<path fill="rgb(131,156,171)" stroke="none" transform="translate(10.7161 10.8926)" d="M0.823 0C0.598 0 0.405 0.081 0.243 0.243C0.081 0.405 0 0.599 0 0.823C0 1.048 0.081 1.241 0.243 1.403C0.405 1.565 0.598 1.646 0.823 1.646C1.049 1.646 1.242 1.565 1.403 1.403C1.565 1.241 1.646 1.048 1.646 0.823C1.646 0.599 1.565 0.405 1.403 0.243C1.242 0.081 1.049 0 0.823 0"/>
	</g>
	<defs>
		<clipPath id="clip_2">
			<path d="M193 -179L-31 -179Q-31.2049 -179 -31.4084 -178.991Q-31.612 -178.981 -31.8137 -178.963Q-32.0155 -178.944 -32.215 -178.916Q-32.4146 -178.888 -32.6115 -178.851Q-32.8084 -178.814 -33.0024 -178.768Q-33.1963 -178.722 -33.3868 -178.666Q-33.5773 -178.611 -33.7641 -178.547Q-33.9508 -178.483 -34.1333 -178.41Q-34.3159 -178.337 -34.4939 -178.255Q-34.6719 -178.173 -34.845 -178.083Q-35.0181 -177.993 -35.1859 -177.894Q-35.3537 -177.796 -35.5159 -177.689Q-35.6782 -177.583 -35.8344 -177.468Q-35.9907 -177.354 -36.1407 -177.232Q-36.2908 -177.11 -36.4342 -176.98Q-36.5777 -176.851 -36.7143 -176.714Q-36.8509 -176.578 -36.9804 -176.434Q-37.1098 -176.291 -37.2319 -176.141Q-37.354 -175.991 -37.4684 -175.834Q-37.5829 -175.678 -37.6894 -175.516Q-37.7959 -175.354 -37.8944 -175.186Q-37.9928 -175.018 -38.083 -174.845Q-38.1731 -174.672 -38.2548 -174.494Q-38.3365 -174.316 -38.4095 -174.133Q-38.4825 -173.951 -38.5467 -173.764Q-38.611 -173.577 -38.6663 -173.387Q-38.7216 -173.196 -38.7678 -173.002Q-38.8141 -172.808 -38.8512 -172.612Q-38.8883 -172.415 -38.9162 -172.215Q-38.9441 -172.016 -38.9627 -171.814Q-38.9814 -171.612 -38.9907 -171.408Q-39 -171.205 -39 -171L-39 73Q-39 73.2049 -38.9907 73.4085Q-38.9814 73.612 -38.9627 73.8137Q-38.9441 74.0155 -38.9162 74.215Q-38.8883 74.4146 -38.8512 74.6115Q-38.8141 74.8084 -38.7678 75.0024Q-38.7216 75.1963 -38.6663 75.3868Q-38.611 75.5773 -38.5467 75.7641Q-38.4825 75.9508 -38.4095 76.1333Q-38.3365 76.3159 -38.2548 76.4939Q-38.1731 76.6719 -38.083 76.845Q-37.9928 77.0181 -37.8944 77.1859Q-37.7959 77.3537 -37.6894 77.5159Q-37.5828 77.6781 -37.4684 77.8344Q-37.354 77.9907 -37.2319 78.1407Q-37.1098 78.2908 -36.9804 78.4342Q-36.8509 78.5777 -36.7143 78.7143Q-36.5777 78.8509 -36.4342 78.9804Q-36.2908 79.1098 -36.1407 79.2319Q-35.9907 79.354 -35.8344 79.4684Q-35.6782 79.5829 -35.5159 79.6894Q-35.3537 79.796 -35.1859 79.8944Q-35.0181 79.9929 -34.845 80.083Q-34.6719 80.1732 -34.4939 80.2548Q-34.3159 80.3365 -34.1333 80.4095Q-33.9508 80.4825 -33.7641 80.5468Q-33.5773 80.611 -33.3868 80.6663Q-33.1963 80.7216 -33.0024 80.7678Q-32.8084 80.814 -32.6115 80.8512Q-32.4146 80.8883 -32.215 80.9162Q-32.0155 80.9441 -31.8137 80.9627Q-31.612 80.9814 -31.4084 80.9907Q-31.2049 81 -31 81L193 81Q193.205 81 193.408 80.9907Q193.612 80.9814 193.814 80.9627Q194.016 80.9441 194.215 80.9162Q194.415 80.8883 194.612 80.8512Q194.808 80.814 195.002 80.7678Q195.196 80.7216 195.387 80.6663Q195.577 80.611 195.764 80.5468Q195.951 80.4825 196.133 80.4095Q196.316 80.3365 196.494 80.2548Q196.672 80.1732 196.845 80.083Q197.018 79.9928 197.186 79.8944Q197.354 79.796 197.516 79.6894Q197.678 79.5829 197.834 79.4684Q197.991 79.354 198.141 79.2319Q198.291 79.1098 198.434 78.9804Q198.578 78.8509 198.714 78.7143Q198.851 78.5777 198.98 78.4342Q199.11 78.2908 199.232 78.1407Q199.354 77.9907 199.468 77.8344Q199.583 77.6781 199.689 77.5159Q199.796 77.3537 199.894 77.1859Q199.993 77.0181 200.083 76.845Q200.173 76.6719 200.255 76.4939Q200.337 76.3159 200.41 76.1333Q200.483 75.9508 200.547 75.7641Q200.611 75.5773 200.666 75.3868Q200.722 75.1963 200.768 75.0024Q200.814 74.8084 200.851 74.6115Q200.888 74.4146 200.916 74.215Q200.944 74.0155 200.963 73.8137Q200.981 73.612 200.991 73.4085Q201 73.2049 201 73L201 -171Q201 -171.205 200.991 -171.408Q200.981 -171.612 200.963 -171.814Q200.944 -172.015 200.916 -172.215Q200.888 -172.415 200.851 -172.612Q200.814 -172.808 200.768 -173.002Q200.722 -173.196 200.666 -173.387Q200.611 -173.577 200.547 -173.764Q200.483 -173.951 200.41 -174.133Q200.337 -174.316 200.255 -174.494Q200.173 -174.672 200.083 -174.845Q199.993 -175.018 199.894 -175.186Q199.796 -175.354 199.689 -175.516Q199.583 -175.678 199.468 -175.834Q199.354 -175.991 199.232 -176.141Q199.11 -176.291 198.98 -176.434Q198.851 -176.578 198.714 -176.714Q198.578 -176.851 198.434 -176.98Q198.291 -177.11 198.141 -177.232Q197.991 -177.354 197.834 -177.468Q197.678 -177.583 197.516 -177.689Q197.354 -177.796 197.186 -177.894Q197.018 -177.993 196.845 -178.083Q196.672 -178.173 196.494 -178.255Q196.316 -178.337 196.133 -178.41Q195.951 -178.483 195.764 -178.547Q195.577 -178.611 195.387 -178.666Q195.196 -178.722 195.002 -178.768Q194.808 -178.814 194.612 -178.851Q194.415 -178.888 194.215 -178.916Q194.016 -178.944 193.814 -178.963Q193.612 -178.981 193.408 -178.991Q193.205 -179 193 -179Z" clip-rule="evenodd"/>
		</clipPath>
	</defs>
	<g clip-path="url(#clip_2)">
		<path fill="rgb(131,156,171)" stroke="none" transform="translate(4.00011 0.999573)" d="M10.808 0.147L14.932 4.27C15.025 4.364 15.078 4.491 15.078 4.624L15.078 10.455C15.078 10.587 15.025 10.715 14.932 10.809L10.808 14.932C10.715 15.025 10.588 15.078 10.455 15.078L9.253 15.078L9.253 20.816L10.871 20.816C11.147 20.816 11.371 21.04 11.371 21.316L11.371 23.5C11.371 23.776 11.147 24 10.871 24L4.207 24C3.931 24 3.707 23.776 3.707 23.5L3.707 21.316C3.707 21.04 3.931 20.816 4.207 20.816L5.825 20.816L5.825 15.078L4.623 15.078C4.49 15.078 4.363 15.025 4.269 14.932L0.146 10.809C0.053 10.715 0 10.587 0 10.455L0 4.624C0 4.491 0.053 4.364 0.146 4.27L4.269 0.147C4.363 0.053 4.49 0 4.623 0L10.455 0C10.588 0 10.715 0.053 10.808 0.147ZM10.248 14.078L14.078 10.248L14.078 4.831L10.248 1L4.83 1L1 4.831L1 10.248L4.83 14.078L10.248 14.078ZM8.253 20.816L6.825 20.816L6.825 15.078L8.253 15.078L8.253 20.816ZM10.371 23L4.707 23L4.707 21.816L10.371 21.816L10.371 23Z" fill-rule="evenodd"/>
	</g>

</svg>