
<svg width="20px" height="18px" viewBox="0 0 20 18" version="1.1" xmlns="http://www.w3.org/2000/svg" xmlns:xlink="http://www.w3.org/1999/xlink">
    <g id="left_Navi" stroke="none" stroke-width="1" fill="none" fill-rule="evenodd">
        <g id="left-Navi-new复制" transform="translate(-22.000000, -287.000000)">
            <g id="left-Navi-new-Copy">
                <g id="setting-block" transform="translate(0.000000, 72.000000)">
                    <g id="icon_style" transform="translate(0.000000, 192.000000)">
                        <rect id="block" x="0" y="0" width="64" height="64"></rect>
                        <g id="icon_04/gray" transform="translate(22.000000, 22.000000)" fill="#6E8591" fill-rule="evenodd" stroke-width="1">
                            <g id="编组" transform="translate(0.000000, 1.500000)">
                                <path d="M11.5,6.06889716 C11.776,6.06889716 12,6.29289716 12,6.56889716 L12,9.56889716 C12,9.84489716 11.776,10.0688972 11.5,10.0688972 L8.5,10.0688972 C8.224,10.0688972 8,9.84489716 8,9.56889716 L8,6.56889716 C8,6.29289716 8.224,6.06889716 8.5,6.06889716 L11.5,6.06889716 Z" id="Fill-1"></path>
                                <path d="M8.5,11.0688972 C7.673,11.0688972 7,10.3958972 7,9.56889716 L7,6.56889716 C7,5.74189716 7.673,5.06889716 8.5,5.06889716 L9.167,5.06889716 L9.167,2.69189716 C9.167,1.32789716 8.155,0.119897163 6.796,0.0088971634 C5.498,-0.0971028366 4.384,0.755897163 4.076,1.93489716 C2.846,2.13489716 1.905,3.19889716 1.905,4.48589716 C1.905,5.00289716 2.058,5.48289716 2.318,5.88689716 C1.007,6.08689716 1.50990331e-14,7.21589716 1.50990331e-14,8.58389716 C1.50990331e-14,9.48389716 0.437,10.2808972 1.109,10.7778972 C0.79,11.3238972 0.661,11.9928972 0.828,12.6998972 C1.006,13.4548972 1.546,14.0908972 2.249,14.4188972 C2.89,14.7168972 3.497,14.7228972 4.038,14.5718972 C4.278,15.8128972 5.403,16.7388972 6.73,16.6628972 C8.118,16.5838972 9.167,15.3568972 9.167,13.9658972 L9.167,11.0688972 L8.5,11.0688972 Z" id="Fill-3"></path>
                                <path d="M18.9912,6.46729716 C18.6222,6.16729716 18.1732,5.96229716 17.6812,5.88729716 L17.6812,5.88629716 C17.8982,5.55029716 18.0352,5.15829716 18.0762,4.73929716 C18.0852,4.65529716 18.0952,4.57229716 18.0952,4.48629716 C18.0952,4.32529716 18.0802,4.16829716 18.0522,4.01529716 C17.9682,3.55729716 17.7622,3.14129716 17.4702,2.80229716 C17.3732,2.69029716 17.2662,2.58529716 17.1512,2.49029716 C16.8052,2.20629716 16.3852,2.00929716 15.9242,1.93429716 C15.7122,1.12429716 15.1152,0.477297163 14.3442,0.180297163 C13.9932,0.0452971634 13.6092,-0.0237028366 13.2042,0.0092971634 C12.6942,0.0502971634 12.2332,0.246297163 11.8562,0.547297163 C11.6052,0.747297163 11.3912,0.994297163 11.2242,1.27229716 C10.9752,1.69029716 10.8332,2.18029716 10.8332,2.69229716 L10.8332,5.06929716 L11.5002,5.06929716 C12.1202,5.06929716 12.6542,5.44729716 12.8822,5.98529716 L13.5942,5.98529716 L13.5942,3.86329716 C13.3512,3.77829716 13.1772,3.54829716 13.1772,3.27729716 C13.1772,2.93129716 13.4572,2.65229716 13.8022,2.65229716 C14.1472,2.65229716 14.4272,2.93129716 14.4272,3.27729716 C14.4272,3.54829716 14.2532,3.77829716 14.0112,3.86329716 L14.0112,5.98529716 L15.1822,5.98529716 L15.7482,5.41929716 C15.7092,5.33829716 15.6852,5.24829716 15.6852,5.15229716 C15.6852,4.80629716 15.9662,4.52729716 16.3102,4.52729716 C16.6562,4.52729716 16.9352,4.80629716 16.9352,5.15229716 C16.9352,5.49729716 16.6562,5.77729716 16.3102,5.77729716 C16.2152,5.77729716 16.1242,5.75329716 16.0432,5.71429716 L15.4172,6.34029716 C15.3972,6.36029716 15.3742,6.37529716 15.3482,6.38629716 C15.3232,6.39629716 15.2962,6.40229716 15.2692,6.40229716 L12.9832,6.40229716 C12.9892,6.45729716 13.0002,6.51129716 13.0002,6.56929716 L13.0002,8.06929716 L16.9132,8.06929716 C16.9992,7.82629716 17.2282,7.65229716 17.5002,7.65229716 C17.8452,7.65229716 18.1252,7.93129716 18.1252,8.27729716 C18.1252,8.62229716 17.8452,8.90229716 17.5002,8.90229716 C17.2282,8.90229716 17.0002,8.72729716 16.9132,8.48529716 L15.8912,8.48529716 C15.8912,8.48929716 15.8942,8.49329716 15.8942,8.49829716 L15.8942,10.4952972 L17.5032,12.1042972 C17.5852,12.0652972 17.6752,12.0422972 17.7712,12.0422972 C18.1162,12.0422972 18.3962,12.3222972 18.3962,12.6672972 C18.3962,13.0122972 18.1162,13.2922972 17.7712,13.2922972 C17.4262,13.2922972 17.1462,13.0122972 17.1462,12.6672972 C17.1462,12.5712972 17.1702,12.4812972 17.2092,12.3992972 L15.5392,10.7292972 C15.5192,10.7102972 15.5042,10.6872972 15.4932,10.6612972 C15.4822,10.6352972 15.4772,10.6092972 15.4772,10.5812972 L15.4772,8.49829716 C15.4772,8.49329716 15.4792,8.48929716 15.4792,8.48529716 L13.0002,8.48529716 L13.0002,9.56929716 C13.0002,9.74529716 12.9642,9.91229716 12.9072,10.0702972 L14.2752,11.4372972 C14.3242,11.4252972 14.3752,11.4172972 14.4272,11.4172972 C14.7722,11.4172972 15.0522,11.6972972 15.0522,12.0422972 C15.0522,12.3872972 14.7722,12.6672972 14.4272,12.6672972 C14.0822,12.6672972 13.8022,12.3872972 13.8022,12.0422972 C13.8022,11.9042972 13.8472,11.7782972 13.9242,11.6752972 L12.7042,10.4552972 C12.5922,10.6072972 12.4522,10.7372972 12.2922,10.8372972 L12.2922,13.1942972 C12.5342,13.2792972 12.7082,13.5082972 12.7082,13.7802972 C12.7082,14.1252972 12.4292,14.4052972 12.0832,14.4052972 C11.7382,14.4052972 11.4582,14.1252972 11.4582,13.7802972 C11.4582,13.5082972 11.6332,13.2792972 11.8752,13.1942972 L11.8752,11.0152972 C11.7552,11.0472972 11.6302,11.0692972 11.5002,11.0692972 L10.8332,11.0692972 L10.8332,13.9662972 C10.8332,14.4882972 10.9802,14.9872972 11.2382,15.4092972 C11.5822,15.9742972 12.1202,16.4052972 12.7662,16.5802972 C12.9292,16.6242972 13.0962,16.6532972 13.2692,16.6622972 C13.4352,16.6722972 13.5982,16.6652972 13.7572,16.6452972 C14.3892,16.5642972 14.9512,16.2522972 15.3542,15.7982972 C15.6572,15.4582972 15.8722,15.0362972 15.9622,14.5712972 C16.0292,14.5902972 16.1002,14.5992972 16.1712,14.6132972 C16.5892,14.6952972 17.0402,14.6742972 17.5142,14.5042972 C17.5942,14.4752972 17.6712,14.4552972 17.7512,14.4182972 C18.0142,14.2952972 18.2442,14.1182972 18.4512,13.9182972 C18.7052,13.6742972 18.9052,13.3862972 19.0402,13.0602972 C19.0892,12.9422972 19.1422,12.8252972 19.1722,12.7002972 C19.2142,12.5232972 19.2372,12.3482972 19.2432,12.1782972 C19.2502,12.0072972 19.2392,11.8402972 19.2142,11.6782972 C19.1792,11.4622972 19.1092,11.2602972 19.0252,11.0652972 C18.9832,10.9682972 18.9442,10.8692972 18.8902,10.7782972 C19.0032,10.6952972 19.0972,10.5922972 19.1952,10.4942972 C19.3912,10.2972972 19.5682,10.0812972 19.6972,9.83229716 C19.8902,9.45829716 20.0002,9.03429716 20.0002,8.58429716 C20.0002,7.72929716 19.6062,6.96729716 18.9912,6.46729716" id="Fill-5"></path>
                            </g>
                        </g>
                    </g>
                </g>
            </g>
        </g>
    </g>
</svg>